<?xml version="1.0" encoding="utf-8" standalone="no"?>
<!DOCTYPE svg PUBLIC "-//W3C//DTD SVG 1.1//EN"
  "http://www.w3.org/Graphics/SVG/1.1/DTD/svg11.dtd">
<!-- Created with matplotlib (http://matplotlib.org/) -->
<svg height="345.6pt" version="1.1" viewBox="0 0 460.8 345.6" width="460.8pt" xmlns="http://www.w3.org/2000/svg" xmlns:xlink="http://www.w3.org/1999/xlink">
 <defs>
  <style type="text/css">
*{stroke-linecap:butt;stroke-linejoin:round;}
  </style>
 </defs>
 <g id="figure_1">
  <g id="patch_1">
   <path d="M 0 345.6 
L 460.8 345.6 
L 460.8 0 
L 0 0 
z
" style="fill:#ffffff;"/>
  </g>
  <g id="axes_1">
   <g id="patch_2">
    <path d="M 57.6 307.584 
L 414.72 307.584 
L 414.72 41.472 
L 57.6 41.472 
z
" style="fill:#ffffff;"/>
   </g>
   <g id="matplotlib.axis_1">
    <g id="xtick_1">
     <g id="line2d_1">
      <defs>
       <path d="M 0 0 
L 0 3.5 
" id="m2163fc4a85" style="stroke:#000000;stroke-width:0.8;"/>
      </defs>
      <g>
       <use style="stroke:#000000;stroke-width:0.8;" x="73.832727" xlink:href="#m2163fc4a85" y="307.584"/>
      </g>
     </g>
     <g id="text_1">
      <!-- 0.0 -->
      <defs>
       <path d="M 31.78125 66.40625 
Q 24.171875 66.40625 20.328125 58.90625 
Q 16.5 51.421875 16.5 36.375 
Q 16.5 21.390625 20.328125 13.890625 
Q 24.171875 6.390625 31.78125 6.390625 
Q 39.453125 6.390625 43.28125 13.890625 
Q 47.125 21.390625 47.125 36.375 
Q 47.125 51.421875 43.28125 58.90625 
Q 39.453125 66.40625 31.78125 66.40625 
z
M 31.78125 74.21875 
Q 44.046875 74.21875 50.515625 64.515625 
Q 56.984375 54.828125 56.984375 36.375 
Q 56.984375 17.96875 50.515625 8.265625 
Q 44.046875 -1.421875 31.78125 -1.421875 
Q 19.53125 -1.421875 13.0625 8.265625 
Q 6.59375 17.96875 6.59375 36.375 
Q 6.59375 54.828125 13.0625 64.515625 
Q 19.53125 74.21875 31.78125 74.21875 
z
" id="DejaVuSans-30"/>
       <path d="M 10.6875 12.40625 
L 21 12.40625 
L 21 0 
L 10.6875 0 
z
" id="DejaVuSans-2e"/>
      </defs>
      <g transform="translate(65.881165 322.182437)scale(0.1 -0.1)">
       <use xlink:href="#DejaVuSans-30"/>
       <use x="63.623047" xlink:href="#DejaVuSans-2e"/>
       <use x="95.410156" xlink:href="#DejaVuSans-30"/>
      </g>
     </g>
    </g>
    <g id="xtick_2">
     <g id="line2d_2">
      <g>
       <use style="stroke:#000000;stroke-width:0.8;" x="138.763636" xlink:href="#m2163fc4a85" y="307.584"/>
      </g>
     </g>
     <g id="text_2">
      <!-- 0.2 -->
      <defs>
       <path d="M 19.1875 8.296875 
L 53.609375 8.296875 
L 53.609375 0 
L 7.328125 0 
L 7.328125 8.296875 
Q 12.9375 14.109375 22.625 23.890625 
Q 32.328125 33.6875 34.8125 36.53125 
Q 39.546875 41.84375 41.421875 45.53125 
Q 43.3125 49.21875 43.3125 52.78125 
Q 43.3125 58.59375 39.234375 62.25 
Q 35.15625 65.921875 28.609375 65.921875 
Q 23.96875 65.921875 18.8125 64.3125 
Q 13.671875 62.703125 7.8125 59.421875 
L 7.8125 69.390625 
Q 13.765625 71.78125 18.9375 73 
Q 24.125 74.21875 28.421875 74.21875 
Q 39.75 74.21875 46.484375 68.546875 
Q 53.21875 62.890625 53.21875 53.421875 
Q 53.21875 48.921875 51.53125 44.890625 
Q 49.859375 40.875 45.40625 35.40625 
Q 44.1875 33.984375 37.640625 27.21875 
Q 31.109375 20.453125 19.1875 8.296875 
z
" id="DejaVuSans-32"/>
      </defs>
      <g transform="translate(130.812074 322.182437)scale(0.1 -0.1)">
       <use xlink:href="#DejaVuSans-30"/>
       <use x="63.623047" xlink:href="#DejaVuSans-2e"/>
       <use x="95.410156" xlink:href="#DejaVuSans-32"/>
      </g>
     </g>
    </g>
    <g id="xtick_3">
     <g id="line2d_3">
      <g>
       <use style="stroke:#000000;stroke-width:0.8;" x="203.694545" xlink:href="#m2163fc4a85" y="307.584"/>
      </g>
     </g>
     <g id="text_3">
      <!-- 0.4 -->
      <defs>
       <path d="M 37.796875 64.3125 
L 12.890625 25.390625 
L 37.796875 25.390625 
z
M 35.203125 72.90625 
L 47.609375 72.90625 
L 47.609375 25.390625 
L 58.015625 25.390625 
L 58.015625 17.1875 
L 47.609375 17.1875 
L 47.609375 0 
L 37.796875 0 
L 37.796875 17.1875 
L 4.890625 17.1875 
L 4.890625 26.703125 
z
" id="DejaVuSans-34"/>
      </defs>
      <g transform="translate(195.742983 322.182437)scale(0.1 -0.1)">
       <use xlink:href="#DejaVuSans-30"/>
       <use x="63.623047" xlink:href="#DejaVuSans-2e"/>
       <use x="95.410156" xlink:href="#DejaVuSans-34"/>
      </g>
     </g>
    </g>
    <g id="xtick_4">
     <g id="line2d_4">
      <g>
       <use style="stroke:#000000;stroke-width:0.8;" x="268.625455" xlink:href="#m2163fc4a85" y="307.584"/>
      </g>
     </g>
     <g id="text_4">
      <!-- 0.6 -->
      <defs>
       <path d="M 33.015625 40.375 
Q 26.375 40.375 22.484375 35.828125 
Q 18.609375 31.296875 18.609375 23.390625 
Q 18.609375 15.53125 22.484375 10.953125 
Q 26.375 6.390625 33.015625 6.390625 
Q 39.65625 6.390625 43.53125 10.953125 
Q 47.40625 15.53125 47.40625 23.390625 
Q 47.40625 31.296875 43.53125 35.828125 
Q 39.65625 40.375 33.015625 40.375 
z
M 52.59375 71.296875 
L 52.59375 62.3125 
Q 48.875 64.0625 45.09375 64.984375 
Q 41.3125 65.921875 37.59375 65.921875 
Q 27.828125 65.921875 22.671875 59.328125 
Q 17.53125 52.734375 16.796875 39.40625 
Q 19.671875 43.65625 24.015625 45.921875 
Q 28.375 48.1875 33.59375 48.1875 
Q 44.578125 48.1875 50.953125 41.515625 
Q 57.328125 34.859375 57.328125 23.390625 
Q 57.328125 12.15625 50.6875 5.359375 
Q 44.046875 -1.421875 33.015625 -1.421875 
Q 20.359375 -1.421875 13.671875 8.265625 
Q 6.984375 17.96875 6.984375 36.375 
Q 6.984375 53.65625 15.1875 63.9375 
Q 23.390625 74.21875 37.203125 74.21875 
Q 40.921875 74.21875 44.703125 73.484375 
Q 48.484375 72.75 52.59375 71.296875 
z
" id="DejaVuSans-36"/>
      </defs>
      <g transform="translate(260.673892 322.182437)scale(0.1 -0.1)">
       <use xlink:href="#DejaVuSans-30"/>
       <use x="63.623047" xlink:href="#DejaVuSans-2e"/>
       <use x="95.410156" xlink:href="#DejaVuSans-36"/>
      </g>
     </g>
    </g>
    <g id="xtick_5">
     <g id="line2d_5">
      <g>
       <use style="stroke:#000000;stroke-width:0.8;" x="333.556364" xlink:href="#m2163fc4a85" y="307.584"/>
      </g>
     </g>
     <g id="text_5">
      <!-- 0.8 -->
      <defs>
       <path d="M 31.78125 34.625 
Q 24.75 34.625 20.71875 30.859375 
Q 16.703125 27.09375 16.703125 20.515625 
Q 16.703125 13.921875 20.71875 10.15625 
Q 24.75 6.390625 31.78125 6.390625 
Q 38.8125 6.390625 42.859375 10.171875 
Q 46.921875 13.96875 46.921875 20.515625 
Q 46.921875 27.09375 42.890625 30.859375 
Q 38.875 34.625 31.78125 34.625 
z
M 21.921875 38.8125 
Q 15.578125 40.375 12.03125 44.71875 
Q 8.5 49.078125 8.5 55.328125 
Q 8.5 64.0625 14.71875 69.140625 
Q 20.953125 74.21875 31.78125 74.21875 
Q 42.671875 74.21875 48.875 69.140625 
Q 55.078125 64.0625 55.078125 55.328125 
Q 55.078125 49.078125 51.53125 44.71875 
Q 48 40.375 41.703125 38.8125 
Q 48.828125 37.15625 52.796875 32.3125 
Q 56.78125 27.484375 56.78125 20.515625 
Q 56.78125 9.90625 50.3125 4.234375 
Q 43.84375 -1.421875 31.78125 -1.421875 
Q 19.734375 -1.421875 13.25 4.234375 
Q 6.78125 9.90625 6.78125 20.515625 
Q 6.78125 27.484375 10.78125 32.3125 
Q 14.796875 37.15625 21.921875 38.8125 
z
M 18.3125 54.390625 
Q 18.3125 48.734375 21.84375 45.5625 
Q 25.390625 42.390625 31.78125 42.390625 
Q 38.140625 42.390625 41.71875 45.5625 
Q 45.3125 48.734375 45.3125 54.390625 
Q 45.3125 60.0625 41.71875 63.234375 
Q 38.140625 66.40625 31.78125 66.40625 
Q 25.390625 66.40625 21.84375 63.234375 
Q 18.3125 60.0625 18.3125 54.390625 
z
" id="DejaVuSans-38"/>
      </defs>
      <g transform="translate(325.604801 322.182437)scale(0.1 -0.1)">
       <use xlink:href="#DejaVuSans-30"/>
       <use x="63.623047" xlink:href="#DejaVuSans-2e"/>
       <use x="95.410156" xlink:href="#DejaVuSans-38"/>
      </g>
     </g>
    </g>
    <g id="xtick_6">
     <g id="line2d_6">
      <g>
       <use style="stroke:#000000;stroke-width:0.8;" x="398.487273" xlink:href="#m2163fc4a85" y="307.584"/>
      </g>
     </g>
     <g id="text_6">
      <!-- 1.0 -->
      <defs>
       <path d="M 12.40625 8.296875 
L 28.515625 8.296875 
L 28.515625 63.921875 
L 10.984375 60.40625 
L 10.984375 69.390625 
L 28.421875 72.90625 
L 38.28125 72.90625 
L 38.28125 8.296875 
L 54.390625 8.296875 
L 54.390625 0 
L 12.40625 0 
z
" id="DejaVuSans-31"/>
      </defs>
      <g transform="translate(390.53571 322.182437)scale(0.1 -0.1)">
       <use xlink:href="#DejaVuSans-31"/>
       <use x="63.623047" xlink:href="#DejaVuSans-2e"/>
       <use x="95.410156" xlink:href="#DejaVuSans-30"/>
      </g>
     </g>
    </g>
   </g>
   <g id="matplotlib.axis_2">
    <g id="ytick_1">
     <g id="line2d_7">
      <defs>
       <path d="M 0 0 
L -3.5 0 
" id="m7d420281e4" style="stroke:#000000;stroke-width:0.8;"/>
      </defs>
      <g>
       <use style="stroke:#000000;stroke-width:0.8;" x="57.6" xlink:href="#m7d420281e4" y="295.488"/>
      </g>
     </g>
     <g id="text_7">
      <!-- 0.0 -->
      <g transform="translate(34.696875 299.287219)scale(0.1 -0.1)">
       <use xlink:href="#DejaVuSans-30"/>
       <use x="63.623047" xlink:href="#DejaVuSans-2e"/>
       <use x="95.410156" xlink:href="#DejaVuSans-30"/>
      </g>
     </g>
    </g>
    <g id="ytick_2">
     <g id="line2d_8">
      <g>
       <use style="stroke:#000000;stroke-width:0.8;" x="57.6" xlink:href="#m7d420281e4" y="247.104"/>
      </g>
     </g>
     <g id="text_8">
      <!-- 0.2 -->
      <g transform="translate(34.696875 250.903219)scale(0.1 -0.1)">
       <use xlink:href="#DejaVuSans-30"/>
       <use x="63.623047" xlink:href="#DejaVuSans-2e"/>
       <use x="95.410156" xlink:href="#DejaVuSans-32"/>
      </g>
     </g>
    </g>
    <g id="ytick_3">
     <g id="line2d_9">
      <g>
       <use style="stroke:#000000;stroke-width:0.8;" x="57.6" xlink:href="#m7d420281e4" y="198.72"/>
      </g>
     </g>
     <g id="text_9">
      <!-- 0.4 -->
      <g transform="translate(34.696875 202.519219)scale(0.1 -0.1)">
       <use xlink:href="#DejaVuSans-30"/>
       <use x="63.623047" xlink:href="#DejaVuSans-2e"/>
       <use x="95.410156" xlink:href="#DejaVuSans-34"/>
      </g>
     </g>
    </g>
    <g id="ytick_4">
     <g id="line2d_10">
      <g>
       <use style="stroke:#000000;stroke-width:0.8;" x="57.6" xlink:href="#m7d420281e4" y="150.336"/>
      </g>
     </g>
     <g id="text_10">
      <!-- 0.6 -->
      <g transform="translate(34.696875 154.135219)scale(0.1 -0.1)">
       <use xlink:href="#DejaVuSans-30"/>
       <use x="63.623047" xlink:href="#DejaVuSans-2e"/>
       <use x="95.410156" xlink:href="#DejaVuSans-36"/>
      </g>
     </g>
    </g>
    <g id="ytick_5">
     <g id="line2d_11">
      <g>
       <use style="stroke:#000000;stroke-width:0.8;" x="57.6" xlink:href="#m7d420281e4" y="101.952"/>
      </g>
     </g>
     <g id="text_11">
      <!-- 0.8 -->
      <g transform="translate(34.696875 105.751219)scale(0.1 -0.1)">
       <use xlink:href="#DejaVuSans-30"/>
       <use x="63.623047" xlink:href="#DejaVuSans-2e"/>
       <use x="95.410156" xlink:href="#DejaVuSans-38"/>
      </g>
     </g>
    </g>
    <g id="ytick_6">
     <g id="line2d_12">
      <g>
       <use style="stroke:#000000;stroke-width:0.8;" x="57.6" xlink:href="#m7d420281e4" y="53.568"/>
      </g>
     </g>
     <g id="text_12">
      <!-- 1.0 -->
      <g transform="translate(34.696875 57.367219)scale(0.1 -0.1)">
       <use xlink:href="#DejaVuSans-31"/>
       <use x="63.623047" xlink:href="#DejaVuSans-2e"/>
       <use x="95.410156" xlink:href="#DejaVuSans-30"/>
      </g>
     </g>
    </g>
   </g>
   <g id="line2d_13">
    <path clip-path="url(#pf0fdb963a5)" d="M 73.832727 295.488 
L 131.871529 79.922413 
L 398.487273 53.568 
" style="fill:none;stroke:#1f77b4;stroke-linecap:square;stroke-width:2;"/>
   </g>
   <g id="line2d_14">
    <path clip-path="url(#pf0fdb963a5)" d="M 73.832727 295.488 
L 398.487273 53.568 
" style="fill:none;stroke:#000000;stroke-dasharray:5.55,2.4;stroke-dashoffset:0;stroke-width:1.5;"/>
   </g>
   <g id="line2d_15">
    <path clip-path="url(#pf0fdb963a5)" d="M 73.832727 295.488 
L 107.386409 99.519285 
L 107.386409 95.46476 
L 110.106978 95.46476 
L 110.106978 94.789006 
L 111.920691 94.789006 
L 111.920691 93.437497 
L 114.64126 93.437497 
L 114.64126 92.085989 
L 117.361828 92.085989 
L 117.361828 91.410235 
L 118.268685 91.410235 
L 118.268685 90.73448 
L 119.175541 90.73448 
L 119.175541 86.004201 
L 121.89611 86.004201 
L 121.89611 83.301184 
L 122.802966 83.301184 
L 122.802966 81.949676 
L 123.709822 81.949676 
L 123.709822 79.922413 
L 125.523535 79.922413 
L 125.523535 79.246659 
L 127.337247 79.246659 
L 127.337247 78.570905 
L 129.15096 78.570905 
L 129.15096 77.895151 
L 140.940091 77.895151 
L 140.940091 77.219397 
L 143.66066 77.219397 
L 143.66066 76.543642 
L 150.008654 76.543642 
L 150.008654 75.867888 
L 153.636079 75.867888 
L 153.636079 75.192134 
L 161.797786 75.192134 
L 161.797786 74.51638 
L 163.611498 74.51638 
L 163.611498 73.840626 
L 167.238923 73.840626 
L 167.238923 73.164872 
L 178.121199 73.164872 
L 178.121199 70.461855 
L 183.562336 70.461855 
L 183.562336 69.110346 
L 185.376049 69.110346 
L 185.376049 68.434592 
L 187.189761 68.434592 
L 187.189761 67.758838 
L 189.003474 67.758838 
L 189.003474 65.731575 
L 205.326887 65.731575 
L 205.326887 65.055821 
L 217.116018 65.055821 
L 217.116018 64.380067 
L 218.022875 64.380067 
L 218.022875 63.704313 
L 219.836587 63.704313 
L 219.836587 63.028559 
L 220.743443 63.028559 
L 220.743443 62.352804 
L 237.066856 62.352804 
L 237.066856 61.67705 
L 259.738263 61.67705 
L 259.738263 61.001296 
L 262.458832 61.001296 
L 262.458832 60.325542 
L 274.247963 60.325542 
L 274.247963 59.649788 
L 275.15482 59.649788 
L 275.15482 58.974034 
L 276.061676 58.974034 
L 276.061676 58.298279 
L 335.007334 58.298279 
L 335.007334 57.622525 
L 344.075896 57.622525 
L 344.075896 56.946771 
L 350.42389 56.946771 
L 350.42389 56.271017 
L 353.144459 56.271017 
L 353.144459 55.595263 
L 357.67874 55.595263 
L 357.67874 54.919508 
L 367.654159 54.919508 
L 367.654159 54.243754 
L 371.281585 54.243754 
L 371.281585 53.568 
L 386.698141 53.568 
L 398.487273 53.568 
" style="fill:none;stroke:#ff7f0e;stroke-linecap:square;stroke-width:2;"/>
   </g>
   <g id="line2d_16">
    <path clip-path="url(#pf0fdb963a5)" d="M 73.832727 295.488 
L 398.487273 53.568 
" style="fill:none;stroke:#000000;stroke-dasharray:5.55,2.4;stroke-dashoffset:0;stroke-width:1.5;"/>
   </g>
   <g id="line2d_17">
    <path clip-path="url(#pf0fdb963a5)" d="M 73.832727 295.488 
L 73.832727 294.812246 
L 73.832727 231.967106 
L 74.739584 231.967106 
L 74.739584 188.718838 
L 75.64644 188.718838 
L 75.64644 176.555263 
L 76.553296 176.555263 
L 76.553296 167.094704 
L 77.460152 167.094704 
L 77.460152 153.57962 
L 78.367009 153.57962 
L 78.367009 148.849341 
L 79.273865 148.849341 
L 79.273865 144.119061 
L 80.180721 144.119061 
L 80.180721 140.740291 
L 81.087577 140.740291 
L 81.087577 126.549453 
L 81.994434 126.549453 
L 81.994434 117.764648 
L 82.90129 117.764648 
L 82.90129 110.331352 
L 83.808146 110.331352 
L 83.808146 106.952581 
L 84.715003 106.952581 
L 84.715003 98.843531 
L 85.621859 98.843531 
L 85.621859 98.167777 
L 87.435571 98.167777 
L 87.435571 92.085989 
L 88.342428 92.085989 
L 88.342428 91.410235 
L 90.15614 91.410235 
L 90.15614 89.382972 
L 91.062996 89.382972 
L 91.062996 88.031464 
L 91.969853 88.031464 
L 91.969853 86.679955 
L 95.597278 86.679955 
L 95.597278 86.004201 
L 96.504134 86.004201 
L 96.504134 85.328447 
L 97.41099 85.328447 
L 97.41099 83.301184 
L 98.317847 83.301184 
L 98.317847 82.62543 
L 100.131559 82.62543 
L 100.131559 81.949676 
L 103.758984 81.949676 
L 103.758984 79.922413 
L 105.572697 79.922413 
L 105.572697 79.246659 
L 107.386409 79.246659 
L 107.386409 78.570905 
L 108.293266 78.570905 
L 108.293266 77.219397 
L 109.200122 77.219397 
L 109.200122 76.543642 
L 110.106978 76.543642 
L 110.106978 75.867888 
L 111.013834 75.867888 
L 111.013834 73.840626 
L 112.827547 73.840626 
L 112.827547 73.164872 
L 113.734403 73.164872 
L 113.734403 71.137609 
L 116.454972 71.137609 
L 116.454972 70.461855 
L 118.268685 70.461855 
L 118.268685 68.434592 
L 125.523535 68.434592 
L 125.523535 67.758838 
L 127.337247 67.758838 
L 127.337247 67.083084 
L 129.15096 67.083084 
L 129.15096 66.40733 
L 131.871529 66.40733 
L 131.871529 65.731575 
L 132.778385 65.731575 
L 132.778385 65.055821 
L 145.474373 65.055821 
L 145.474373 64.380067 
L 156.356648 64.380067 
L 156.356648 63.704313 
L 159.077217 63.704313 
L 159.077217 63.028559 
L 169.052636 63.028559 
L 169.052636 62.352804 
L 179.028055 62.352804 
L 179.028055 61.67705 
L 188.096618 61.67705 
L 188.096618 61.001296 
L 202.606318 61.001296 
L 202.606318 60.325542 
L 222.557156 60.325542 
L 222.557156 59.649788 
L 224.370868 59.649788 
L 224.370868 58.974034 
L 242.507994 58.974034 
L 242.507994 58.298279 
L 245.228563 58.298279 
L 245.228563 57.622525 
L 264.272544 57.622525 
L 264.272544 56.946771 
L 287.850808 56.946771 
L 287.850808 55.595263 
L 305.987933 55.595263 
L 305.987933 54.919508 
L 338.634759 54.919508 
L 338.634759 54.243754 
L 398.487273 54.243754 
L 398.487273 53.568 
" style="fill:none;stroke:#2ca02c;stroke-linecap:square;stroke-width:2;"/>
   </g>
   <g id="line2d_18">
    <path clip-path="url(#pf0fdb963a5)" d="M 73.832727 295.488 
L 398.487273 53.568 
" style="fill:none;stroke:#000000;stroke-dasharray:5.55,2.4;stroke-dashoffset:0;stroke-width:1.5;"/>
   </g>
   <g id="line2d_19">
    <path clip-path="url(#pf0fdb963a5)" d="M 73.832727 295.488 
L 73.832727 289.406212 
L 73.832727 287.37895 
L 73.832727 286.027441 
L 73.832727 128.576715 
L 74.739584 128.576715 
L 74.739584 115.061631 
L 75.64644 115.061631 
L 75.64644 111.007106 
L 76.553296 111.007106 
L 76.553296 103.57381 
L 77.460152 103.57381 
L 77.460152 97.492022 
L 78.367009 97.492022 
L 78.367009 96.140514 
L 79.273865 96.140514 
L 79.273865 95.46476 
L 80.180721 95.46476 
L 80.180721 86.004201 
L 81.087577 86.004201 
L 81.087577 85.328447 
L 81.994434 85.328447 
L 81.994434 81.949676 
L 83.808146 81.949676 
L 83.808146 79.246659 
L 85.621859 79.246659 
L 85.621859 78.570905 
L 89.249284 78.570905 
L 89.249284 77.895151 
L 91.969853 77.895151 
L 91.969853 75.192134 
L 94.690422 75.192134 
L 94.690422 73.840626 
L 97.41099 73.840626 
L 97.41099 73.164872 
L 98.317847 73.164872 
L 98.317847 69.786101 
L 101.945272 69.786101 
L 101.945272 69.110346 
L 102.852128 69.110346 
L 102.852128 68.434592 
L 103.758984 68.434592 
L 103.758984 67.758838 
L 108.293266 67.758838 
L 108.293266 67.083084 
L 109.200122 67.083084 
L 109.200122 66.40733 
L 111.013834 66.40733 
L 111.013834 65.055821 
L 111.920691 65.055821 
L 111.920691 64.380067 
L 115.548116 64.380067 
L 115.548116 63.704313 
L 121.89611 63.704313 
L 121.89611 62.352804 
L 122.802966 62.352804 
L 122.802966 61.67705 
L 129.15096 61.67705 
L 129.15096 61.001296 
L 132.778385 61.001296 
L 132.778385 60.325542 
L 146.381229 60.325542 
L 146.381229 59.649788 
L 169.959492 59.649788 
L 169.959492 58.974034 
L 180.841767 58.974034 
L 180.841767 58.298279 
L 184.469192 58.298279 
L 184.469192 57.622525 
L 189.003474 57.622525 
L 189.003474 56.946771 
L 218.929731 56.946771 
L 218.929731 56.271017 
L 221.6503 56.271017 
L 221.6503 55.595263 
L 234.346287 55.595263 
L 234.346287 54.919508 
L 249.762844 54.919508 
L 249.762844 54.243754 
L 257.017694 54.243754 
L 257.017694 53.568 
L 398.487273 53.568 
" style="fill:none;stroke:#d62728;stroke-linecap:square;stroke-width:2;"/>
   </g>
   <g id="line2d_20">
    <path clip-path="url(#pf0fdb963a5)" d="M 73.832727 295.488 
L 398.487273 53.568 
" style="fill:none;stroke:#000000;stroke-dasharray:5.55,2.4;stroke-dashoffset:0;stroke-width:1.5;"/>
   </g>
   <g id="line2d_21">
    <path clip-path="url(#pf0fdb963a5)" d="M 73.832727 295.488 
L 73.832727 294.812246 
L 73.832727 184.664313 
L 73.832727 183.312804 
L 73.832727 128.576715 
L 73.832727 127.225207 
L 73.832727 119.791911 
L 74.739584 119.791911 
L 74.739584 109.655598 
L 75.64644 109.655598 
L 75.64644 95.46476 
L 76.553296 95.46476 
L 76.553296 87.355709 
L 77.460152 87.355709 
L 77.460152 86.679955 
L 78.367009 86.679955 
L 78.367009 83.976939 
L 79.273865 83.976939 
L 79.273865 79.922413 
L 80.180721 79.922413 
L 80.180721 75.192134 
L 81.994434 75.192134 
L 81.994434 74.51638 
L 84.715003 74.51638 
L 84.715003 73.164872 
L 86.528715 73.164872 
L 86.528715 72.489117 
L 88.342428 72.489117 
L 88.342428 70.461855 
L 90.15614 70.461855 
L 90.15614 68.434592 
L 91.062996 68.434592 
L 91.062996 67.758838 
L 92.876709 67.758838 
L 92.876709 66.40733 
L 93.783565 66.40733 
L 93.783565 65.731575 
L 95.597278 65.731575 
L 95.597278 64.380067 
L 96.504134 64.380067 
L 96.504134 63.028559 
L 99.224703 63.028559 
L 99.224703 62.352804 
L 100.131559 62.352804 
L 100.131559 61.67705 
L 102.852128 61.67705 
L 102.852128 61.001296 
L 103.758984 61.001296 
L 103.758984 60.325542 
L 105.572697 60.325542 
L 105.572697 59.649788 
L 109.200122 59.649788 
L 109.200122 58.974034 
L 117.361828 58.974034 
L 117.361828 58.298279 
L 123.709822 58.298279 
L 123.709822 57.622525 
L 130.057816 57.622525 
L 131.871529 57.622525 
L 142.753804 57.622525 
L 142.753804 56.946771 
L 163.611498 56.946771 
L 163.611498 56.271017 
L 177.214342 56.271017 
L 179.028055 56.271017 
L 179.934911 56.271017 
L 179.934911 55.595263 
L 183.562336 55.595263 
L 183.562336 54.919508 
L 203.513174 54.919508 
L 206.233743 54.919508 
L 252.483413 54.919508 
L 254.297125 54.919508 
L 265.179401 54.919508 
L 266.993113 54.919508 
L 269.713682 54.919508 
L 271.527395 54.919508 
L 278.782245 54.919508 
L 281.502814 54.919508 
L 338.634759 54.919508 
L 338.634759 54.243754 
L 347.703321 54.243754 
L 347.703321 53.568 
L 355.865028 53.568 
L 357.67874 53.568 
L 358.585597 53.568 
L 360.399309 53.568 
L 390.325566 53.568 
L 393.952991 53.568 
L 398.487273 53.568 
" style="fill:none;stroke:#9467bd;stroke-linecap:square;stroke-width:2;"/>
   </g>
   <g id="line2d_22">
    <path clip-path="url(#pf0fdb963a5)" d="M 73.832727 295.488 
L 398.487273 53.568 
" style="fill:none;stroke:#000000;stroke-dasharray:5.55,2.4;stroke-dashoffset:0;stroke-width:1.5;"/>
   </g>
   <g id="line2d_23">
    <path clip-path="url(#pf0fdb963a5)" d="M 73.832727 295.488 
L 76.553296 175.879508 
L 81.994434 142.767553 
L 91.062996 111.007106 
L 112.827547 80.598168 
L 175.40063 65.055821 
L 398.487273 53.568 
" style="fill:none;stroke:#8c564b;stroke-linecap:square;stroke-width:2;"/>
   </g>
   <g id="line2d_24">
    <path clip-path="url(#pf0fdb963a5)" d="M 73.832727 295.488 
L 398.487273 53.568 
" style="fill:none;stroke:#000000;stroke-dasharray:5.55,2.4;stroke-dashoffset:0;stroke-width:1.5;"/>
   </g>
   <g id="line2d_25">
    <path clip-path="url(#pf0fdb963a5)" d="M 73.832727 295.488 
L 73.832727 294.812246 
L 73.832727 147.497832 
L 74.739584 147.497832 
L 74.739584 140.064536 
L 75.64644 140.064536 
L 75.64644 123.170682 
L 76.553296 123.170682 
L 76.553296 122.494927 
L 77.460152 122.494927 
L 77.460152 91.410235 
L 78.367009 91.410235 
L 78.367009 90.73448 
L 79.273865 90.73448 
L 79.273865 81.273922 
L 80.180721 81.273922 
L 80.180721 74.51638 
L 81.087577 74.51638 
L 81.087577 73.840626 
L 81.994434 73.840626 
L 81.994434 72.489117 
L 82.90129 72.489117 
L 82.90129 69.786101 
L 85.621859 69.786101 
L 85.621859 67.758838 
L 87.435571 67.758838 
L 87.435571 64.380067 
L 91.062996 64.380067 
L 91.062996 62.352804 
L 92.876709 62.352804 
L 92.876709 61.67705 
L 93.783565 61.67705 
L 93.783565 61.001296 
L 96.504134 61.001296 
L 96.504134 60.325542 
L 112.827547 60.325542 
L 114.64126 60.325542 
L 121.89611 60.325542 
L 124.616679 60.325542 
L 128.244104 60.325542 
L 134.592098 60.325542 
L 134.592098 59.649788 
L 135.498954 59.649788 
L 135.498954 58.974034 
L 137.312666 58.974034 
L 137.312666 58.298279 
L 150.008654 58.298279 
L 150.008654 57.622525 
L 152.729223 57.622525 
L 163.611498 57.622525 
L 163.611498 56.946771 
L 186.282905 56.946771 
L 189.91033 56.946771 
L 191.724043 56.946771 
L 191.724043 56.271017 
L 205.326887 56.271017 
L 207.140599 56.271017 
L 212.581737 56.271017 
L 214.395449 56.271017 
L 223.464012 56.271017 
L 223.464012 55.595263 
L 226.184581 55.595263 
L 232.532575 55.595263 
L 266.993113 55.595263 
L 268.806826 55.595263 
L 268.806826 54.919508 
L 313.242783 54.919508 
L 315.056496 54.919508 
L 318.683921 54.919508 
L 333.193621 54.919508 
L 333.193621 54.243754 
L 334.100477 54.243754 
L 335.91419 54.243754 
L 338.634759 54.243754 
L 341.355328 54.243754 
L 364.933591 54.243754 
L 368.561016 54.243754 
L 383.070716 54.243754 
L 383.070716 53.568 
L 383.977572 53.568 
L 386.698141 53.568 
L 389.41871 53.568 
L 391.232423 53.568 
L 398.487273 53.568 
" style="fill:none;stroke:#e377c2;stroke-linecap:square;stroke-width:2;"/>
   </g>
   <g id="line2d_26">
    <path clip-path="url(#pf0fdb963a5)" d="M 73.832727 295.488 
L 398.487273 53.568 
" style="fill:none;stroke:#000000;stroke-dasharray:5.55,2.4;stroke-dashoffset:0;stroke-width:1.5;"/>
   </g>
   <g id="line2d_27">
    <path clip-path="url(#pf0fdb963a5)" d="M 73.832727 295.488 
L 73.832727 257.645765 
L 73.832727 236.697385 
L 73.832727 221.155039 
L 73.832727 208.991464 
L 73.832727 200.206659 
L 73.832727 187.36733 
L 73.832727 177.906771 
L 74.739584 169.797721 
L 74.739584 157.634145 
L 75.64644 150.876603 
L 76.553296 142.091799 
L 76.553296 136.685765 
L 76.553296 129.928223 
L 76.553296 123.846436 
L 76.553296 123.170682 
L 76.553296 115.061631 
L 76.553296 113.034369 
L 77.460152 113.034369 
L 77.460152 108.979844 
L 77.460152 108.304089 
L 77.460152 105.601073 
L 77.460152 101.546547 
L 78.367009 100.195039 
L 79.273865 97.492022 
L 79.273865 94.789006 
L 80.180721 92.761743 
L 80.180721 87.355709 
L 83.808146 84.652693 
L 83.808146 82.62543 
L 83.808146 79.922413 
L 85.621859 79.246659 
L 85.621859 75.867888 
L 86.528715 75.867888 
L 88.342428 74.51638 
L 89.249284 73.840626 
L 90.15614 73.840626 
L 91.969853 73.840626 
L 91.969853 72.489117 
L 91.969853 71.813363 
L 94.690422 71.137609 
L 96.504134 70.461855 
L 97.41099 69.786101 
L 99.224703 68.434592 
L 100.131559 68.434592 
L 101.038415 67.758838 
L 101.945272 67.758838 
L 101.945272 66.40733 
L 102.852128 66.40733 
L 103.758984 65.731575 
L 107.386409 65.055821 
L 111.013834 65.055821 
L 111.013834 64.380067 
L 113.734403 63.704313 
L 115.548116 63.704313 
L 115.548116 63.028559 
L 116.454972 63.028559 
L 121.89611 62.352804 
L 124.616679 62.352804 
L 125.523535 61.67705 
L 128.244104 61.67705 
L 129.15096 61.67705 
L 136.40581 61.67705 
L 138.219523 61.001296 
L 146.381229 61.001296 
L 148.194942 61.001296 
L 150.91551 61.001296 
L 152.729223 60.325542 
L 155.449792 58.974034 
L 157.263504 58.298279 
L 163.611498 58.298279 
L 170.866348 57.622525 
L 173.586917 57.622525 
L 176.307486 56.946771 
L 181.748624 56.271017 
L 182.65548 55.595263 
L 188.096618 55.595263 
L 192.630899 55.595263 
L 199.885749 55.595263 
L 208.954312 55.595263 
L 217.116018 55.595263 
L 222.557156 54.919508 
L 232.532575 54.919508 
L 237.973713 54.919508 
L 247.042275 54.919508 
L 254.297125 54.919508 
L 267.89997 54.243754 
L 276.061676 54.243754 
L 296.012514 54.243754 
L 307.801646 54.243754 
L 321.40449 54.243754 
L 342.262184 54.243754 
L 370.374728 53.568 
L 398.487273 53.568 
" style="fill:none;stroke:#7f7f7f;stroke-linecap:square;stroke-width:2;"/>
   </g>
   <g id="line2d_28">
    <path clip-path="url(#pf0fdb963a5)" d="M 73.832727 295.488 
L 398.487273 53.568 
" style="fill:none;stroke:#000000;stroke-dasharray:5.55,2.4;stroke-dashoffset:0;stroke-width:1.5;"/>
   </g>
   <g id="line2d_29">
    <path clip-path="url(#pf0fdb963a5)" d="M 73.832727 295.488 
L 73.832727 294.812246 
L 73.832727 211.69448 
L 74.739584 211.69448 
L 74.739584 155.606883 
L 75.64644 155.606883 
L 75.64644 140.064536 
L 76.553296 140.064536 
L 76.553296 135.334257 
L 77.460152 135.334257 
L 77.460152 128.576715 
L 78.367009 128.576715 
L 78.367009 120.467665 
L 79.273865 120.467665 
L 79.273865 102.222302 
L 80.180721 102.222302 
L 80.180721 100.870793 
L 81.087577 100.870793 
L 81.087577 100.195039 
L 82.90129 100.195039 
L 82.90129 94.789006 
L 83.808146 94.789006 
L 83.808146 92.761743 
L 84.715003 92.761743 
L 84.715003 90.058726 
L 87.435571 90.058726 
L 87.435571 85.328447 
L 88.342428 85.328447 
L 88.342428 83.976939 
L 89.249284 83.976939 
L 89.249284 81.273922 
L 90.15614 81.273922 
L 90.15614 75.867888 
L 91.062996 75.867888 
L 91.062996 75.192134 
L 98.317847 75.192134 
L 98.317847 73.840626 
L 99.224703 73.840626 
L 99.224703 71.813363 
L 103.758984 71.813363 
L 103.758984 71.137609 
L 104.665841 71.137609 
L 104.665841 70.461855 
L 105.572697 70.461855 
L 105.572697 68.434592 
L 107.386409 68.434592 
L 107.386409 65.731575 
L 110.106978 65.731575 
L 110.106978 65.055821 
L 111.013834 65.055821 
L 111.013834 63.028559 
L 116.454972 63.028559 
L 116.454972 62.352804 
L 117.361828 62.352804 
L 117.361828 61.001296 
L 125.523535 61.001296 
L 125.523535 60.325542 
L 141.846948 60.325542 
L 141.846948 59.649788 
L 149.101798 59.649788 
L 149.101798 58.974034 
L 201.699462 58.974034 
L 201.699462 58.298279 
L 211.674881 58.298279 
L 211.674881 57.622525 
L 220.743443 57.622525 
L 220.743443 56.946771 
L 240.694281 56.946771 
L 240.694281 56.271017 
L 242.507994 56.271017 
L 242.507994 55.595263 
L 287.850808 55.595263 
L 287.850808 54.919508 
L 320.497633 54.919508 
L 320.497633 54.243754 
L 325.031915 54.243754 
L 325.031915 53.568 
L 398.487273 53.568 
" style="fill:none;stroke:#bcbd22;stroke-linecap:square;stroke-width:2;"/>
   </g>
   <g id="line2d_30">
    <path clip-path="url(#pf0fdb963a5)" d="M 73.832727 295.488 
L 398.487273 53.568 
" style="fill:none;stroke:#000000;stroke-dasharray:5.55,2.4;stroke-dashoffset:0;stroke-width:1.5;"/>
   </g>
   <g id="line2d_31">
    <path clip-path="url(#pf0fdb963a5)" d="M 73.832727 295.488 
L 73.832727 269.133587 
L 73.832727 238.048894 
L 73.832727 224.53381 
L 73.832727 214.397497 
L 73.832727 205.612693 
L 73.832727 198.179397 
L 73.832727 193.449117 
L 73.832727 183.988559 
L 73.832727 175.203754 
L 73.832727 168.446212 
L 73.832727 150.876603 
L 73.832727 146.822078 
L 73.832727 139.388782 
L 73.832727 136.010011 
L 74.739584 133.982749 
L 74.739584 125.873698 
L 74.739584 120.467665 
L 74.739584 118.440402 
L 74.739584 115.061631 
L 75.64644 112.358615 
L 75.64644 111.007106 
L 75.64644 104.249564 
L 75.64644 102.898056 
L 75.64644 100.870793 
L 75.64644 100.195039 
L 75.64644 98.167777 
L 75.64644 96.816268 
L 76.553296 94.113251 
L 76.553296 92.085989 
L 76.553296 90.73448 
L 76.553296 88.031464 
L 76.553296 86.679955 
L 76.553296 84.652693 
L 77.460152 82.62543 
L 79.273865 81.273922 
L 79.273865 79.246659 
L 81.994434 77.895151 
L 82.90129 76.543642 
L 83.808146 75.867888 
L 84.715003 74.51638 
L 85.621859 72.489117 
L 88.342428 71.137609 
L 89.249284 68.434592 
L 90.15614 68.434592 
L 91.969853 67.083084 
L 92.876709 67.083084 
L 94.690422 67.083084 
L 94.690422 66.40733 
L 97.41099 66.40733 
L 98.317847 65.731575 
L 99.224703 65.731575 
L 101.038415 65.055821 
L 101.945272 65.055821 
L 104.665841 65.055821 
L 106.479553 65.055821 
L 111.920691 65.055821 
L 115.548116 65.055821 
L 117.361828 65.055821 
L 120.082397 65.055821 
L 123.709822 63.704313 
L 124.616679 63.028559 
L 127.337247 63.028559 
L 127.337247 61.67705 
L 131.871529 61.001296 
L 135.498954 61.001296 
L 138.219523 60.325542 
L 140.033235 60.325542 
L 142.753804 59.649788 
L 145.474373 59.649788 
L 149.101798 59.649788 
L 154.542936 58.974034 
L 159.984073 58.974034 
L 168.14578 58.974034 
L 171.773205 58.974034 
L 175.40063 58.298279 
L 177.214342 58.298279 
L 182.65548 58.298279 
L 189.003474 58.298279 
L 193.537755 57.622525 
L 200.792605 57.622525 
L 211.674881 57.622525 
L 226.184581 56.271017 
L 232.532575 55.595263 
L 244.321706 55.595263 
L 254.297125 54.919508 
L 260.645119 54.919508 
L 271.527395 54.919508 
L 283.316526 54.243754 
L 305.081077 54.243754 
L 325.938771 54.243754 
L 348.610178 54.243754 
L 365.840447 54.243754 
L 398.487273 53.568 
" style="fill:none;stroke:#17becf;stroke-linecap:square;stroke-width:2;"/>
   </g>
   <g id="line2d_32">
    <path clip-path="url(#pf0fdb963a5)" d="M 73.832727 295.488 
L 398.487273 53.568 
" style="fill:none;stroke:#000000;stroke-dasharray:5.55,2.4;stroke-dashoffset:0;stroke-width:1.5;"/>
   </g>
   <g id="line2d_33">
    <path clip-path="url(#pf0fdb963a5)" d="M 73.832727 295.488 
L 88.342428 108.304089 
L 88.342428 101.546547 
L 89.249284 101.546547 
L 89.249284 98.167777 
L 90.15614 98.167777 
L 90.15614 97.492022 
L 94.690422 97.492022 
L 94.690422 95.46476 
L 95.597278 95.46476 
L 95.597278 94.113251 
L 96.504134 94.113251 
L 96.504134 90.73448 
L 101.038415 90.73448 
L 101.038415 90.058726 
L 101.945272 90.058726 
L 101.945272 86.679955 
L 103.758984 86.679955 
L 103.758984 86.004201 
L 109.200122 86.004201 
L 109.200122 83.976939 
L 110.106978 83.976939 
L 110.106978 83.301184 
L 111.920691 83.301184 
L 111.920691 81.273922 
L 113.734403 81.273922 
L 113.734403 80.598168 
L 115.548116 80.598168 
L 115.548116 79.922413 
L 119.175541 79.922413 
L 119.175541 79.246659 
L 120.989253 79.246659 
L 120.989253 77.895151 
L 125.523535 77.895151 
L 125.523535 77.219397 
L 126.430391 77.219397 
L 126.430391 76.543642 
L 129.15096 76.543642 
L 129.15096 75.867888 
L 143.66066 75.867888 
L 143.66066 75.192134 
L 159.984073 75.192134 
L 159.984073 74.51638 
L 168.14578 74.51638 
L 168.14578 73.840626 
L 174.493773 73.840626 
L 174.493773 73.164872 
L 187.189761 73.164872 
L 187.189761 72.489117 
L 189.003474 72.489117 
L 189.003474 71.813363 
L 192.630899 71.813363 
L 192.630899 71.137609 
L 205.326887 71.137609 
L 205.326887 70.461855 
L 209.861168 70.461855 
L 209.861168 69.786101 
L 213.488593 69.786101 
L 213.488593 69.110346 
L 216.209162 69.110346 
L 216.209162 68.434592 
L 223.464012 68.434592 
L 223.464012 67.083084 
L 226.184581 67.083084 
L 226.184581 66.40733 
L 231.625719 66.40733 
L 231.625719 65.731575 
L 238.880569 65.731575 
L 238.880569 65.055821 
L 240.694281 65.055821 
L 240.694281 63.704313 
L 241.601138 63.704313 
L 241.601138 63.028559 
L 268.806826 63.028559 
L 268.806826 62.352804 
L 271.527395 62.352804 
L 271.527395 61.67705 
L 273.341107 61.67705 
L 273.341107 61.001296 
L 278.782245 61.001296 
L 278.782245 60.325542 
L 300.546795 60.325542 
L 300.546795 58.974034 
L 324.125058 58.974034 
L 324.125058 58.298279 
L 326.845627 58.298279 
L 326.845627 57.622525 
L 334.100477 57.622525 
L 334.100477 56.271017 
L 344.982753 56.271017 
L 344.982753 55.595263 
L 353.144459 55.595263 
L 353.144459 54.919508 
L 364.933591 54.919508 
L 364.933591 54.243754 
L 375.815866 54.243754 
L 375.815866 53.568 
L 387.604997 53.568 
L 398.487273 53.568 
" style="fill:none;stroke:#1f77b4;stroke-linecap:square;stroke-width:2;"/>
   </g>
   <g id="line2d_34">
    <path clip-path="url(#pf0fdb963a5)" d="M 73.832727 295.488 
L 398.487273 53.568 
" style="fill:none;stroke:#000000;stroke-dasharray:5.55,2.4;stroke-dashoffset:0;stroke-width:1.5;"/>
   </g>
   <g id="patch_3">
    <path d="M 57.6 307.584 
L 57.6 41.472 
" style="fill:none;stroke:#000000;stroke-linecap:square;stroke-linejoin:miter;stroke-width:0.8;"/>
   </g>
   <g id="patch_4">
    <path d="M 414.72 307.584 
L 414.72 41.472 
" style="fill:none;stroke:#000000;stroke-linecap:square;stroke-linejoin:miter;stroke-width:0.8;"/>
   </g>
   <g id="patch_5">
    <path d="M 57.6 307.584 
L 414.72 307.584 
" style="fill:none;stroke:#000000;stroke-linecap:square;stroke-linejoin:miter;stroke-width:0.8;"/>
   </g>
   <g id="patch_6">
    <path d="M 57.6 41.472 
L 414.72 41.472 
" style="fill:none;stroke:#000000;stroke-linecap:square;stroke-linejoin:miter;stroke-width:0.8;"/>
   </g>
   <g id="text_13">
    <!-- ROC -->
    <defs>
     <path d="M 44.390625 34.1875 
Q 47.5625 33.109375 50.5625 29.59375 
Q 53.5625 26.078125 56.59375 19.921875 
L 66.609375 0 
L 56 0 
L 46.6875 18.703125 
Q 43.0625 26.03125 39.671875 28.421875 
Q 36.28125 30.8125 30.421875 30.8125 
L 19.671875 30.8125 
L 19.671875 0 
L 9.8125 0 
L 9.8125 72.90625 
L 32.078125 72.90625 
Q 44.578125 72.90625 50.734375 67.671875 
Q 56.890625 62.453125 56.890625 51.90625 
Q 56.890625 45.015625 53.6875 40.46875 
Q 50.484375 35.9375 44.390625 34.1875 
z
M 19.671875 64.796875 
L 19.671875 38.921875 
L 32.078125 38.921875 
Q 39.203125 38.921875 42.84375 42.21875 
Q 46.484375 45.515625 46.484375 51.90625 
Q 46.484375 58.296875 42.84375 61.546875 
Q 39.203125 64.796875 32.078125 64.796875 
z
" id="DejaVuSans-52"/>
     <path d="M 39.40625 66.21875 
Q 28.65625 66.21875 22.328125 58.203125 
Q 16.015625 50.203125 16.015625 36.375 
Q 16.015625 22.609375 22.328125 14.59375 
Q 28.65625 6.59375 39.40625 6.59375 
Q 50.140625 6.59375 56.421875 14.59375 
Q 62.703125 22.609375 62.703125 36.375 
Q 62.703125 50.203125 56.421875 58.203125 
Q 50.140625 66.21875 39.40625 66.21875 
z
M 39.40625 74.21875 
Q 54.734375 74.21875 63.90625 63.9375 
Q 73.09375 53.65625 73.09375 36.375 
Q 73.09375 19.140625 63.90625 8.859375 
Q 54.734375 -1.421875 39.40625 -1.421875 
Q 24.03125 -1.421875 14.8125 8.828125 
Q 5.609375 19.09375 5.609375 36.375 
Q 5.609375 53.65625 14.8125 63.9375 
Q 24.03125 74.21875 39.40625 74.21875 
z
" id="DejaVuSans-4f"/>
     <path d="M 64.40625 67.28125 
L 64.40625 56.890625 
Q 59.421875 61.53125 53.78125 63.8125 
Q 48.140625 66.109375 41.796875 66.109375 
Q 29.296875 66.109375 22.65625 58.46875 
Q 16.015625 50.828125 16.015625 36.375 
Q 16.015625 21.96875 22.65625 14.328125 
Q 29.296875 6.6875 41.796875 6.6875 
Q 48.140625 6.6875 53.78125 8.984375 
Q 59.421875 11.28125 64.40625 15.921875 
L 64.40625 5.609375 
Q 59.234375 2.09375 53.4375 0.328125 
Q 47.65625 -1.421875 41.21875 -1.421875 
Q 24.65625 -1.421875 15.125 8.703125 
Q 5.609375 18.84375 5.609375 36.375 
Q 5.609375 53.953125 15.125 64.078125 
Q 24.65625 74.21875 41.21875 74.21875 
Q 47.75 74.21875 53.53125 72.484375 
Q 59.328125 70.75 64.40625 67.28125 
z
" id="DejaVuSans-43"/>
    </defs>
    <g transform="translate(223.078125 35.472)scale(0.12 -0.12)">
     <use xlink:href="#DejaVuSans-52"/>
     <use x="69.482422" xlink:href="#DejaVuSans-4f"/>
     <use x="148.193359" xlink:href="#DejaVuSans-43"/>
    </g>
   </g>
   <g id="legend_1">
    <g id="patch_7">
     <path d="M 348.85125 302.584 
L 407.72 302.584 
Q 409.72 302.584 409.72 300.584 
L 409.72 140.124625 
Q 409.72 138.124625 407.72 138.124625 
L 348.85125 138.124625 
Q 346.85125 138.124625 346.85125 140.124625 
L 346.85125 300.584 
Q 346.85125 302.584 348.85125 302.584 
z
" style="fill:#ffffff;opacity:0.8;stroke:#cccccc;stroke-linejoin:miter;"/>
    </g>
    <g id="line2d_35">
     <path d="M 350.85125 146.223062 
L 370.85125 146.223062 
" style="fill:none;stroke:#1f77b4;stroke-linecap:square;stroke-width:2;"/>
    </g>
    <g id="line2d_36"/>
    <g id="text_14">
     <!-- CART -->
     <defs>
      <path d="M 34.1875 63.1875 
L 20.796875 26.90625 
L 47.609375 26.90625 
z
M 28.609375 72.90625 
L 39.796875 72.90625 
L 67.578125 0 
L 57.328125 0 
L 50.6875 18.703125 
L 17.828125 18.703125 
L 11.1875 0 
L 0.78125 0 
z
" id="DejaVuSans-41"/>
      <path d="M -0.296875 72.90625 
L 61.375 72.90625 
L 61.375 64.59375 
L 35.5 64.59375 
L 35.5 0 
L 25.59375 0 
L 25.59375 64.59375 
L -0.296875 64.59375 
z
" id="DejaVuSans-54"/>
     </defs>
     <g transform="translate(378.85125 149.723062)scale(0.1 -0.1)">
      <use xlink:href="#DejaVuSans-43"/>
      <use x="69.824219" xlink:href="#DejaVuSans-41"/>
      <use x="138.232422" xlink:href="#DejaVuSans-52"/>
      <use x="207.605469" xlink:href="#DejaVuSans-54"/>
     </g>
    </g>
    <g id="line2d_37">
     <path d="M 350.85125 160.901188 
L 370.85125 160.901188 
" style="fill:none;stroke:#ff7f0e;stroke-linecap:square;stroke-width:2;"/>
    </g>
    <g id="line2d_38"/>
    <g id="text_15">
     <!-- QDA -->
     <defs>
      <path d="M 39.40625 66.21875 
Q 28.65625 66.21875 22.328125 58.203125 
Q 16.015625 50.203125 16.015625 36.375 
Q 16.015625 22.609375 22.328125 14.59375 
Q 28.65625 6.59375 39.40625 6.59375 
Q 50.140625 6.59375 56.421875 14.59375 
Q 62.703125 22.609375 62.703125 36.375 
Q 62.703125 50.203125 56.421875 58.203125 
Q 50.140625 66.21875 39.40625 66.21875 
z
M 53.21875 1.3125 
L 66.21875 -12.890625 
L 54.296875 -12.890625 
L 43.5 -1.21875 
Q 41.890625 -1.3125 41.03125 -1.359375 
Q 40.1875 -1.421875 39.40625 -1.421875 
Q 24.03125 -1.421875 14.8125 8.859375 
Q 5.609375 19.140625 5.609375 36.375 
Q 5.609375 53.65625 14.8125 63.9375 
Q 24.03125 74.21875 39.40625 74.21875 
Q 54.734375 74.21875 63.90625 63.9375 
Q 73.09375 53.65625 73.09375 36.375 
Q 73.09375 23.6875 67.984375 14.640625 
Q 62.890625 5.609375 53.21875 1.3125 
z
" id="DejaVuSans-51"/>
      <path d="M 19.671875 64.796875 
L 19.671875 8.109375 
L 31.59375 8.109375 
Q 46.6875 8.109375 53.6875 14.9375 
Q 60.6875 21.78125 60.6875 36.53125 
Q 60.6875 51.171875 53.6875 57.984375 
Q 46.6875 64.796875 31.59375 64.796875 
z
M 9.8125 72.90625 
L 30.078125 72.90625 
Q 51.265625 72.90625 61.171875 64.09375 
Q 71.09375 55.28125 71.09375 36.53125 
Q 71.09375 17.671875 61.125 8.828125 
Q 51.171875 0 30.078125 0 
L 9.8125 0 
z
" id="DejaVuSans-44"/>
     </defs>
     <g transform="translate(378.85125 164.401188)scale(0.1 -0.1)">
      <use xlink:href="#DejaVuSans-51"/>
      <use x="78.710938" xlink:href="#DejaVuSans-44"/>
      <use x="155.697266" xlink:href="#DejaVuSans-41"/>
     </g>
    </g>
    <g id="line2d_39">
     <path d="M 350.85125 175.579313 
L 370.85125 175.579313 
" style="fill:none;stroke:#2ca02c;stroke-linecap:square;stroke-width:2;"/>
    </g>
    <g id="line2d_40"/>
    <g id="text_16">
     <!-- LDA -->
     <defs>
      <path d="M 9.8125 72.90625 
L 19.671875 72.90625 
L 19.671875 8.296875 
L 55.171875 8.296875 
L 55.171875 0 
L 9.8125 0 
z
" id="DejaVuSans-4c"/>
     </defs>
     <g transform="translate(378.85125 179.079313)scale(0.1 -0.1)">
      <use xlink:href="#DejaVuSans-4c"/>
      <use x="55.712891" xlink:href="#DejaVuSans-44"/>
      <use x="132.699219" xlink:href="#DejaVuSans-41"/>
     </g>
    </g>
    <g id="line2d_41">
     <path d="M 350.85125 190.257438 
L 370.85125 190.257438 
" style="fill:none;stroke:#d62728;stroke-linecap:square;stroke-width:2;"/>
    </g>
    <g id="line2d_42"/>
    <g id="text_17">
     <!-- LR -->
     <g transform="translate(378.85125 193.757438)scale(0.1 -0.1)">
      <use xlink:href="#DejaVuSans-4c"/>
      <use x="55.712891" xlink:href="#DejaVuSans-52"/>
     </g>
    </g>
    <g id="line2d_43">
     <path d="M 350.85125 204.935563 
L 370.85125 204.935563 
" style="fill:none;stroke:#9467bd;stroke-linecap:square;stroke-width:2;"/>
    </g>
    <g id="line2d_44"/>
    <g id="text_18">
     <!-- GBM -->
     <defs>
      <path d="M 59.515625 10.40625 
L 59.515625 29.984375 
L 43.40625 29.984375 
L 43.40625 38.09375 
L 69.28125 38.09375 
L 69.28125 6.78125 
Q 63.578125 2.734375 56.6875 0.65625 
Q 49.8125 -1.421875 42 -1.421875 
Q 24.90625 -1.421875 15.25 8.5625 
Q 5.609375 18.5625 5.609375 36.375 
Q 5.609375 54.25 15.25 64.234375 
Q 24.90625 74.21875 42 74.21875 
Q 49.125 74.21875 55.546875 72.453125 
Q 61.96875 70.703125 67.390625 67.28125 
L 67.390625 56.78125 
Q 61.921875 61.421875 55.765625 63.765625 
Q 49.609375 66.109375 42.828125 66.109375 
Q 29.4375 66.109375 22.71875 58.640625 
Q 16.015625 51.171875 16.015625 36.375 
Q 16.015625 21.625 22.71875 14.15625 
Q 29.4375 6.6875 42.828125 6.6875 
Q 48.046875 6.6875 52.140625 7.59375 
Q 56.25 8.5 59.515625 10.40625 
z
" id="DejaVuSans-47"/>
      <path d="M 19.671875 34.8125 
L 19.671875 8.109375 
L 35.5 8.109375 
Q 43.453125 8.109375 47.28125 11.40625 
Q 51.125 14.703125 51.125 21.484375 
Q 51.125 28.328125 47.28125 31.5625 
Q 43.453125 34.8125 35.5 34.8125 
z
M 19.671875 64.796875 
L 19.671875 42.828125 
L 34.28125 42.828125 
Q 41.5 42.828125 45.03125 45.53125 
Q 48.578125 48.25 48.578125 53.8125 
Q 48.578125 59.328125 45.03125 62.0625 
Q 41.5 64.796875 34.28125 64.796875 
z
M 9.8125 72.90625 
L 35.015625 72.90625 
Q 46.296875 72.90625 52.390625 68.21875 
Q 58.5 63.53125 58.5 54.890625 
Q 58.5 48.1875 55.375 44.234375 
Q 52.25 40.28125 46.1875 39.3125 
Q 53.46875 37.75 57.5 32.78125 
Q 61.53125 27.828125 61.53125 20.40625 
Q 61.53125 10.640625 54.890625 5.3125 
Q 48.25 0 35.984375 0 
L 9.8125 0 
z
" id="DejaVuSans-42"/>
      <path d="M 9.8125 72.90625 
L 24.515625 72.90625 
L 43.109375 23.296875 
L 61.8125 72.90625 
L 76.515625 72.90625 
L 76.515625 0 
L 66.890625 0 
L 66.890625 64.015625 
L 48.09375 14.015625 
L 38.1875 14.015625 
L 19.390625 64.015625 
L 19.390625 0 
L 9.8125 0 
z
" id="DejaVuSans-4d"/>
     </defs>
     <g transform="translate(378.85125 208.435563)scale(0.1 -0.1)">
      <use xlink:href="#DejaVuSans-47"/>
      <use x="77.490234" xlink:href="#DejaVuSans-42"/>
      <use x="146.09375" xlink:href="#DejaVuSans-4d"/>
     </g>
    </g>
    <g id="line2d_45">
     <path d="M 350.85125 219.613688 
L 370.85125 219.613688 
" style="fill:none;stroke:#8c564b;stroke-linecap:square;stroke-width:2;"/>
    </g>
    <g id="line2d_46"/>
    <g id="text_19">
     <!-- KNN -->
     <defs>
      <path d="M 9.8125 72.90625 
L 19.671875 72.90625 
L 19.671875 42.09375 
L 52.390625 72.90625 
L 65.09375 72.90625 
L 28.90625 38.921875 
L 67.671875 0 
L 54.6875 0 
L 19.671875 35.109375 
L 19.671875 0 
L 9.8125 0 
z
" id="DejaVuSans-4b"/>
      <path d="M 9.8125 72.90625 
L 23.09375 72.90625 
L 55.421875 11.921875 
L 55.421875 72.90625 
L 64.984375 72.90625 
L 64.984375 0 
L 51.703125 0 
L 19.390625 60.984375 
L 19.390625 0 
L 9.8125 0 
z
" id="DejaVuSans-4e"/>
     </defs>
     <g transform="translate(378.85125 223.113688)scale(0.1 -0.1)">
      <use xlink:href="#DejaVuSans-4b"/>
      <use x="65.576172" xlink:href="#DejaVuSans-4e"/>
      <use x="140.380859" xlink:href="#DejaVuSans-4e"/>
     </g>
    </g>
    <g id="line2d_47">
     <path d="M 350.85125 234.291812 
L 370.85125 234.291812 
" style="fill:none;stroke:#e377c2;stroke-linecap:square;stroke-width:2;"/>
    </g>
    <g id="line2d_48"/>
    <g id="text_20">
     <!-- AB -->
     <g transform="translate(378.85125 237.791812)scale(0.1 -0.1)">
      <use xlink:href="#DejaVuSans-41"/>
      <use x="68.408203" xlink:href="#DejaVuSans-42"/>
     </g>
    </g>
    <g id="line2d_49">
     <path d="M 350.85125 248.969938 
L 370.85125 248.969938 
" style="fill:none;stroke:#7f7f7f;stroke-linecap:square;stroke-width:2;"/>
    </g>
    <g id="line2d_50"/>
    <g id="text_21">
     <!-- RF -->
     <defs>
      <path d="M 9.8125 72.90625 
L 51.703125 72.90625 
L 51.703125 64.59375 
L 19.671875 64.59375 
L 19.671875 43.109375 
L 48.578125 43.109375 
L 48.578125 34.8125 
L 19.671875 34.8125 
L 19.671875 0 
L 9.8125 0 
z
" id="DejaVuSans-46"/>
     </defs>
     <g transform="translate(378.85125 252.469938)scale(0.1 -0.1)">
      <use xlink:href="#DejaVuSans-52"/>
      <use x="69.482422" xlink:href="#DejaVuSans-46"/>
     </g>
    </g>
    <g id="line2d_51">
     <path d="M 350.85125 263.648062 
L 370.85125 263.648062 
" style="fill:none;stroke:#bcbd22;stroke-linecap:square;stroke-width:2;"/>
    </g>
    <g id="line2d_52"/>
    <g id="text_22">
     <!-- SVM -->
     <defs>
      <path d="M 53.515625 70.515625 
L 53.515625 60.890625 
Q 47.90625 63.578125 42.921875 64.890625 
Q 37.9375 66.21875 33.296875 66.21875 
Q 25.25 66.21875 20.875 63.09375 
Q 16.5 59.96875 16.5 54.203125 
Q 16.5 49.359375 19.40625 46.890625 
Q 22.3125 44.4375 30.421875 42.921875 
L 36.375 41.703125 
Q 47.40625 39.59375 52.65625 34.296875 
Q 57.90625 29 57.90625 20.125 
Q 57.90625 9.515625 50.796875 4.046875 
Q 43.703125 -1.421875 29.984375 -1.421875 
Q 24.8125 -1.421875 18.96875 -0.25 
Q 13.140625 0.921875 6.890625 3.21875 
L 6.890625 13.375 
Q 12.890625 10.015625 18.65625 8.296875 
Q 24.421875 6.59375 29.984375 6.59375 
Q 38.421875 6.59375 43.015625 9.90625 
Q 47.609375 13.234375 47.609375 19.390625 
Q 47.609375 24.75 44.3125 27.78125 
Q 41.015625 30.8125 33.5 32.328125 
L 27.484375 33.5 
Q 16.453125 35.6875 11.515625 40.375 
Q 6.59375 45.0625 6.59375 53.421875 
Q 6.59375 63.09375 13.40625 68.65625 
Q 20.21875 74.21875 32.171875 74.21875 
Q 37.3125 74.21875 42.625 73.28125 
Q 47.953125 72.359375 53.515625 70.515625 
z
" id="DejaVuSans-53"/>
      <path d="M 28.609375 0 
L 0.78125 72.90625 
L 11.078125 72.90625 
L 34.1875 11.53125 
L 57.328125 72.90625 
L 67.578125 72.90625 
L 39.796875 0 
z
" id="DejaVuSans-56"/>
     </defs>
     <g transform="translate(378.85125 267.148062)scale(0.1 -0.1)">
      <use xlink:href="#DejaVuSans-53"/>
      <use x="63.476562" xlink:href="#DejaVuSans-56"/>
      <use x="131.884766" xlink:href="#DejaVuSans-4d"/>
     </g>
    </g>
    <g id="line2d_53">
     <path d="M 350.85125 278.326187 
L 370.85125 278.326187 
" style="fill:none;stroke:#17becf;stroke-linecap:square;stroke-width:2;"/>
    </g>
    <g id="line2d_54"/>
    <g id="text_23">
     <!-- ET -->
     <defs>
      <path d="M 9.8125 72.90625 
L 55.90625 72.90625 
L 55.90625 64.59375 
L 19.671875 64.59375 
L 19.671875 43.015625 
L 54.390625 43.015625 
L 54.390625 34.71875 
L 19.671875 34.71875 
L 19.671875 8.296875 
L 56.78125 8.296875 
L 56.78125 0 
L 9.8125 0 
z
" id="DejaVuSans-45"/>
     </defs>
     <g transform="translate(378.85125 281.826187)scale(0.1 -0.1)">
      <use xlink:href="#DejaVuSans-45"/>
      <use x="63.183594" xlink:href="#DejaVuSans-54"/>
     </g>
    </g>
    <g id="line2d_55">
     <path d="M 350.85125 293.004312 
L 370.85125 293.004312 
" style="fill:none;stroke:#1f77b4;stroke-linecap:square;stroke-width:2;"/>
    </g>
    <g id="line2d_56"/>
    <g id="text_24">
     <!-- NB -->
     <g transform="translate(378.85125 296.504312)scale(0.1 -0.1)">
      <use xlink:href="#DejaVuSans-4e"/>
      <use x="74.804688" xlink:href="#DejaVuSans-42"/>
     </g>
    </g>
   </g>
  </g>
 </g>
 <defs>
  <clipPath id="pf0fdb963a5">
   <rect height="266.112" width="357.12" x="57.6" y="41.472"/>
  </clipPath>
 </defs>
</svg>
