<?xml version="1.0" encoding="utf-8" standalone="no"?>
<!DOCTYPE svg PUBLIC "-//W3C//DTD SVG 1.1//EN"
  "http://www.w3.org/Graphics/SVG/1.1/DTD/svg11.dtd">
<!-- Created with matplotlib (http://matplotlib.org/) -->
<svg height="345.6pt" version="1.1" viewBox="0 0 460.8 345.6" width="460.8pt" xmlns="http://www.w3.org/2000/svg" xmlns:xlink="http://www.w3.org/1999/xlink">
 <defs>
  <style type="text/css">
*{stroke-linecap:butt;stroke-linejoin:round;}
  </style>
 </defs>
 <g id="figure_1">
  <g id="patch_1">
   <path d="M 0 345.6 
L 460.8 345.6 
L 460.8 0 
L 0 0 
z
" style="fill:#ffffff;"/>
  </g>
  <g id="axes_1">
   <g id="patch_2">
    <path d="M 57.6 307.584 
L 414.72 307.584 
L 414.72 41.472 
L 57.6 41.472 
z
" style="fill:#ffffff;"/>
   </g>
   <g id="matplotlib.axis_1">
    <g id="xtick_1">
     <g id="line2d_1">
      <defs>
       <path d="M 0 0 
L 0 3.5 
" id="ma7fcc5dc3a" style="stroke:#000000;stroke-width:0.8;"/>
      </defs>
      <g>
       <use style="stroke:#000000;stroke-width:0.8;" x="73.832727" xlink:href="#ma7fcc5dc3a" y="307.584"/>
      </g>
     </g>
     <g id="text_1">
      <!-- 0.0 -->
      <defs>
       <path d="M 31.78125 66.40625 
Q 24.171875 66.40625 20.328125 58.90625 
Q 16.5 51.421875 16.5 36.375 
Q 16.5 21.390625 20.328125 13.890625 
Q 24.171875 6.390625 31.78125 6.390625 
Q 39.453125 6.390625 43.28125 13.890625 
Q 47.125 21.390625 47.125 36.375 
Q 47.125 51.421875 43.28125 58.90625 
Q 39.453125 66.40625 31.78125 66.40625 
z
M 31.78125 74.21875 
Q 44.046875 74.21875 50.515625 64.515625 
Q 56.984375 54.828125 56.984375 36.375 
Q 56.984375 17.96875 50.515625 8.265625 
Q 44.046875 -1.421875 31.78125 -1.421875 
Q 19.53125 -1.421875 13.0625 8.265625 
Q 6.59375 17.96875 6.59375 36.375 
Q 6.59375 54.828125 13.0625 64.515625 
Q 19.53125 74.21875 31.78125 74.21875 
z
" id="DejaVuSans-30"/>
       <path d="M 10.6875 12.40625 
L 21 12.40625 
L 21 0 
L 10.6875 0 
z
" id="DejaVuSans-2e"/>
      </defs>
      <g transform="translate(65.881165 322.182437)scale(0.1 -0.1)">
       <use xlink:href="#DejaVuSans-30"/>
       <use x="63.623047" xlink:href="#DejaVuSans-2e"/>
       <use x="95.410156" xlink:href="#DejaVuSans-30"/>
      </g>
     </g>
    </g>
    <g id="xtick_2">
     <g id="line2d_2">
      <g>
       <use style="stroke:#000000;stroke-width:0.8;" x="138.763636" xlink:href="#ma7fcc5dc3a" y="307.584"/>
      </g>
     </g>
     <g id="text_2">
      <!-- 0.2 -->
      <defs>
       <path d="M 19.1875 8.296875 
L 53.609375 8.296875 
L 53.609375 0 
L 7.328125 0 
L 7.328125 8.296875 
Q 12.9375 14.109375 22.625 23.890625 
Q 32.328125 33.6875 34.8125 36.53125 
Q 39.546875 41.84375 41.421875 45.53125 
Q 43.3125 49.21875 43.3125 52.78125 
Q 43.3125 58.59375 39.234375 62.25 
Q 35.15625 65.921875 28.609375 65.921875 
Q 23.96875 65.921875 18.8125 64.3125 
Q 13.671875 62.703125 7.8125 59.421875 
L 7.8125 69.390625 
Q 13.765625 71.78125 18.9375 73 
Q 24.125 74.21875 28.421875 74.21875 
Q 39.75 74.21875 46.484375 68.546875 
Q 53.21875 62.890625 53.21875 53.421875 
Q 53.21875 48.921875 51.53125 44.890625 
Q 49.859375 40.875 45.40625 35.40625 
Q 44.1875 33.984375 37.640625 27.21875 
Q 31.109375 20.453125 19.1875 8.296875 
z
" id="DejaVuSans-32"/>
      </defs>
      <g transform="translate(130.812074 322.182437)scale(0.1 -0.1)">
       <use xlink:href="#DejaVuSans-30"/>
       <use x="63.623047" xlink:href="#DejaVuSans-2e"/>
       <use x="95.410156" xlink:href="#DejaVuSans-32"/>
      </g>
     </g>
    </g>
    <g id="xtick_3">
     <g id="line2d_3">
      <g>
       <use style="stroke:#000000;stroke-width:0.8;" x="203.694545" xlink:href="#ma7fcc5dc3a" y="307.584"/>
      </g>
     </g>
     <g id="text_3">
      <!-- 0.4 -->
      <defs>
       <path d="M 37.796875 64.3125 
L 12.890625 25.390625 
L 37.796875 25.390625 
z
M 35.203125 72.90625 
L 47.609375 72.90625 
L 47.609375 25.390625 
L 58.015625 25.390625 
L 58.015625 17.1875 
L 47.609375 17.1875 
L 47.609375 0 
L 37.796875 0 
L 37.796875 17.1875 
L 4.890625 17.1875 
L 4.890625 26.703125 
z
" id="DejaVuSans-34"/>
      </defs>
      <g transform="translate(195.742983 322.182437)scale(0.1 -0.1)">
       <use xlink:href="#DejaVuSans-30"/>
       <use x="63.623047" xlink:href="#DejaVuSans-2e"/>
       <use x="95.410156" xlink:href="#DejaVuSans-34"/>
      </g>
     </g>
    </g>
    <g id="xtick_4">
     <g id="line2d_4">
      <g>
       <use style="stroke:#000000;stroke-width:0.8;" x="268.625455" xlink:href="#ma7fcc5dc3a" y="307.584"/>
      </g>
     </g>
     <g id="text_4">
      <!-- 0.6 -->
      <defs>
       <path d="M 33.015625 40.375 
Q 26.375 40.375 22.484375 35.828125 
Q 18.609375 31.296875 18.609375 23.390625 
Q 18.609375 15.53125 22.484375 10.953125 
Q 26.375 6.390625 33.015625 6.390625 
Q 39.65625 6.390625 43.53125 10.953125 
Q 47.40625 15.53125 47.40625 23.390625 
Q 47.40625 31.296875 43.53125 35.828125 
Q 39.65625 40.375 33.015625 40.375 
z
M 52.59375 71.296875 
L 52.59375 62.3125 
Q 48.875 64.0625 45.09375 64.984375 
Q 41.3125 65.921875 37.59375 65.921875 
Q 27.828125 65.921875 22.671875 59.328125 
Q 17.53125 52.734375 16.796875 39.40625 
Q 19.671875 43.65625 24.015625 45.921875 
Q 28.375 48.1875 33.59375 48.1875 
Q 44.578125 48.1875 50.953125 41.515625 
Q 57.328125 34.859375 57.328125 23.390625 
Q 57.328125 12.15625 50.6875 5.359375 
Q 44.046875 -1.421875 33.015625 -1.421875 
Q 20.359375 -1.421875 13.671875 8.265625 
Q 6.984375 17.96875 6.984375 36.375 
Q 6.984375 53.65625 15.1875 63.9375 
Q 23.390625 74.21875 37.203125 74.21875 
Q 40.921875 74.21875 44.703125 73.484375 
Q 48.484375 72.75 52.59375 71.296875 
z
" id="DejaVuSans-36"/>
      </defs>
      <g transform="translate(260.673892 322.182437)scale(0.1 -0.1)">
       <use xlink:href="#DejaVuSans-30"/>
       <use x="63.623047" xlink:href="#DejaVuSans-2e"/>
       <use x="95.410156" xlink:href="#DejaVuSans-36"/>
      </g>
     </g>
    </g>
    <g id="xtick_5">
     <g id="line2d_5">
      <g>
       <use style="stroke:#000000;stroke-width:0.8;" x="333.556364" xlink:href="#ma7fcc5dc3a" y="307.584"/>
      </g>
     </g>
     <g id="text_5">
      <!-- 0.8 -->
      <defs>
       <path d="M 31.78125 34.625 
Q 24.75 34.625 20.71875 30.859375 
Q 16.703125 27.09375 16.703125 20.515625 
Q 16.703125 13.921875 20.71875 10.15625 
Q 24.75 6.390625 31.78125 6.390625 
Q 38.8125 6.390625 42.859375 10.171875 
Q 46.921875 13.96875 46.921875 20.515625 
Q 46.921875 27.09375 42.890625 30.859375 
Q 38.875 34.625 31.78125 34.625 
z
M 21.921875 38.8125 
Q 15.578125 40.375 12.03125 44.71875 
Q 8.5 49.078125 8.5 55.328125 
Q 8.5 64.0625 14.71875 69.140625 
Q 20.953125 74.21875 31.78125 74.21875 
Q 42.671875 74.21875 48.875 69.140625 
Q 55.078125 64.0625 55.078125 55.328125 
Q 55.078125 49.078125 51.53125 44.71875 
Q 48 40.375 41.703125 38.8125 
Q 48.828125 37.15625 52.796875 32.3125 
Q 56.78125 27.484375 56.78125 20.515625 
Q 56.78125 9.90625 50.3125 4.234375 
Q 43.84375 -1.421875 31.78125 -1.421875 
Q 19.734375 -1.421875 13.25 4.234375 
Q 6.78125 9.90625 6.78125 20.515625 
Q 6.78125 27.484375 10.78125 32.3125 
Q 14.796875 37.15625 21.921875 38.8125 
z
M 18.3125 54.390625 
Q 18.3125 48.734375 21.84375 45.5625 
Q 25.390625 42.390625 31.78125 42.390625 
Q 38.140625 42.390625 41.71875 45.5625 
Q 45.3125 48.734375 45.3125 54.390625 
Q 45.3125 60.0625 41.71875 63.234375 
Q 38.140625 66.40625 31.78125 66.40625 
Q 25.390625 66.40625 21.84375 63.234375 
Q 18.3125 60.0625 18.3125 54.390625 
z
" id="DejaVuSans-38"/>
      </defs>
      <g transform="translate(325.604801 322.182437)scale(0.1 -0.1)">
       <use xlink:href="#DejaVuSans-30"/>
       <use x="63.623047" xlink:href="#DejaVuSans-2e"/>
       <use x="95.410156" xlink:href="#DejaVuSans-38"/>
      </g>
     </g>
    </g>
    <g id="xtick_6">
     <g id="line2d_6">
      <g>
       <use style="stroke:#000000;stroke-width:0.8;" x="398.487273" xlink:href="#ma7fcc5dc3a" y="307.584"/>
      </g>
     </g>
     <g id="text_6">
      <!-- 1.0 -->
      <defs>
       <path d="M 12.40625 8.296875 
L 28.515625 8.296875 
L 28.515625 63.921875 
L 10.984375 60.40625 
L 10.984375 69.390625 
L 28.421875 72.90625 
L 38.28125 72.90625 
L 38.28125 8.296875 
L 54.390625 8.296875 
L 54.390625 0 
L 12.40625 0 
z
" id="DejaVuSans-31"/>
      </defs>
      <g transform="translate(390.53571 322.182437)scale(0.1 -0.1)">
       <use xlink:href="#DejaVuSans-31"/>
       <use x="63.623047" xlink:href="#DejaVuSans-2e"/>
       <use x="95.410156" xlink:href="#DejaVuSans-30"/>
      </g>
     </g>
    </g>
   </g>
   <g id="matplotlib.axis_2">
    <g id="ytick_1">
     <g id="line2d_7">
      <defs>
       <path d="M 0 0 
L -3.5 0 
" id="m4aa9b25af3" style="stroke:#000000;stroke-width:0.8;"/>
      </defs>
      <g>
       <use style="stroke:#000000;stroke-width:0.8;" x="57.6" xlink:href="#m4aa9b25af3" y="295.488"/>
      </g>
     </g>
     <g id="text_7">
      <!-- 0.0 -->
      <g transform="translate(34.696875 299.287219)scale(0.1 -0.1)">
       <use xlink:href="#DejaVuSans-30"/>
       <use x="63.623047" xlink:href="#DejaVuSans-2e"/>
       <use x="95.410156" xlink:href="#DejaVuSans-30"/>
      </g>
     </g>
    </g>
    <g id="ytick_2">
     <g id="line2d_8">
      <g>
       <use style="stroke:#000000;stroke-width:0.8;" x="57.6" xlink:href="#m4aa9b25af3" y="247.104"/>
      </g>
     </g>
     <g id="text_8">
      <!-- 0.2 -->
      <g transform="translate(34.696875 250.903219)scale(0.1 -0.1)">
       <use xlink:href="#DejaVuSans-30"/>
       <use x="63.623047" xlink:href="#DejaVuSans-2e"/>
       <use x="95.410156" xlink:href="#DejaVuSans-32"/>
      </g>
     </g>
    </g>
    <g id="ytick_3">
     <g id="line2d_9">
      <g>
       <use style="stroke:#000000;stroke-width:0.8;" x="57.6" xlink:href="#m4aa9b25af3" y="198.72"/>
      </g>
     </g>
     <g id="text_9">
      <!-- 0.4 -->
      <g transform="translate(34.696875 202.519219)scale(0.1 -0.1)">
       <use xlink:href="#DejaVuSans-30"/>
       <use x="63.623047" xlink:href="#DejaVuSans-2e"/>
       <use x="95.410156" xlink:href="#DejaVuSans-34"/>
      </g>
     </g>
    </g>
    <g id="ytick_4">
     <g id="line2d_10">
      <g>
       <use style="stroke:#000000;stroke-width:0.8;" x="57.6" xlink:href="#m4aa9b25af3" y="150.336"/>
      </g>
     </g>
     <g id="text_10">
      <!-- 0.6 -->
      <g transform="translate(34.696875 154.135219)scale(0.1 -0.1)">
       <use xlink:href="#DejaVuSans-30"/>
       <use x="63.623047" xlink:href="#DejaVuSans-2e"/>
       <use x="95.410156" xlink:href="#DejaVuSans-36"/>
      </g>
     </g>
    </g>
    <g id="ytick_5">
     <g id="line2d_11">
      <g>
       <use style="stroke:#000000;stroke-width:0.8;" x="57.6" xlink:href="#m4aa9b25af3" y="101.952"/>
      </g>
     </g>
     <g id="text_11">
      <!-- 0.8 -->
      <g transform="translate(34.696875 105.751219)scale(0.1 -0.1)">
       <use xlink:href="#DejaVuSans-30"/>
       <use x="63.623047" xlink:href="#DejaVuSans-2e"/>
       <use x="95.410156" xlink:href="#DejaVuSans-38"/>
      </g>
     </g>
    </g>
    <g id="ytick_6">
     <g id="line2d_12">
      <g>
       <use style="stroke:#000000;stroke-width:0.8;" x="57.6" xlink:href="#m4aa9b25af3" y="53.568"/>
      </g>
     </g>
     <g id="text_12">
      <!-- 1.0 -->
      <g transform="translate(34.696875 57.367219)scale(0.1 -0.1)">
       <use xlink:href="#DejaVuSans-31"/>
       <use x="63.623047" xlink:href="#DejaVuSans-2e"/>
       <use x="95.410156" xlink:href="#DejaVuSans-30"/>
      </g>
     </g>
    </g>
   </g>
   <g id="line2d_13">
    <path clip-path="url(#p934a761882)" d="M 73.832727 295.488 
L 73.832727 283.324425 
L 73.832727 263.727553 
L 73.832727 252.239732 
L 73.832727 241.427665 
L 73.832727 225.885318 
L 73.832727 216.42476 
L 73.832727 204.261184 
L 73.832727 194.124872 
L 73.832727 177.906771 
L 75.64644 165.743196 
L 75.64644 161.012916 
L 75.64644 152.903866 
L 76.553296 145.47057 
L 76.553296 139.388782 
L 77.460152 133.306994 
L 77.460152 129.928223 
L 77.460152 124.52219 
L 77.460152 123.170682 
L 77.460152 118.440402 
L 77.460152 115.737385 
L 78.367009 114.385877 
L 78.367009 110.331352 
L 79.273865 107.628335 
L 79.273865 104.925318 
L 79.273865 100.870793 
L 79.273865 98.167777 
L 80.180721 93.437497 
L 80.180721 90.73448 
L 81.087577 89.382972 
L 81.087577 88.031464 
L 84.715003 85.328447 
L 85.621859 82.62543 
L 87.435571 79.922413 
L 88.342428 78.570905 
L 89.249284 78.570905 
L 91.969853 77.895151 
L 91.969853 75.867888 
L 92.876709 74.51638 
L 93.783565 74.51638 
L 94.690422 73.164872 
L 96.504134 73.164872 
L 99.224703 73.164872 
L 101.038415 71.813363 
L 102.852128 71.137609 
L 105.572697 70.461855 
L 106.479553 69.110346 
L 106.479553 68.434592 
L 107.386409 68.434592 
L 109.200122 68.434592 
L 111.920691 68.434592 
L 113.734403 67.758838 
L 115.548116 67.758838 
L 117.361828 67.083084 
L 120.082397 67.083084 
L 121.89611 67.083084 
L 124.616679 66.40733 
L 126.430391 66.40733 
L 128.244104 65.055821 
L 129.15096 64.380067 
L 130.964672 63.704313 
L 133.685241 63.704313 
L 134.592098 63.704313 
L 139.126379 62.352804 
L 141.846948 61.67705 
L 144.567517 61.67705 
L 146.381229 61.001296 
L 150.008654 61.001296 
L 154.542936 60.325542 
L 159.984073 58.298279 
L 160.890929 58.298279 
L 164.518354 58.298279 
L 167.238923 58.298279 
L 168.14578 58.298279 
L 172.680061 58.298279 
L 179.028055 57.622525 
L 182.65548 56.946771 
L 187.189761 56.946771 
L 197.16518 56.946771 
L 201.699462 56.946771 
L 215.302306 55.595263 
L 222.557156 55.595263 
L 231.625719 55.595263 
L 244.321706 55.595263 
L 254.297125 55.595263 
L 263.365688 54.919508 
L 273.341107 54.919508 
L 287.850808 54.919508 
L 301.453652 54.243754 
L 319.590777 54.243754 
L 344.075896 54.243754 
L 361.306166 54.243754 
L 381.257004 54.243754 
L 398.487273 53.568 
" style="fill:none;stroke:#1f77b4;stroke-linecap:square;stroke-width:2;"/>
   </g>
   <g id="line2d_14">
    <path clip-path="url(#p934a761882)" d="M 73.832727 295.488 
L 398.487273 53.568 
" style="fill:none;stroke:#000000;stroke-dasharray:5.55,2.4;stroke-dashoffset:0;stroke-width:1.5;"/>
   </g>
   <g id="line2d_15">
    <path clip-path="url(#p934a761882)" d="M 73.832727 295.488 
L 73.832727 291.433475 
L 73.832727 289.406212 
L 73.832727 166.41895 
L 74.739584 166.41895 
L 74.739584 159.661408 
L 75.64644 159.661408 
L 75.64644 138.713028 
L 76.553296 138.713028 
L 76.553296 131.955486 
L 77.460152 131.955486 
L 77.460152 117.764648 
L 78.367009 117.764648 
L 78.367009 116.41314 
L 79.273865 116.41314 
L 79.273865 112.358615 
L 80.180721 112.358615 
L 80.180721 105.601073 
L 81.087577 105.601073 
L 81.087577 102.898056 
L 81.994434 102.898056 
L 81.994434 100.195039 
L 82.90129 100.195039 
L 82.90129 94.113251 
L 83.808146 94.113251 
L 83.808146 93.437497 
L 86.528715 93.437497 
L 86.528715 92.761743 
L 87.435571 92.761743 
L 87.435571 89.382972 
L 88.342428 89.382972 
L 88.342428 88.707218 
L 89.249284 88.707218 
L 89.249284 88.031464 
L 91.062996 88.031464 
L 91.062996 84.652693 
L 91.969853 84.652693 
L 91.969853 83.976939 
L 92.876709 83.976939 
L 92.876709 83.301184 
L 94.690422 83.301184 
L 94.690422 81.273922 
L 95.597278 81.273922 
L 95.597278 79.922413 
L 97.41099 79.922413 
L 97.41099 77.895151 
L 98.317847 77.895151 
L 98.317847 76.543642 
L 99.224703 76.543642 
L 99.224703 75.867888 
L 100.131559 75.867888 
L 100.131559 73.840626 
L 101.945272 73.840626 
L 101.945272 73.164872 
L 103.758984 73.164872 
L 103.758984 71.137609 
L 105.572697 71.137609 
L 105.572697 70.461855 
L 111.013834 70.461855 
L 111.013834 69.786101 
L 114.64126 69.786101 
L 114.64126 69.110346 
L 116.454972 69.110346 
L 116.454972 68.434592 
L 120.989253 68.434592 
L 120.989253 67.083084 
L 125.523535 67.083084 
L 125.523535 65.731575 
L 128.244104 65.731575 
L 128.244104 65.055821 
L 136.40581 65.055821 
L 136.40581 64.380067 
L 141.846948 64.380067 
L 141.846948 63.704313 
L 154.542936 63.704313 
L 154.542936 63.028559 
L 157.263504 63.028559 
L 157.263504 62.352804 
L 163.611498 62.352804 
L 163.611498 61.001296 
L 174.493773 61.001296 
L 174.493773 60.325542 
L 178.121199 60.325542 
L 178.121199 59.649788 
L 196.258324 59.649788 
L 196.258324 58.974034 
L 198.072037 58.974034 
L 198.072037 58.298279 
L 203.513174 58.298279 
L 203.513174 57.622525 
L 210.768024 57.622525 
L 210.768024 56.946771 
L 257.017694 56.946771 
L 257.017694 56.271017 
L 266.993113 56.271017 
L 266.993113 55.595263 
L 278.782245 55.595263 
L 278.782245 54.919508 
L 322.311346 54.919508 
L 322.311346 53.568 
L 398.487273 53.568 
" style="fill:none;stroke:#ff7f0e;stroke-linecap:square;stroke-width:2;"/>
   </g>
   <g id="line2d_16">
    <path clip-path="url(#p934a761882)" d="M 73.832727 295.488 
L 398.487273 53.568 
" style="fill:none;stroke:#000000;stroke-dasharray:5.55,2.4;stroke-dashoffset:0;stroke-width:1.5;"/>
   </g>
   <g id="line2d_17">
    <path clip-path="url(#p934a761882)" d="M 73.832727 295.488 
L 134.592098 102.222302 
L 135.498954 101.546547 
L 137.312666 101.546547 
L 137.312666 97.492022 
L 138.219523 97.492022 
L 138.219523 96.140514 
L 139.126379 96.140514 
L 139.126379 95.46476 
L 141.846948 95.46476 
L 141.846948 94.113251 
L 143.66066 94.113251 
L 143.66066 92.761743 
L 145.474373 92.761743 
L 145.474373 92.085989 
L 148.194942 92.085989 
L 148.194942 91.410235 
L 150.008654 91.410235 
L 150.008654 90.058726 
L 151.822367 90.058726 
L 151.822367 88.031464 
L 153.636079 88.031464 
L 153.636079 87.355709 
L 158.170361 87.355709 
L 158.170361 86.679955 
L 159.077217 86.679955 
L 159.077217 86.004201 
L 161.797786 86.004201 
L 161.797786 85.328447 
L 177.214342 85.328447 
L 177.214342 83.976939 
L 179.028055 83.976939 
L 179.028055 82.62543 
L 179.934911 82.62543 
L 179.934911 81.273922 
L 184.469192 81.273922 
L 184.469192 79.246659 
L 191.724043 79.246659 
L 191.724043 78.570905 
L 197.16518 78.570905 
L 197.16518 77.895151 
L 204.42003 77.895151 
L 204.42003 77.219397 
L 208.047456 77.219397 
L 208.047456 75.192134 
L 215.302306 75.192134 
L 215.302306 73.840626 
L 219.836587 73.840626 
L 219.836587 73.164872 
L 220.743443 73.164872 
L 220.743443 72.489117 
L 236.16 72.489117 
L 236.16 71.813363 
L 237.066856 71.813363 
L 237.066856 71.137609 
L 241.601138 71.137609 
L 241.601138 70.461855 
L 242.507994 70.461855 
L 242.507994 69.786101 
L 244.321706 69.786101 
L 244.321706 68.434592 
L 249.762844 68.434592 
L 249.762844 67.758838 
L 262.458832 67.758838 
L 262.458832 67.083084 
L 265.179401 67.083084 
L 265.179401 66.40733 
L 277.875389 66.40733 
L 277.875389 65.731575 
L 281.502814 65.731575 
L 281.502814 63.704313 
L 282.40967 63.704313 
L 282.40967 63.028559 
L 283.316526 63.028559 
L 283.316526 62.352804 
L 284.223382 62.352804 
L 284.223382 61.67705 
L 285.130239 61.67705 
L 285.130239 61.001296 
L 286.037095 61.001296 
L 286.037095 59.649788 
L 323.218202 59.649788 
L 323.218202 58.974034 
L 326.845627 58.974034 
L 326.845627 58.298279 
L 347.703321 58.298279 
L 347.703321 57.622525 
L 350.42389 57.622525 
L 350.42389 56.946771 
L 356.771884 56.946771 
L 356.771884 56.271017 
L 357.67874 56.271017 
L 357.67874 55.595263 
L 363.119878 55.595263 
L 363.119878 54.919508 
L 379.443291 54.919508 
L 379.443291 54.243754 
L 389.41871 54.243754 
L 398.487273 53.568 
" style="fill:none;stroke:#2ca02c;stroke-linecap:square;stroke-width:2;"/>
   </g>
   <g id="line2d_18">
    <path clip-path="url(#p934a761882)" d="M 73.832727 295.488 
L 398.487273 53.568 
" style="fill:none;stroke:#000000;stroke-dasharray:5.55,2.4;stroke-dashoffset:0;stroke-width:1.5;"/>
   </g>
   <g id="line2d_19">
    <path clip-path="url(#p934a761882)" d="M 73.832727 295.488 
L 77.460152 192.097609 
L 81.994434 151.552358 
L 90.15614 120.467665 
L 134.592098 86.679955 
L 230.718862 65.731575 
L 398.487273 53.568 
" style="fill:none;stroke:#d62728;stroke-linecap:square;stroke-width:2;"/>
   </g>
   <g id="line2d_20">
    <path clip-path="url(#p934a761882)" d="M 73.832727 295.488 
L 398.487273 53.568 
" style="fill:none;stroke:#000000;stroke-dasharray:5.55,2.4;stroke-dashoffset:0;stroke-width:1.5;"/>
   </g>
   <g id="line2d_21">
    <path clip-path="url(#p934a761882)" d="M 73.832727 295.488 
L 84.715003 136.010011 
L 84.715003 129.252469 
L 85.621859 129.252469 
L 85.621859 125.873698 
L 86.528715 125.873698 
L 86.528715 124.52219 
L 87.435571 124.52219 
L 87.435571 123.846436 
L 88.342428 123.846436 
L 88.342428 122.494927 
L 89.249284 122.494927 
L 89.249284 121.819173 
L 90.15614 121.819173 
L 90.15614 121.143419 
L 91.969853 121.143419 
L 91.969853 116.41314 
L 92.876709 116.41314 
L 92.876709 112.358615 
L 94.690422 112.358615 
L 94.690422 111.007106 
L 96.504134 111.007106 
L 96.504134 110.331352 
L 98.317847 110.331352 
L 98.317847 108.979844 
L 99.224703 108.979844 
L 99.224703 107.628335 
L 100.131559 107.628335 
L 100.131559 106.952581 
L 101.038415 106.952581 
L 101.038415 106.276827 
L 101.945272 106.276827 
L 101.945272 104.925318 
L 103.758984 104.925318 
L 103.758984 103.57381 
L 104.665841 103.57381 
L 104.665841 99.519285 
L 108.293266 99.519285 
L 108.293266 97.492022 
L 110.106978 97.492022 
L 110.106978 96.816268 
L 111.013834 96.816268 
L 111.013834 96.140514 
L 113.734403 96.140514 
L 113.734403 95.46476 
L 114.64126 95.46476 
L 114.64126 94.789006 
L 115.548116 94.789006 
L 115.548116 94.113251 
L 116.454972 94.113251 
L 116.454972 93.437497 
L 121.89611 93.437497 
L 121.89611 91.410235 
L 129.15096 91.410235 
L 129.15096 90.73448 
L 131.871529 90.73448 
L 131.871529 90.058726 
L 132.778385 90.058726 
L 132.778385 88.707218 
L 133.685241 88.707218 
L 133.685241 88.031464 
L 135.498954 88.031464 
L 135.498954 87.355709 
L 139.126379 87.355709 
L 139.126379 86.679955 
L 140.033235 86.679955 
L 140.033235 86.004201 
L 141.846948 86.004201 
L 141.846948 84.652693 
L 142.753804 84.652693 
L 142.753804 83.976939 
L 143.66066 83.976939 
L 143.66066 82.62543 
L 153.636079 82.62543 
L 153.636079 81.949676 
L 159.984073 81.949676 
L 159.984073 81.273922 
L 160.890929 81.273922 
L 160.890929 80.598168 
L 166.332067 80.598168 
L 166.332067 79.922413 
L 172.680061 79.922413 
L 172.680061 79.246659 
L 176.307486 79.246659 
L 176.307486 77.895151 
L 179.028055 77.895151 
L 179.028055 77.219397 
L 184.469192 77.219397 
L 184.469192 76.543642 
L 211.674881 76.543642 
L 211.674881 75.867888 
L 218.929731 75.867888 
L 218.929731 75.192134 
L 220.743443 75.192134 
L 220.743443 74.51638 
L 221.6503 74.51638 
L 221.6503 73.840626 
L 228.90515 73.840626 
L 228.90515 73.164872 
L 229.812006 73.164872 
L 229.812006 72.489117 
L 231.625719 72.489117 
L 231.625719 71.813363 
L 232.532575 71.813363 
L 232.532575 70.461855 
L 233.439431 70.461855 
L 233.439431 69.786101 
L 234.346287 69.786101 
L 234.346287 69.110346 
L 241.601138 69.110346 
L 241.601138 68.434592 
L 243.41485 68.434592 
L 243.41485 67.758838 
L 245.228563 67.758838 
L 245.228563 66.40733 
L 247.949132 66.40733 
L 247.949132 65.731575 
L 257.924551 65.731575 
L 257.924551 65.055821 
L 263.365688 65.055821 
L 263.365688 64.380067 
L 273.341107 64.380067 
L 273.341107 63.704313 
L 275.15482 63.704313 
L 275.15482 63.028559 
L 276.061676 63.028559 
L 276.061676 62.352804 
L 277.875389 62.352804 
L 277.875389 60.325542 
L 282.40967 60.325542 
L 282.40967 59.649788 
L 294.198801 59.649788 
L 294.198801 58.974034 
L 315.963352 58.974034 
L 315.963352 58.298279 
L 316.870208 58.298279 
L 316.870208 57.622525 
L 341.355328 57.622525 
L 341.355328 56.946771 
L 364.026734 56.946771 
L 364.026734 56.271017 
L 364.933591 56.271017 
L 364.933591 55.595263 
L 370.374728 55.595263 
L 370.374728 54.919508 
L 378.536435 54.919508 
L 378.536435 54.243754 
L 390.325566 54.243754 
L 398.487273 53.568 
L 398.487273 53.568 
" style="fill:none;stroke:#9467bd;stroke-linecap:square;stroke-width:2;"/>
   </g>
   <g id="line2d_22">
    <path clip-path="url(#p934a761882)" d="M 73.832727 295.488 
L 398.487273 53.568 
" style="fill:none;stroke:#000000;stroke-dasharray:5.55,2.4;stroke-dashoffset:0;stroke-width:1.5;"/>
   </g>
   <g id="line2d_23">
    <path clip-path="url(#p934a761882)" d="M 73.832727 295.488 
L 73.832727 294.812246 
L 73.832727 233.318615 
L 74.739584 233.318615 
L 74.739584 176.555263 
L 75.64644 176.555263 
L 75.64644 167.770458 
L 76.553296 167.770458 
L 76.553296 160.337162 
L 77.460152 160.337162 
L 77.460152 159.661408 
L 78.367009 159.661408 
L 78.367009 136.010011 
L 80.180721 136.010011 
L 80.180721 129.252469 
L 81.087577 129.252469 
L 81.087577 122.494927 
L 81.994434 122.494927 
L 81.994434 119.116156 
L 82.90129 119.116156 
L 82.90129 106.276827 
L 83.808146 106.276827 
L 83.808146 104.925318 
L 85.621859 104.925318 
L 85.621859 102.898056 
L 86.528715 102.898056 
L 86.528715 100.870793 
L 87.435571 100.870793 
L 87.435571 100.195039 
L 88.342428 100.195039 
L 88.342428 95.46476 
L 90.15614 95.46476 
L 90.15614 94.113251 
L 91.062996 94.113251 
L 91.062996 87.355709 
L 91.969853 87.355709 
L 91.969853 86.679955 
L 92.876709 86.679955 
L 92.876709 84.652693 
L 95.597278 84.652693 
L 95.597278 80.598168 
L 96.504134 80.598168 
L 96.504134 79.922413 
L 98.317847 79.922413 
L 98.317847 79.246659 
L 99.224703 79.246659 
L 99.224703 78.570905 
L 100.131559 78.570905 
L 100.131559 77.219397 
L 104.665841 77.219397 
L 104.665841 76.543642 
L 105.572697 76.543642 
L 105.572697 75.867888 
L 106.479553 75.867888 
L 106.479553 75.192134 
L 107.386409 75.192134 
L 107.386409 74.51638 
L 116.454972 74.51638 
L 116.454972 73.164872 
L 120.082397 73.164872 
L 120.082397 72.489117 
L 120.989253 72.489117 
L 120.989253 71.813363 
L 121.89611 71.813363 
L 121.89611 69.786101 
L 123.709822 69.786101 
L 123.709822 68.434592 
L 132.778385 68.434592 
L 132.778385 67.758838 
L 133.685241 67.758838 
L 133.685241 66.40733 
L 136.40581 66.40733 
L 136.40581 64.380067 
L 140.033235 64.380067 
L 140.033235 63.704313 
L 141.846948 63.704313 
L 141.846948 63.028559 
L 150.008654 63.028559 
L 150.008654 62.352804 
L 151.822367 62.352804 
L 151.822367 61.67705 
L 155.449792 61.67705 
L 155.449792 61.001296 
L 161.797786 61.001296 
L 161.797786 60.325542 
L 166.332067 60.325542 
L 166.332067 59.649788 
L 175.40063 59.649788 
L 175.40063 58.974034 
L 188.096618 58.974034 
L 188.096618 58.298279 
L 258.831407 58.298279 
L 258.831407 57.622525 
L 263.365688 57.622525 
L 263.365688 56.946771 
L 278.782245 56.946771 
L 278.782245 56.271017 
L 280.595957 56.271017 
L 280.595957 55.595263 
L 333.193621 55.595263 
L 333.193621 54.919508 
L 338.634759 54.919508 
L 338.634759 54.243754 
L 353.144459 54.243754 
L 353.144459 53.568 
L 398.487273 53.568 
" style="fill:none;stroke:#8c564b;stroke-linecap:square;stroke-width:2;"/>
   </g>
   <g id="line2d_24">
    <path clip-path="url(#p934a761882)" d="M 73.832727 295.488 
L 398.487273 53.568 
" style="fill:none;stroke:#000000;stroke-dasharray:5.55,2.4;stroke-dashoffset:0;stroke-width:1.5;"/>
   </g>
   <g id="line2d_25">
    <path clip-path="url(#p934a761882)" d="M 73.832727 295.488 
L 126.430391 81.949676 
L 398.487273 53.568 
" style="fill:none;stroke:#e377c2;stroke-linecap:square;stroke-width:2;"/>
   </g>
   <g id="line2d_26">
    <path clip-path="url(#p934a761882)" d="M 73.832727 295.488 
L 398.487273 53.568 
" style="fill:none;stroke:#000000;stroke-dasharray:5.55,2.4;stroke-dashoffset:0;stroke-width:1.5;"/>
   </g>
   <g id="line2d_27">
    <path clip-path="url(#p934a761882)" d="M 73.832727 295.488 
L 73.832727 236.021631 
L 74.739584 236.021631 
L 74.739584 227.912581 
L 75.64644 227.912581 
L 75.64644 203.58543 
L 76.553296 203.58543 
L 76.553296 179.258279 
L 77.460152 179.258279 
L 77.460152 177.231017 
L 79.273865 177.231017 
L 79.273865 169.797721 
L 81.087577 169.797721 
L 81.087577 160.337162 
L 81.994434 160.337162 
L 81.994434 144.794816 
L 84.715003 144.794816 
L 84.715003 133.982749 
L 85.621859 133.982749 
L 85.621859 127.225207 
L 86.528715 127.225207 
L 86.528715 125.197944 
L 87.435571 125.197944 
L 87.435571 122.494927 
L 88.342428 122.494927 
L 88.342428 118.440402 
L 89.249284 118.440402 
L 89.249284 117.764648 
L 90.15614 117.764648 
L 90.15614 114.385877 
L 91.062996 114.385877 
L 91.062996 113.034369 
L 91.969853 113.034369 
L 91.969853 106.276827 
L 93.783565 106.276827 
L 93.783565 104.925318 
L 95.597278 104.925318 
L 95.597278 102.222302 
L 96.504134 102.222302 
L 96.504134 99.519285 
L 97.41099 99.519285 
L 97.41099 98.843531 
L 98.317847 98.843531 
L 98.317847 96.816268 
L 99.224703 96.816268 
L 99.224703 89.382972 
L 100.131559 89.382972 
L 100.131559 88.031464 
L 101.038415 88.031464 
L 101.038415 85.328447 
L 101.945272 85.328447 
L 101.945272 84.652693 
L 105.572697 84.652693 
L 105.572697 83.976939 
L 108.293266 83.976939 
L 108.293266 83.301184 
L 109.200122 83.301184 
L 109.200122 82.62543 
L 111.013834 82.62543 
L 111.013834 81.949676 
L 115.548116 81.949676 
L 115.548116 81.273922 
L 117.361828 81.273922 
L 117.361828 80.598168 
L 121.89611 80.598168 
L 121.89611 79.922413 
L 123.709822 79.922413 
L 123.709822 79.246659 
L 126.430391 79.246659 
L 126.430391 78.570905 
L 129.15096 78.570905 
L 129.15096 77.219397 
L 130.057816 77.219397 
L 130.057816 75.867888 
L 131.871529 75.867888 
L 131.871529 74.51638 
L 132.778385 74.51638 
L 132.778385 73.164872 
L 134.592098 73.164872 
L 134.592098 72.489117 
L 137.312666 72.489117 
L 137.312666 70.461855 
L 139.126379 70.461855 
L 139.126379 69.786101 
L 151.822367 69.786101 
L 151.822367 69.110346 
L 153.636079 69.110346 
L 153.636079 68.434592 
L 154.542936 68.434592 
L 154.542936 67.758838 
L 155.449792 67.758838 
L 155.449792 67.083084 
L 162.704642 67.083084 
L 162.704642 66.40733 
L 169.959492 66.40733 
L 169.959492 65.731575 
L 174.493773 65.731575 
L 174.493773 65.055821 
L 175.40063 65.055821 
L 175.40063 64.380067 
L 186.282905 64.380067 
L 186.282905 63.704313 
L 200.792605 63.704313 
L 200.792605 62.352804 
L 204.42003 62.352804 
L 204.42003 61.67705 
L 205.326887 61.67705 
L 205.326887 61.001296 
L 229.812006 61.001296 
L 229.812006 60.325542 
L 243.41485 60.325542 
L 243.41485 59.649788 
L 250.6697 59.649788 
L 250.6697 58.974034 
L 256.110838 58.974034 
L 256.110838 58.298279 
L 270.620538 58.298279 
L 270.620538 57.622525 
L 283.316526 57.622525 
L 283.316526 56.946771 
L 284.223382 56.946771 
L 284.223382 56.271017 
L 320.497633 56.271017 
L 320.497633 54.919508 
L 350.42389 54.919508 
L 350.42389 54.243754 
L 398.487273 54.243754 
L 398.487273 53.568 
L 398.487273 53.568 
" style="fill:none;stroke:#7f7f7f;stroke-linecap:square;stroke-width:2;"/>
   </g>
   <g id="line2d_28">
    <path clip-path="url(#p934a761882)" d="M 73.832727 295.488 
L 398.487273 53.568 
" style="fill:none;stroke:#000000;stroke-dasharray:5.55,2.4;stroke-dashoffset:0;stroke-width:1.5;"/>
   </g>
   <g id="line2d_29">
    <path clip-path="url(#p934a761882)" d="M 73.832727 295.488 
L 73.832727 294.812246 
L 73.832727 212.370235 
L 73.832727 211.018726 
L 73.832727 158.985654 
L 74.739584 158.985654 
L 74.739584 113.034369 
L 75.64644 113.034369 
L 75.64644 96.816268 
L 76.553296 96.816268 
L 76.553296 92.085989 
L 77.460152 92.085989 
L 77.460152 86.004201 
L 78.367009 86.004201 
L 78.367009 84.652693 
L 79.273865 84.652693 
L 79.273865 83.301184 
L 80.180721 83.301184 
L 80.180721 79.246659 
L 81.087577 79.246659 
L 81.087577 73.840626 
L 86.528715 73.840626 
L 86.528715 73.164872 
L 87.435571 73.164872 
L 87.435571 72.489117 
L 88.342428 72.489117 
L 88.342428 71.813363 
L 89.249284 71.813363 
L 89.249284 66.40733 
L 92.876709 66.40733 
L 92.876709 65.731575 
L 95.597278 65.731575 
L 95.597278 65.055821 
L 97.41099 65.055821 
L 97.41099 64.380067 
L 100.131559 64.380067 
L 100.131559 62.352804 
L 101.038415 62.352804 
L 101.038415 61.67705 
L 103.758984 61.67705 
L 103.758984 60.325542 
L 105.572697 60.325542 
L 105.572697 59.649788 
L 111.920691 59.649788 
L 111.920691 58.298279 
L 112.827547 58.298279 
L 112.827547 57.622525 
L 131.871529 57.622525 
L 131.871529 56.946771 
L 153.636079 56.946771 
L 153.636079 56.271017 
L 215.302306 56.271017 
L 217.116018 56.271017 
L 245.228563 56.271017 
L 245.228563 55.595263 
L 262.458832 55.595263 
L 264.272544 55.595263 
L 270.620538 55.595263 
L 272.434251 55.595263 
L 274.247963 55.595263 
L 274.247963 54.919508 
L 275.15482 54.919508 
L 275.15482 54.243754 
L 295.105658 54.243754 
L 296.91937 54.243754 
L 297.826227 54.243754 
L 300.546795 54.243754 
L 305.081077 54.243754 
L 306.894789 54.243754 
L 331.379909 54.243754 
L 331.379909 53.568 
L 398.487273 53.568 
" style="fill:none;stroke:#bcbd22;stroke-linecap:square;stroke-width:2;"/>
   </g>
   <g id="line2d_30">
    <path clip-path="url(#p934a761882)" d="M 73.832727 295.488 
L 398.487273 53.568 
" style="fill:none;stroke:#000000;stroke-dasharray:5.55,2.4;stroke-dashoffset:0;stroke-width:1.5;"/>
   </g>
   <g id="line2d_31">
    <path clip-path="url(#p934a761882)" d="M 73.832727 295.488 
L 73.832727 284.000179 
L 73.832727 270.485095 
L 73.832727 263.727553 
L 73.832727 254.266994 
L 73.832727 243.454927 
L 73.832727 234.670123 
L 73.832727 221.155039 
L 73.832727 213.045989 
L 73.832727 199.530905 
L 73.832727 195.47638 
L 73.832727 187.36733 
L 73.832727 183.312804 
L 73.832727 175.879508 
L 73.832727 169.121966 
L 74.739584 161.68867 
L 74.739584 158.309899 
L 75.64644 154.255374 
L 75.64644 150.200849 
L 75.64644 141.416045 
L 75.64644 133.306994 
L 76.553296 129.928223 
L 77.460152 125.197944 
L 77.460152 119.116156 
L 78.367009 113.034369 
L 78.367009 111.68286 
L 78.367009 109.655598 
L 78.367009 106.276827 
L 79.273865 104.925318 
L 81.087577 102.222302 
L 81.994434 98.843531 
L 81.994434 95.46476 
L 82.90129 92.761743 
L 82.90129 90.73448 
L 82.90129 86.679955 
L 83.808146 86.004201 
L 83.808146 84.652693 
L 83.808146 81.273922 
L 83.808146 80.598168 
L 84.715003 79.246659 
L 86.528715 77.895151 
L 87.435571 74.51638 
L 88.342428 73.840626 
L 88.342428 71.813363 
L 89.249284 71.137609 
L 89.249284 69.110346 
L 90.15614 69.110346 
L 91.969853 69.110346 
L 92.876709 69.110346 
L 94.690422 69.110346 
L 100.131559 67.083084 
L 100.131559 65.731575 
L 105.572697 65.731575 
L 107.386409 65.731575 
L 108.293266 65.055821 
L 110.106978 65.055821 
L 111.013834 65.055821 
L 113.734403 65.055821 
L 117.361828 65.055821 
L 120.082397 64.380067 
L 122.802966 64.380067 
L 124.616679 64.380067 
L 130.057816 63.028559 
L 131.871529 62.352804 
L 132.778385 62.352804 
L 135.498954 62.352804 
L 137.312666 62.352804 
L 138.219523 62.352804 
L 147.288085 62.352804 
L 150.008654 61.67705 
L 156.356648 61.001296 
L 160.890929 61.001296 
L 163.611498 61.001296 
L 168.14578 60.325542 
L 172.680061 60.325542 
L 185.376049 58.298279 
L 189.91033 58.298279 
L 195.351468 58.298279 
L 201.699462 58.298279 
L 209.861168 58.298279 
L 215.302306 57.622525 
L 223.464012 57.622525 
L 225.277725 57.622525 
L 237.973713 57.622525 
L 245.228563 56.271017 
L 255.203982 55.595263 
L 260.645119 55.595263 
L 270.620538 54.243754 
L 284.223382 54.243754 
L 299.639939 54.243754 
L 317.777064 54.243754 
L 331.379909 54.243754 
L 346.796465 54.243754 
L 358.585597 54.243754 
L 373.095297 54.243754 
L 398.487273 53.568 
" style="fill:none;stroke:#17becf;stroke-linecap:square;stroke-width:2;"/>
   </g>
   <g id="line2d_32">
    <path clip-path="url(#p934a761882)" d="M 73.832727 295.488 
L 398.487273 53.568 
" style="fill:none;stroke:#000000;stroke-dasharray:5.55,2.4;stroke-dashoffset:0;stroke-width:1.5;"/>
   </g>
   <g id="line2d_33">
    <path clip-path="url(#p934a761882)" d="M 73.832727 295.488 
L 73.832727 294.812246 
L 73.832727 150.876603 
L 74.739584 150.876603 
L 74.739584 148.849341 
L 75.64644 148.849341 
L 75.64644 145.47057 
L 77.460152 145.47057 
L 77.460152 91.410235 
L 78.367009 91.410235 
L 78.367009 90.058726 
L 79.273865 90.058726 
L 79.273865 87.355709 
L 81.087577 87.355709 
L 81.087577 86.679955 
L 81.994434 86.679955 
L 81.994434 85.328447 
L 82.90129 85.328447 
L 82.90129 80.598168 
L 85.621859 80.598168 
L 85.621859 75.867888 
L 86.528715 75.867888 
L 86.528715 74.51638 
L 87.435571 74.51638 
L 87.435571 73.840626 
L 88.342428 73.840626 
L 88.342428 72.489117 
L 89.249284 72.489117 
L 89.249284 71.813363 
L 91.062996 71.813363 
L 91.062996 71.137609 
L 91.969853 71.137609 
L 91.969853 69.786101 
L 95.597278 69.786101 
L 95.597278 69.110346 
L 98.317847 69.110346 
L 98.317847 66.40733 
L 99.224703 66.40733 
L 99.224703 65.731575 
L 101.945272 65.731575 
L 101.945272 65.055821 
L 103.758984 65.055821 
L 103.758984 64.380067 
L 110.106978 64.380067 
L 110.106978 63.704313 
L 111.920691 63.704313 
L 111.920691 63.028559 
L 113.734403 63.028559 
L 113.734403 61.67705 
L 115.548116 61.67705 
L 115.548116 60.325542 
L 126.430391 60.325542 
L 126.430391 59.649788 
L 131.871529 59.649788 
L 131.871529 58.974034 
L 135.498954 58.974034 
L 135.498954 58.298279 
L 136.40581 58.298279 
L 136.40581 57.622525 
L 142.753804 57.622525 
L 144.567517 57.622525 
L 146.381229 57.622525 
L 146.381229 56.946771 
L 150.008654 56.946771 
L 152.729223 56.946771 
L 154.542936 56.946771 
L 160.890929 56.946771 
L 162.704642 56.946771 
L 173.586917 56.946771 
L 176.307486 56.946771 
L 179.028055 56.946771 
L 182.65548 56.946771 
L 189.003474 56.946771 
L 190.817186 56.946771 
L 210.768024 56.946771 
L 210.768024 56.271017 
L 237.973713 56.271017 
L 237.973713 55.595263 
L 244.321706 55.595263 
L 247.042275 55.595263 
L 248.855988 55.595263 
L 258.831407 55.595263 
L 260.645119 55.595263 
L 268.806826 55.595263 
L 268.806826 54.919508 
L 271.527395 54.919508 
L 273.341107 54.919508 
L 274.247963 54.919508 
L 276.968532 54.919508 
L 295.105658 54.919508 
L 295.105658 54.243754 
L 297.826227 54.243754 
L 297.826227 53.568 
L 398.487273 53.568 
" style="fill:none;stroke:#1f77b4;stroke-linecap:square;stroke-width:2;"/>
   </g>
   <g id="line2d_34">
    <path clip-path="url(#p934a761882)" d="M 73.832727 295.488 
L 398.487273 53.568 
" style="fill:none;stroke:#000000;stroke-dasharray:5.55,2.4;stroke-dashoffset:0;stroke-width:1.5;"/>
   </g>
   <g id="patch_3">
    <path d="M 57.6 307.584 
L 57.6 41.472 
" style="fill:none;stroke:#000000;stroke-linecap:square;stroke-linejoin:miter;stroke-width:0.8;"/>
   </g>
   <g id="patch_4">
    <path d="M 414.72 307.584 
L 414.72 41.472 
" style="fill:none;stroke:#000000;stroke-linecap:square;stroke-linejoin:miter;stroke-width:0.8;"/>
   </g>
   <g id="patch_5">
    <path d="M 57.6 307.584 
L 414.72 307.584 
" style="fill:none;stroke:#000000;stroke-linecap:square;stroke-linejoin:miter;stroke-width:0.8;"/>
   </g>
   <g id="patch_6">
    <path d="M 57.6 41.472 
L 414.72 41.472 
" style="fill:none;stroke:#000000;stroke-linecap:square;stroke-linejoin:miter;stroke-width:0.8;"/>
   </g>
   <g id="text_13">
    <!-- ROC -->
    <defs>
     <path d="M 44.390625 34.1875 
Q 47.5625 33.109375 50.5625 29.59375 
Q 53.5625 26.078125 56.59375 19.921875 
L 66.609375 0 
L 56 0 
L 46.6875 18.703125 
Q 43.0625 26.03125 39.671875 28.421875 
Q 36.28125 30.8125 30.421875 30.8125 
L 19.671875 30.8125 
L 19.671875 0 
L 9.8125 0 
L 9.8125 72.90625 
L 32.078125 72.90625 
Q 44.578125 72.90625 50.734375 67.671875 
Q 56.890625 62.453125 56.890625 51.90625 
Q 56.890625 45.015625 53.6875 40.46875 
Q 50.484375 35.9375 44.390625 34.1875 
z
M 19.671875 64.796875 
L 19.671875 38.921875 
L 32.078125 38.921875 
Q 39.203125 38.921875 42.84375 42.21875 
Q 46.484375 45.515625 46.484375 51.90625 
Q 46.484375 58.296875 42.84375 61.546875 
Q 39.203125 64.796875 32.078125 64.796875 
z
" id="DejaVuSans-52"/>
     <path d="M 39.40625 66.21875 
Q 28.65625 66.21875 22.328125 58.203125 
Q 16.015625 50.203125 16.015625 36.375 
Q 16.015625 22.609375 22.328125 14.59375 
Q 28.65625 6.59375 39.40625 6.59375 
Q 50.140625 6.59375 56.421875 14.59375 
Q 62.703125 22.609375 62.703125 36.375 
Q 62.703125 50.203125 56.421875 58.203125 
Q 50.140625 66.21875 39.40625 66.21875 
z
M 39.40625 74.21875 
Q 54.734375 74.21875 63.90625 63.9375 
Q 73.09375 53.65625 73.09375 36.375 
Q 73.09375 19.140625 63.90625 8.859375 
Q 54.734375 -1.421875 39.40625 -1.421875 
Q 24.03125 -1.421875 14.8125 8.828125 
Q 5.609375 19.09375 5.609375 36.375 
Q 5.609375 53.65625 14.8125 63.9375 
Q 24.03125 74.21875 39.40625 74.21875 
z
" id="DejaVuSans-4f"/>
     <path d="M 64.40625 67.28125 
L 64.40625 56.890625 
Q 59.421875 61.53125 53.78125 63.8125 
Q 48.140625 66.109375 41.796875 66.109375 
Q 29.296875 66.109375 22.65625 58.46875 
Q 16.015625 50.828125 16.015625 36.375 
Q 16.015625 21.96875 22.65625 14.328125 
Q 29.296875 6.6875 41.796875 6.6875 
Q 48.140625 6.6875 53.78125 8.984375 
Q 59.421875 11.28125 64.40625 15.921875 
L 64.40625 5.609375 
Q 59.234375 2.09375 53.4375 0.328125 
Q 47.65625 -1.421875 41.21875 -1.421875 
Q 24.65625 -1.421875 15.125 8.703125 
Q 5.609375 18.84375 5.609375 36.375 
Q 5.609375 53.953125 15.125 64.078125 
Q 24.65625 74.21875 41.21875 74.21875 
Q 47.75 74.21875 53.53125 72.484375 
Q 59.328125 70.75 64.40625 67.28125 
z
" id="DejaVuSans-43"/>
    </defs>
    <g transform="translate(223.078125 35.472)scale(0.12 -0.12)">
     <use xlink:href="#DejaVuSans-52"/>
     <use x="69.482422" xlink:href="#DejaVuSans-4f"/>
     <use x="148.193359" xlink:href="#DejaVuSans-43"/>
    </g>
   </g>
   <g id="legend_1">
    <g id="patch_7">
     <path d="M 348.85125 302.584 
L 407.72 302.584 
Q 409.72 302.584 409.72 300.584 
L 409.72 140.124625 
Q 409.72 138.124625 407.72 138.124625 
L 348.85125 138.124625 
Q 346.85125 138.124625 346.85125 140.124625 
L 346.85125 300.584 
Q 346.85125 302.584 348.85125 302.584 
z
" style="fill:#ffffff;opacity:0.8;stroke:#cccccc;stroke-linejoin:miter;"/>
    </g>
    <g id="line2d_35">
     <path d="M 350.85125 146.223062 
L 370.85125 146.223062 
" style="fill:none;stroke:#1f77b4;stroke-linecap:square;stroke-width:2;"/>
    </g>
    <g id="line2d_36"/>
    <g id="text_14">
     <!-- RF -->
     <defs>
      <path d="M 9.8125 72.90625 
L 51.703125 72.90625 
L 51.703125 64.59375 
L 19.671875 64.59375 
L 19.671875 43.109375 
L 48.578125 43.109375 
L 48.578125 34.8125 
L 19.671875 34.8125 
L 19.671875 0 
L 9.8125 0 
z
" id="DejaVuSans-46"/>
     </defs>
     <g transform="translate(378.85125 149.723062)scale(0.1 -0.1)">
      <use xlink:href="#DejaVuSans-52"/>
      <use x="69.482422" xlink:href="#DejaVuSans-46"/>
     </g>
    </g>
    <g id="line2d_37">
     <path d="M 350.85125 160.901188 
L 370.85125 160.901188 
" style="fill:none;stroke:#ff7f0e;stroke-linecap:square;stroke-width:2;"/>
    </g>
    <g id="line2d_38"/>
    <g id="text_15">
     <!-- LR -->
     <defs>
      <path d="M 9.8125 72.90625 
L 19.671875 72.90625 
L 19.671875 8.296875 
L 55.171875 8.296875 
L 55.171875 0 
L 9.8125 0 
z
" id="DejaVuSans-4c"/>
     </defs>
     <g transform="translate(378.85125 164.401188)scale(0.1 -0.1)">
      <use xlink:href="#DejaVuSans-4c"/>
      <use x="55.712891" xlink:href="#DejaVuSans-52"/>
     </g>
    </g>
    <g id="line2d_39">
     <path d="M 350.85125 175.579313 
L 370.85125 175.579313 
" style="fill:none;stroke:#2ca02c;stroke-linecap:square;stroke-width:2;"/>
    </g>
    <g id="line2d_40"/>
    <g id="text_16">
     <!-- QDA -->
     <defs>
      <path d="M 39.40625 66.21875 
Q 28.65625 66.21875 22.328125 58.203125 
Q 16.015625 50.203125 16.015625 36.375 
Q 16.015625 22.609375 22.328125 14.59375 
Q 28.65625 6.59375 39.40625 6.59375 
Q 50.140625 6.59375 56.421875 14.59375 
Q 62.703125 22.609375 62.703125 36.375 
Q 62.703125 50.203125 56.421875 58.203125 
Q 50.140625 66.21875 39.40625 66.21875 
z
M 53.21875 1.3125 
L 66.21875 -12.890625 
L 54.296875 -12.890625 
L 43.5 -1.21875 
Q 41.890625 -1.3125 41.03125 -1.359375 
Q 40.1875 -1.421875 39.40625 -1.421875 
Q 24.03125 -1.421875 14.8125 8.859375 
Q 5.609375 19.140625 5.609375 36.375 
Q 5.609375 53.65625 14.8125 63.9375 
Q 24.03125 74.21875 39.40625 74.21875 
Q 54.734375 74.21875 63.90625 63.9375 
Q 73.09375 53.65625 73.09375 36.375 
Q 73.09375 23.6875 67.984375 14.640625 
Q 62.890625 5.609375 53.21875 1.3125 
z
" id="DejaVuSans-51"/>
      <path d="M 19.671875 64.796875 
L 19.671875 8.109375 
L 31.59375 8.109375 
Q 46.6875 8.109375 53.6875 14.9375 
Q 60.6875 21.78125 60.6875 36.53125 
Q 60.6875 51.171875 53.6875 57.984375 
Q 46.6875 64.796875 31.59375 64.796875 
z
M 9.8125 72.90625 
L 30.078125 72.90625 
Q 51.265625 72.90625 61.171875 64.09375 
Q 71.09375 55.28125 71.09375 36.53125 
Q 71.09375 17.671875 61.125 8.828125 
Q 51.171875 0 30.078125 0 
L 9.8125 0 
z
" id="DejaVuSans-44"/>
      <path d="M 34.1875 63.1875 
L 20.796875 26.90625 
L 47.609375 26.90625 
z
M 28.609375 72.90625 
L 39.796875 72.90625 
L 67.578125 0 
L 57.328125 0 
L 50.6875 18.703125 
L 17.828125 18.703125 
L 11.1875 0 
L 0.78125 0 
z
" id="DejaVuSans-41"/>
     </defs>
     <g transform="translate(378.85125 179.079313)scale(0.1 -0.1)">
      <use xlink:href="#DejaVuSans-51"/>
      <use x="78.710938" xlink:href="#DejaVuSans-44"/>
      <use x="155.697266" xlink:href="#DejaVuSans-41"/>
     </g>
    </g>
    <g id="line2d_41">
     <path d="M 350.85125 190.257438 
L 370.85125 190.257438 
" style="fill:none;stroke:#d62728;stroke-linecap:square;stroke-width:2;"/>
    </g>
    <g id="line2d_42"/>
    <g id="text_17">
     <!-- KNN -->
     <defs>
      <path d="M 9.8125 72.90625 
L 19.671875 72.90625 
L 19.671875 42.09375 
L 52.390625 72.90625 
L 65.09375 72.90625 
L 28.90625 38.921875 
L 67.671875 0 
L 54.6875 0 
L 19.671875 35.109375 
L 19.671875 0 
L 9.8125 0 
z
" id="DejaVuSans-4b"/>
      <path d="M 9.8125 72.90625 
L 23.09375 72.90625 
L 55.421875 11.921875 
L 55.421875 72.90625 
L 64.984375 72.90625 
L 64.984375 0 
L 51.703125 0 
L 19.390625 60.984375 
L 19.390625 0 
L 9.8125 0 
z
" id="DejaVuSans-4e"/>
     </defs>
     <g transform="translate(378.85125 193.757438)scale(0.1 -0.1)">
      <use xlink:href="#DejaVuSans-4b"/>
      <use x="65.576172" xlink:href="#DejaVuSans-4e"/>
      <use x="140.380859" xlink:href="#DejaVuSans-4e"/>
     </g>
    </g>
    <g id="line2d_43">
     <path d="M 350.85125 204.935563 
L 370.85125 204.935563 
" style="fill:none;stroke:#9467bd;stroke-linecap:square;stroke-width:2;"/>
    </g>
    <g id="line2d_44"/>
    <g id="text_18">
     <!-- NB -->
     <defs>
      <path d="M 19.671875 34.8125 
L 19.671875 8.109375 
L 35.5 8.109375 
Q 43.453125 8.109375 47.28125 11.40625 
Q 51.125 14.703125 51.125 21.484375 
Q 51.125 28.328125 47.28125 31.5625 
Q 43.453125 34.8125 35.5 34.8125 
z
M 19.671875 64.796875 
L 19.671875 42.828125 
L 34.28125 42.828125 
Q 41.5 42.828125 45.03125 45.53125 
Q 48.578125 48.25 48.578125 53.8125 
Q 48.578125 59.328125 45.03125 62.0625 
Q 41.5 64.796875 34.28125 64.796875 
z
M 9.8125 72.90625 
L 35.015625 72.90625 
Q 46.296875 72.90625 52.390625 68.21875 
Q 58.5 63.53125 58.5 54.890625 
Q 58.5 48.1875 55.375 44.234375 
Q 52.25 40.28125 46.1875 39.3125 
Q 53.46875 37.75 57.5 32.78125 
Q 61.53125 27.828125 61.53125 20.40625 
Q 61.53125 10.640625 54.890625 5.3125 
Q 48.25 0 35.984375 0 
L 9.8125 0 
z
" id="DejaVuSans-42"/>
     </defs>
     <g transform="translate(378.85125 208.435563)scale(0.1 -0.1)">
      <use xlink:href="#DejaVuSans-4e"/>
      <use x="74.804688" xlink:href="#DejaVuSans-42"/>
     </g>
    </g>
    <g id="line2d_45">
     <path d="M 350.85125 219.613688 
L 370.85125 219.613688 
" style="fill:none;stroke:#8c564b;stroke-linecap:square;stroke-width:2;"/>
    </g>
    <g id="line2d_46"/>
    <g id="text_19">
     <!-- SVM -->
     <defs>
      <path d="M 53.515625 70.515625 
L 53.515625 60.890625 
Q 47.90625 63.578125 42.921875 64.890625 
Q 37.9375 66.21875 33.296875 66.21875 
Q 25.25 66.21875 20.875 63.09375 
Q 16.5 59.96875 16.5 54.203125 
Q 16.5 49.359375 19.40625 46.890625 
Q 22.3125 44.4375 30.421875 42.921875 
L 36.375 41.703125 
Q 47.40625 39.59375 52.65625 34.296875 
Q 57.90625 29 57.90625 20.125 
Q 57.90625 9.515625 50.796875 4.046875 
Q 43.703125 -1.421875 29.984375 -1.421875 
Q 24.8125 -1.421875 18.96875 -0.25 
Q 13.140625 0.921875 6.890625 3.21875 
L 6.890625 13.375 
Q 12.890625 10.015625 18.65625 8.296875 
Q 24.421875 6.59375 29.984375 6.59375 
Q 38.421875 6.59375 43.015625 9.90625 
Q 47.609375 13.234375 47.609375 19.390625 
Q 47.609375 24.75 44.3125 27.78125 
Q 41.015625 30.8125 33.5 32.328125 
L 27.484375 33.5 
Q 16.453125 35.6875 11.515625 40.375 
Q 6.59375 45.0625 6.59375 53.421875 
Q 6.59375 63.09375 13.40625 68.65625 
Q 20.21875 74.21875 32.171875 74.21875 
Q 37.3125 74.21875 42.625 73.28125 
Q 47.953125 72.359375 53.515625 70.515625 
z
" id="DejaVuSans-53"/>
      <path d="M 28.609375 0 
L 0.78125 72.90625 
L 11.078125 72.90625 
L 34.1875 11.53125 
L 57.328125 72.90625 
L 67.578125 72.90625 
L 39.796875 0 
z
" id="DejaVuSans-56"/>
      <path d="M 9.8125 72.90625 
L 24.515625 72.90625 
L 43.109375 23.296875 
L 61.8125 72.90625 
L 76.515625 72.90625 
L 76.515625 0 
L 66.890625 0 
L 66.890625 64.015625 
L 48.09375 14.015625 
L 38.1875 14.015625 
L 19.390625 64.015625 
L 19.390625 0 
L 9.8125 0 
z
" id="DejaVuSans-4d"/>
     </defs>
     <g transform="translate(378.85125 223.113688)scale(0.1 -0.1)">
      <use xlink:href="#DejaVuSans-53"/>
      <use x="63.476562" xlink:href="#DejaVuSans-56"/>
      <use x="131.884766" xlink:href="#DejaVuSans-4d"/>
     </g>
    </g>
    <g id="line2d_47">
     <path d="M 350.85125 234.291812 
L 370.85125 234.291812 
" style="fill:none;stroke:#e377c2;stroke-linecap:square;stroke-width:2;"/>
    </g>
    <g id="line2d_48"/>
    <g id="text_20">
     <!-- CART -->
     <defs>
      <path d="M -0.296875 72.90625 
L 61.375 72.90625 
L 61.375 64.59375 
L 35.5 64.59375 
L 35.5 0 
L 25.59375 0 
L 25.59375 64.59375 
L -0.296875 64.59375 
z
" id="DejaVuSans-54"/>
     </defs>
     <g transform="translate(378.85125 237.791812)scale(0.1 -0.1)">
      <use xlink:href="#DejaVuSans-43"/>
      <use x="69.824219" xlink:href="#DejaVuSans-41"/>
      <use x="138.232422" xlink:href="#DejaVuSans-52"/>
      <use x="207.605469" xlink:href="#DejaVuSans-54"/>
     </g>
    </g>
    <g id="line2d_49">
     <path d="M 350.85125 248.969938 
L 370.85125 248.969938 
" style="fill:none;stroke:#7f7f7f;stroke-linecap:square;stroke-width:2;"/>
    </g>
    <g id="line2d_50"/>
    <g id="text_21">
     <!-- LDA -->
     <g transform="translate(378.85125 252.469938)scale(0.1 -0.1)">
      <use xlink:href="#DejaVuSans-4c"/>
      <use x="55.712891" xlink:href="#DejaVuSans-44"/>
      <use x="132.699219" xlink:href="#DejaVuSans-41"/>
     </g>
    </g>
    <g id="line2d_51">
     <path d="M 350.85125 263.648062 
L 370.85125 263.648062 
" style="fill:none;stroke:#bcbd22;stroke-linecap:square;stroke-width:2;"/>
    </g>
    <g id="line2d_52"/>
    <g id="text_22">
     <!-- GBM -->
     <defs>
      <path d="M 59.515625 10.40625 
L 59.515625 29.984375 
L 43.40625 29.984375 
L 43.40625 38.09375 
L 69.28125 38.09375 
L 69.28125 6.78125 
Q 63.578125 2.734375 56.6875 0.65625 
Q 49.8125 -1.421875 42 -1.421875 
Q 24.90625 -1.421875 15.25 8.5625 
Q 5.609375 18.5625 5.609375 36.375 
Q 5.609375 54.25 15.25 64.234375 
Q 24.90625 74.21875 42 74.21875 
Q 49.125 74.21875 55.546875 72.453125 
Q 61.96875 70.703125 67.390625 67.28125 
L 67.390625 56.78125 
Q 61.921875 61.421875 55.765625 63.765625 
Q 49.609375 66.109375 42.828125 66.109375 
Q 29.4375 66.109375 22.71875 58.640625 
Q 16.015625 51.171875 16.015625 36.375 
Q 16.015625 21.625 22.71875 14.15625 
Q 29.4375 6.6875 42.828125 6.6875 
Q 48.046875 6.6875 52.140625 7.59375 
Q 56.25 8.5 59.515625 10.40625 
z
" id="DejaVuSans-47"/>
     </defs>
     <g transform="translate(378.85125 267.148062)scale(0.1 -0.1)">
      <use xlink:href="#DejaVuSans-47"/>
      <use x="77.490234" xlink:href="#DejaVuSans-42"/>
      <use x="146.09375" xlink:href="#DejaVuSans-4d"/>
     </g>
    </g>
    <g id="line2d_53">
     <path d="M 350.85125 278.326187 
L 370.85125 278.326187 
" style="fill:none;stroke:#17becf;stroke-linecap:square;stroke-width:2;"/>
    </g>
    <g id="line2d_54"/>
    <g id="text_23">
     <!-- ET -->
     <defs>
      <path d="M 9.8125 72.90625 
L 55.90625 72.90625 
L 55.90625 64.59375 
L 19.671875 64.59375 
L 19.671875 43.015625 
L 54.390625 43.015625 
L 54.390625 34.71875 
L 19.671875 34.71875 
L 19.671875 8.296875 
L 56.78125 8.296875 
L 56.78125 0 
L 9.8125 0 
z
" id="DejaVuSans-45"/>
     </defs>
     <g transform="translate(378.85125 281.826187)scale(0.1 -0.1)">
      <use xlink:href="#DejaVuSans-45"/>
      <use x="63.183594" xlink:href="#DejaVuSans-54"/>
     </g>
    </g>
    <g id="line2d_55">
     <path d="M 350.85125 293.004312 
L 370.85125 293.004312 
" style="fill:none;stroke:#1f77b4;stroke-linecap:square;stroke-width:2;"/>
    </g>
    <g id="line2d_56"/>
    <g id="text_24">
     <!-- AB -->
     <g transform="translate(378.85125 296.504312)scale(0.1 -0.1)">
      <use xlink:href="#DejaVuSans-41"/>
      <use x="68.408203" xlink:href="#DejaVuSans-42"/>
     </g>
    </g>
   </g>
  </g>
 </g>
 <defs>
  <clipPath id="p934a761882">
   <rect height="266.112" width="357.12" x="57.6" y="41.472"/>
  </clipPath>
 </defs>
</svg>
