<?xml version="1.0" encoding="utf-8" standalone="no"?>
<!DOCTYPE svg PUBLIC "-//W3C//DTD SVG 1.1//EN"
  "http://www.w3.org/Graphics/SVG/1.1/DTD/svg11.dtd">
<!-- Created with matplotlib (http://matplotlib.org/) -->
<svg height="345.6pt" version="1.1" viewBox="0 0 460.8 345.6" width="460.8pt" xmlns="http://www.w3.org/2000/svg" xmlns:xlink="http://www.w3.org/1999/xlink">
 <defs>
  <style type="text/css">
*{stroke-linecap:butt;stroke-linejoin:round;}
  </style>
 </defs>
 <g id="figure_1">
  <g id="patch_1">
   <path d="M 0 345.6 
L 460.8 345.6 
L 460.8 0 
L 0 0 
z
" style="fill:#ffffff;"/>
  </g>
  <g id="axes_1">
   <g id="patch_2">
    <path d="M 57.6 307.584 
L 414.72 307.584 
L 414.72 41.472 
L 57.6 41.472 
z
" style="fill:#ffffff;"/>
   </g>
   <g id="matplotlib.axis_1">
    <g id="xtick_1">
     <g id="line2d_1">
      <defs>
       <path d="M 0 0 
L 0 3.5 
" id="md0700ba74e" style="stroke:#000000;stroke-width:0.8;"/>
      </defs>
      <g>
       <use style="stroke:#000000;stroke-width:0.8;" x="73.832727" xlink:href="#md0700ba74e" y="307.584"/>
      </g>
     </g>
     <g id="text_1">
      <!-- 0.0 -->
      <defs>
       <path d="M 31.78125 66.40625 
Q 24.171875 66.40625 20.328125 58.90625 
Q 16.5 51.421875 16.5 36.375 
Q 16.5 21.390625 20.328125 13.890625 
Q 24.171875 6.390625 31.78125 6.390625 
Q 39.453125 6.390625 43.28125 13.890625 
Q 47.125 21.390625 47.125 36.375 
Q 47.125 51.421875 43.28125 58.90625 
Q 39.453125 66.40625 31.78125 66.40625 
z
M 31.78125 74.21875 
Q 44.046875 74.21875 50.515625 64.515625 
Q 56.984375 54.828125 56.984375 36.375 
Q 56.984375 17.96875 50.515625 8.265625 
Q 44.046875 -1.421875 31.78125 -1.421875 
Q 19.53125 -1.421875 13.0625 8.265625 
Q 6.59375 17.96875 6.59375 36.375 
Q 6.59375 54.828125 13.0625 64.515625 
Q 19.53125 74.21875 31.78125 74.21875 
z
" id="DejaVuSans-30"/>
       <path d="M 10.6875 12.40625 
L 21 12.40625 
L 21 0 
L 10.6875 0 
z
" id="DejaVuSans-2e"/>
      </defs>
      <g transform="translate(65.881165 322.182437)scale(0.1 -0.1)">
       <use xlink:href="#DejaVuSans-30"/>
       <use x="63.623047" xlink:href="#DejaVuSans-2e"/>
       <use x="95.410156" xlink:href="#DejaVuSans-30"/>
      </g>
     </g>
    </g>
    <g id="xtick_2">
     <g id="line2d_2">
      <g>
       <use style="stroke:#000000;stroke-width:0.8;" x="138.763636" xlink:href="#md0700ba74e" y="307.584"/>
      </g>
     </g>
     <g id="text_2">
      <!-- 0.2 -->
      <defs>
       <path d="M 19.1875 8.296875 
L 53.609375 8.296875 
L 53.609375 0 
L 7.328125 0 
L 7.328125 8.296875 
Q 12.9375 14.109375 22.625 23.890625 
Q 32.328125 33.6875 34.8125 36.53125 
Q 39.546875 41.84375 41.421875 45.53125 
Q 43.3125 49.21875 43.3125 52.78125 
Q 43.3125 58.59375 39.234375 62.25 
Q 35.15625 65.921875 28.609375 65.921875 
Q 23.96875 65.921875 18.8125 64.3125 
Q 13.671875 62.703125 7.8125 59.421875 
L 7.8125 69.390625 
Q 13.765625 71.78125 18.9375 73 
Q 24.125 74.21875 28.421875 74.21875 
Q 39.75 74.21875 46.484375 68.546875 
Q 53.21875 62.890625 53.21875 53.421875 
Q 53.21875 48.921875 51.53125 44.890625 
Q 49.859375 40.875 45.40625 35.40625 
Q 44.1875 33.984375 37.640625 27.21875 
Q 31.109375 20.453125 19.1875 8.296875 
z
" id="DejaVuSans-32"/>
      </defs>
      <g transform="translate(130.812074 322.182437)scale(0.1 -0.1)">
       <use xlink:href="#DejaVuSans-30"/>
       <use x="63.623047" xlink:href="#DejaVuSans-2e"/>
       <use x="95.410156" xlink:href="#DejaVuSans-32"/>
      </g>
     </g>
    </g>
    <g id="xtick_3">
     <g id="line2d_3">
      <g>
       <use style="stroke:#000000;stroke-width:0.8;" x="203.694545" xlink:href="#md0700ba74e" y="307.584"/>
      </g>
     </g>
     <g id="text_3">
      <!-- 0.4 -->
      <defs>
       <path d="M 37.796875 64.3125 
L 12.890625 25.390625 
L 37.796875 25.390625 
z
M 35.203125 72.90625 
L 47.609375 72.90625 
L 47.609375 25.390625 
L 58.015625 25.390625 
L 58.015625 17.1875 
L 47.609375 17.1875 
L 47.609375 0 
L 37.796875 0 
L 37.796875 17.1875 
L 4.890625 17.1875 
L 4.890625 26.703125 
z
" id="DejaVuSans-34"/>
      </defs>
      <g transform="translate(195.742983 322.182437)scale(0.1 -0.1)">
       <use xlink:href="#DejaVuSans-30"/>
       <use x="63.623047" xlink:href="#DejaVuSans-2e"/>
       <use x="95.410156" xlink:href="#DejaVuSans-34"/>
      </g>
     </g>
    </g>
    <g id="xtick_4">
     <g id="line2d_4">
      <g>
       <use style="stroke:#000000;stroke-width:0.8;" x="268.625455" xlink:href="#md0700ba74e" y="307.584"/>
      </g>
     </g>
     <g id="text_4">
      <!-- 0.6 -->
      <defs>
       <path d="M 33.015625 40.375 
Q 26.375 40.375 22.484375 35.828125 
Q 18.609375 31.296875 18.609375 23.390625 
Q 18.609375 15.53125 22.484375 10.953125 
Q 26.375 6.390625 33.015625 6.390625 
Q 39.65625 6.390625 43.53125 10.953125 
Q 47.40625 15.53125 47.40625 23.390625 
Q 47.40625 31.296875 43.53125 35.828125 
Q 39.65625 40.375 33.015625 40.375 
z
M 52.59375 71.296875 
L 52.59375 62.3125 
Q 48.875 64.0625 45.09375 64.984375 
Q 41.3125 65.921875 37.59375 65.921875 
Q 27.828125 65.921875 22.671875 59.328125 
Q 17.53125 52.734375 16.796875 39.40625 
Q 19.671875 43.65625 24.015625 45.921875 
Q 28.375 48.1875 33.59375 48.1875 
Q 44.578125 48.1875 50.953125 41.515625 
Q 57.328125 34.859375 57.328125 23.390625 
Q 57.328125 12.15625 50.6875 5.359375 
Q 44.046875 -1.421875 33.015625 -1.421875 
Q 20.359375 -1.421875 13.671875 8.265625 
Q 6.984375 17.96875 6.984375 36.375 
Q 6.984375 53.65625 15.1875 63.9375 
Q 23.390625 74.21875 37.203125 74.21875 
Q 40.921875 74.21875 44.703125 73.484375 
Q 48.484375 72.75 52.59375 71.296875 
z
" id="DejaVuSans-36"/>
      </defs>
      <g transform="translate(260.673892 322.182437)scale(0.1 -0.1)">
       <use xlink:href="#DejaVuSans-30"/>
       <use x="63.623047" xlink:href="#DejaVuSans-2e"/>
       <use x="95.410156" xlink:href="#DejaVuSans-36"/>
      </g>
     </g>
    </g>
    <g id="xtick_5">
     <g id="line2d_5">
      <g>
       <use style="stroke:#000000;stroke-width:0.8;" x="333.556364" xlink:href="#md0700ba74e" y="307.584"/>
      </g>
     </g>
     <g id="text_5">
      <!-- 0.8 -->
      <defs>
       <path d="M 31.78125 34.625 
Q 24.75 34.625 20.71875 30.859375 
Q 16.703125 27.09375 16.703125 20.515625 
Q 16.703125 13.921875 20.71875 10.15625 
Q 24.75 6.390625 31.78125 6.390625 
Q 38.8125 6.390625 42.859375 10.171875 
Q 46.921875 13.96875 46.921875 20.515625 
Q 46.921875 27.09375 42.890625 30.859375 
Q 38.875 34.625 31.78125 34.625 
z
M 21.921875 38.8125 
Q 15.578125 40.375 12.03125 44.71875 
Q 8.5 49.078125 8.5 55.328125 
Q 8.5 64.0625 14.71875 69.140625 
Q 20.953125 74.21875 31.78125 74.21875 
Q 42.671875 74.21875 48.875 69.140625 
Q 55.078125 64.0625 55.078125 55.328125 
Q 55.078125 49.078125 51.53125 44.71875 
Q 48 40.375 41.703125 38.8125 
Q 48.828125 37.15625 52.796875 32.3125 
Q 56.78125 27.484375 56.78125 20.515625 
Q 56.78125 9.90625 50.3125 4.234375 
Q 43.84375 -1.421875 31.78125 -1.421875 
Q 19.734375 -1.421875 13.25 4.234375 
Q 6.78125 9.90625 6.78125 20.515625 
Q 6.78125 27.484375 10.78125 32.3125 
Q 14.796875 37.15625 21.921875 38.8125 
z
M 18.3125 54.390625 
Q 18.3125 48.734375 21.84375 45.5625 
Q 25.390625 42.390625 31.78125 42.390625 
Q 38.140625 42.390625 41.71875 45.5625 
Q 45.3125 48.734375 45.3125 54.390625 
Q 45.3125 60.0625 41.71875 63.234375 
Q 38.140625 66.40625 31.78125 66.40625 
Q 25.390625 66.40625 21.84375 63.234375 
Q 18.3125 60.0625 18.3125 54.390625 
z
" id="DejaVuSans-38"/>
      </defs>
      <g transform="translate(325.604801 322.182437)scale(0.1 -0.1)">
       <use xlink:href="#DejaVuSans-30"/>
       <use x="63.623047" xlink:href="#DejaVuSans-2e"/>
       <use x="95.410156" xlink:href="#DejaVuSans-38"/>
      </g>
     </g>
    </g>
    <g id="xtick_6">
     <g id="line2d_6">
      <g>
       <use style="stroke:#000000;stroke-width:0.8;" x="398.487273" xlink:href="#md0700ba74e" y="307.584"/>
      </g>
     </g>
     <g id="text_6">
      <!-- 1.0 -->
      <defs>
       <path d="M 12.40625 8.296875 
L 28.515625 8.296875 
L 28.515625 63.921875 
L 10.984375 60.40625 
L 10.984375 69.390625 
L 28.421875 72.90625 
L 38.28125 72.90625 
L 38.28125 8.296875 
L 54.390625 8.296875 
L 54.390625 0 
L 12.40625 0 
z
" id="DejaVuSans-31"/>
      </defs>
      <g transform="translate(390.53571 322.182437)scale(0.1 -0.1)">
       <use xlink:href="#DejaVuSans-31"/>
       <use x="63.623047" xlink:href="#DejaVuSans-2e"/>
       <use x="95.410156" xlink:href="#DejaVuSans-30"/>
      </g>
     </g>
    </g>
   </g>
   <g id="matplotlib.axis_2">
    <g id="ytick_1">
     <g id="line2d_7">
      <defs>
       <path d="M 0 0 
L -3.5 0 
" id="m2a305d4ebf" style="stroke:#000000;stroke-width:0.8;"/>
      </defs>
      <g>
       <use style="stroke:#000000;stroke-width:0.8;" x="57.6" xlink:href="#m2a305d4ebf" y="295.488"/>
      </g>
     </g>
     <g id="text_7">
      <!-- 0.0 -->
      <g transform="translate(34.696875 299.287219)scale(0.1 -0.1)">
       <use xlink:href="#DejaVuSans-30"/>
       <use x="63.623047" xlink:href="#DejaVuSans-2e"/>
       <use x="95.410156" xlink:href="#DejaVuSans-30"/>
      </g>
     </g>
    </g>
    <g id="ytick_2">
     <g id="line2d_8">
      <g>
       <use style="stroke:#000000;stroke-width:0.8;" x="57.6" xlink:href="#m2a305d4ebf" y="247.104"/>
      </g>
     </g>
     <g id="text_8">
      <!-- 0.2 -->
      <g transform="translate(34.696875 250.903219)scale(0.1 -0.1)">
       <use xlink:href="#DejaVuSans-30"/>
       <use x="63.623047" xlink:href="#DejaVuSans-2e"/>
       <use x="95.410156" xlink:href="#DejaVuSans-32"/>
      </g>
     </g>
    </g>
    <g id="ytick_3">
     <g id="line2d_9">
      <g>
       <use style="stroke:#000000;stroke-width:0.8;" x="57.6" xlink:href="#m2a305d4ebf" y="198.72"/>
      </g>
     </g>
     <g id="text_9">
      <!-- 0.4 -->
      <g transform="translate(34.696875 202.519219)scale(0.1 -0.1)">
       <use xlink:href="#DejaVuSans-30"/>
       <use x="63.623047" xlink:href="#DejaVuSans-2e"/>
       <use x="95.410156" xlink:href="#DejaVuSans-34"/>
      </g>
     </g>
    </g>
    <g id="ytick_4">
     <g id="line2d_10">
      <g>
       <use style="stroke:#000000;stroke-width:0.8;" x="57.6" xlink:href="#m2a305d4ebf" y="150.336"/>
      </g>
     </g>
     <g id="text_10">
      <!-- 0.6 -->
      <g transform="translate(34.696875 154.135219)scale(0.1 -0.1)">
       <use xlink:href="#DejaVuSans-30"/>
       <use x="63.623047" xlink:href="#DejaVuSans-2e"/>
       <use x="95.410156" xlink:href="#DejaVuSans-36"/>
      </g>
     </g>
    </g>
    <g id="ytick_5">
     <g id="line2d_11">
      <g>
       <use style="stroke:#000000;stroke-width:0.8;" x="57.6" xlink:href="#m2a305d4ebf" y="101.952"/>
      </g>
     </g>
     <g id="text_11">
      <!-- 0.8 -->
      <g transform="translate(34.696875 105.751219)scale(0.1 -0.1)">
       <use xlink:href="#DejaVuSans-30"/>
       <use x="63.623047" xlink:href="#DejaVuSans-2e"/>
       <use x="95.410156" xlink:href="#DejaVuSans-38"/>
      </g>
     </g>
    </g>
    <g id="ytick_6">
     <g id="line2d_12">
      <g>
       <use style="stroke:#000000;stroke-width:0.8;" x="57.6" xlink:href="#m2a305d4ebf" y="53.568"/>
      </g>
     </g>
     <g id="text_12">
      <!-- 1.0 -->
      <g transform="translate(34.696875 57.367219)scale(0.1 -0.1)">
       <use xlink:href="#DejaVuSans-31"/>
       <use x="63.623047" xlink:href="#DejaVuSans-2e"/>
       <use x="95.410156" xlink:href="#DejaVuSans-30"/>
      </g>
     </g>
    </g>
   </g>
   <g id="line2d_13">
    <path clip-path="url(#pf6a2cf0fec)" d="M 73.832727 295.488 
L 85.621859 211.018726 
L 86.528715 211.018726 
L 87.435571 210.342972 
L 89.249284 210.342972 
L 89.249284 209.667218 
L 91.062996 209.667218 
L 91.062996 208.991464 
L 91.969853 208.991464 
L 91.969853 206.288447 
L 92.876709 206.288447 
L 92.876709 205.612693 
L 93.783565 205.612693 
L 93.783565 204.261184 
L 94.690422 204.261184 
L 94.690422 201.558168 
L 95.597278 201.558168 
L 95.597278 196.152134 
L 98.317847 196.152134 
L 98.317847 195.47638 
L 99.224703 195.47638 
L 99.224703 192.097609 
L 100.131559 192.097609 
L 100.131559 190.070346 
L 101.038415 190.070346 
L 101.038415 184.664313 
L 101.945272 184.664313 
L 101.945272 183.988559 
L 102.852128 183.988559 
L 102.852128 180.609788 
L 103.758984 180.609788 
L 103.758984 177.231017 
L 105.572697 177.231017 
L 105.572697 175.879508 
L 106.479553 175.879508 
L 106.479553 173.176492 
L 107.386409 173.176492 
L 107.386409 167.094704 
L 108.293266 167.094704 
L 108.293266 165.743196 
L 109.200122 165.743196 
L 109.200122 163.715933 
L 110.106978 163.715933 
L 110.106978 160.337162 
L 111.013834 160.337162 
L 111.013834 158.309899 
L 111.920691 158.309899 
L 111.920691 156.282637 
L 113.734403 156.282637 
L 113.734403 154.931128 
L 114.64126 154.931128 
L 114.64126 151.552358 
L 115.548116 151.552358 
L 115.548116 149.525095 
L 116.454972 149.525095 
L 116.454972 148.173587 
L 117.361828 148.173587 
L 117.361828 144.794816 
L 118.268685 144.794816 
L 118.268685 142.767553 
L 119.175541 142.767553 
L 119.175541 142.091799 
L 120.989253 142.091799 
L 120.989253 138.713028 
L 122.802966 138.713028 
L 122.802966 133.982749 
L 124.616679 133.982749 
L 124.616679 132.63124 
L 128.244104 132.63124 
L 128.244104 130.603978 
L 129.15096 130.603978 
L 129.15096 129.928223 
L 130.057816 129.928223 
L 130.057816 129.252469 
L 130.964672 129.252469 
L 130.964672 127.225207 
L 133.685241 127.225207 
L 133.685241 121.819173 
L 140.033235 121.819173 
L 140.033235 121.143419 
L 140.940091 121.143419 
L 140.940091 119.791911 
L 141.846948 119.791911 
L 141.846948 119.116156 
L 146.381229 119.116156 
L 146.381229 117.764648 
L 150.008654 117.764648 
L 150.008654 115.737385 
L 150.91551 115.737385 
L 150.91551 115.061631 
L 151.822367 115.061631 
L 151.822367 113.710123 
L 156.356648 113.710123 
L 156.356648 113.034369 
L 157.263504 113.034369 
L 157.263504 111.68286 
L 159.077217 111.68286 
L 159.077217 111.007106 
L 159.984073 111.007106 
L 159.984073 109.655598 
L 160.890929 109.655598 
L 160.890929 107.628335 
L 165.425211 107.628335 
L 165.425211 104.925318 
L 168.14578 104.925318 
L 168.14578 103.57381 
L 170.866348 103.57381 
L 170.866348 102.222302 
L 171.773205 102.222302 
L 171.773205 101.546547 
L 176.307486 101.546547 
L 176.307486 100.870793 
L 178.121199 100.870793 
L 178.121199 100.195039 
L 179.934911 100.195039 
L 179.934911 99.519285 
L 181.748624 99.519285 
L 181.748624 98.843531 
L 182.65548 98.843531 
L 182.65548 98.167777 
L 183.562336 98.167777 
L 183.562336 97.492022 
L 184.469192 97.492022 
L 184.469192 96.140514 
L 187.189761 96.140514 
L 187.189761 94.789006 
L 194.444611 94.789006 
L 194.444611 92.761743 
L 195.351468 92.761743 
L 195.351468 92.085989 
L 198.072037 92.085989 
L 198.072037 91.410235 
L 198.978893 91.410235 
L 198.978893 90.73448 
L 199.885749 90.73448 
L 199.885749 90.058726 
L 201.699462 90.058726 
L 201.699462 88.707218 
L 202.606318 88.707218 
L 202.606318 88.031464 
L 207.140599 88.031464 
L 207.140599 87.355709 
L 210.768024 87.355709 
L 210.768024 86.679955 
L 211.674881 86.679955 
L 211.674881 86.004201 
L 213.488593 86.004201 
L 213.488593 85.328447 
L 214.395449 85.328447 
L 214.395449 83.976939 
L 217.116018 83.976939 
L 217.116018 82.62543 
L 218.929731 82.62543 
L 218.929731 81.949676 
L 226.184581 81.949676 
L 226.184581 80.598168 
L 234.346287 80.598168 
L 234.346287 79.922413 
L 237.066856 79.922413 
L 237.066856 79.246659 
L 239.787425 79.246659 
L 239.787425 78.570905 
L 241.601138 78.570905 
L 241.601138 77.895151 
L 244.321706 77.895151 
L 244.321706 77.219397 
L 245.228563 77.219397 
L 245.228563 75.867888 
L 247.949132 75.867888 
L 247.949132 75.192134 
L 248.855988 75.192134 
L 248.855988 73.840626 
L 249.762844 73.840626 
L 249.762844 73.164872 
L 250.6697 73.164872 
L 250.6697 71.813363 
L 254.297125 71.813363 
L 254.297125 71.137609 
L 260.645119 71.137609 
L 260.645119 70.461855 
L 263.365688 70.461855 
L 263.365688 69.110346 
L 265.179401 69.110346 
L 265.179401 68.434592 
L 271.527395 68.434592 
L 271.527395 67.758838 
L 286.037095 67.758838 
L 286.037095 67.083084 
L 286.943951 67.083084 
L 286.943951 66.40733 
L 290.571376 66.40733 
L 290.571376 65.731575 
L 294.198801 65.731575 
L 294.198801 63.704313 
L 298.733083 63.704313 
L 298.733083 63.028559 
L 303.267364 63.028559 
L 303.267364 62.352804 
L 305.987933 62.352804 
L 305.987933 61.67705 
L 309.615358 61.67705 
L 309.615358 61.001296 
L 323.218202 61.001296 
L 323.218202 60.325542 
L 337.727902 60.325542 
L 337.727902 59.649788 
L 338.634759 59.649788 
L 338.634759 58.974034 
L 346.796465 58.974034 
L 346.796465 58.298279 
L 351.330747 58.298279 
L 351.330747 57.622525 
L 357.67874 57.622525 
L 357.67874 56.946771 
L 364.933591 56.946771 
L 364.933591 56.271017 
L 376.722722 56.271017 
L 376.722722 55.595263 
L 386.698141 55.595263 
L 386.698141 54.919508 
L 393.046135 54.919508 
L 398.487273 53.568 
L 398.487273 53.568 
" style="fill:none;stroke:#1f77b4;stroke-linecap:square;stroke-width:2;"/>
   </g>
   <g id="line2d_14">
    <path clip-path="url(#pf6a2cf0fec)" d="M 73.832727 295.488 
L 398.487273 53.568 
" style="fill:none;stroke:#000000;stroke-dasharray:5.55,2.4;stroke-dashoffset:0;stroke-width:1.5;"/>
   </g>
   <g id="line2d_15">
    <path clip-path="url(#pf6a2cf0fec)" d="M 73.832727 295.488 
L 73.832727 279.269899 
L 74.739584 279.269899 
L 74.739584 275.891128 
L 75.64644 275.891128 
L 75.64644 268.457832 
L 76.553296 268.457832 
L 76.553296 252.239732 
L 77.460152 252.239732 
L 77.460152 250.888223 
L 78.367009 250.888223 
L 78.367009 221.155039 
L 79.273865 221.155039 
L 79.273865 214.397497 
L 80.180721 214.397497 
L 80.180721 206.288447 
L 81.087577 206.288447 
L 81.087577 204.936939 
L 81.994434 204.936939 
L 81.994434 203.58543 
L 82.90129 203.58543 
L 82.90129 195.47638 
L 83.808146 195.47638 
L 83.808146 171.149229 
L 84.715003 171.149229 
L 84.715003 167.094704 
L 85.621859 167.094704 
L 85.621859 166.41895 
L 86.528715 166.41895 
L 86.528715 157.634145 
L 87.435571 157.634145 
L 87.435571 148.173587 
L 88.342428 148.173587 
L 88.342428 144.119061 
L 89.249284 144.119061 
L 89.249284 141.416045 
L 90.15614 141.416045 
L 90.15614 138.037274 
L 91.062996 138.037274 
L 91.062996 131.955486 
L 91.969853 131.955486 
L 91.969853 124.52219 
L 92.876709 124.52219 
L 92.876709 123.846436 
L 93.783565 123.846436 
L 93.783565 119.791911 
L 94.690422 119.791911 
L 94.690422 118.440402 
L 95.597278 118.440402 
L 95.597278 117.088894 
L 98.317847 117.088894 
L 98.317847 116.41314 
L 100.131559 116.41314 
L 100.131559 114.385877 
L 101.945272 114.385877 
L 101.945272 113.034369 
L 102.852128 113.034369 
L 102.852128 108.304089 
L 104.665841 108.304089 
L 104.665841 97.492022 
L 106.479553 97.492022 
L 106.479553 96.140514 
L 107.386409 96.140514 
L 107.386409 90.058726 
L 109.200122 90.058726 
L 109.200122 88.707218 
L 111.013834 88.707218 
L 111.013834 88.031464 
L 111.920691 88.031464 
L 111.920691 86.004201 
L 112.827547 86.004201 
L 112.827547 85.328447 
L 114.64126 85.328447 
L 114.64126 84.652693 
L 117.361828 84.652693 
L 117.361828 83.301184 
L 120.989253 83.301184 
L 120.989253 82.62543 
L 121.89611 82.62543 
L 121.89611 81.273922 
L 122.802966 81.273922 
L 122.802966 79.922413 
L 123.709822 79.922413 
L 123.709822 78.570905 
L 125.523535 78.570905 
L 125.523535 75.192134 
L 127.337247 75.192134 
L 127.337247 74.51638 
L 130.964672 74.51638 
L 130.964672 73.164872 
L 133.685241 73.164872 
L 133.685241 71.813363 
L 135.498954 71.813363 
L 135.498954 71.137609 
L 136.40581 71.137609 
L 136.40581 70.461855 
L 138.219523 70.461855 
L 138.219523 69.110346 
L 139.126379 69.110346 
L 139.126379 68.434592 
L 140.033235 68.434592 
L 140.033235 67.758838 
L 144.567517 67.758838 
L 144.567517 67.083084 
L 147.288085 67.083084 
L 147.288085 66.40733 
L 150.008654 66.40733 
L 150.008654 65.731575 
L 172.680061 65.731575 
L 172.680061 65.055821 
L 176.307486 65.055821 
L 176.307486 64.380067 
L 177.214342 64.380067 
L 177.214342 63.704313 
L 188.096618 63.704313 
L 188.096618 63.028559 
L 190.817186 63.028559 
L 190.817186 61.67705 
L 224.370868 61.67705 
L 224.370868 61.001296 
L 225.277725 61.001296 
L 225.277725 60.325542 
L 229.812006 60.325542 
L 229.812006 59.649788 
L 230.718862 59.649788 
L 230.718862 58.974034 
L 234.346287 58.974034 
L 234.346287 58.298279 
L 254.297125 58.298279 
L 254.297125 57.622525 
L 270.620538 57.622525 
L 270.620538 56.946771 
L 287.850808 56.946771 
L 287.850808 56.271017 
L 335.91419 56.271017 
L 335.91419 55.595263 
L 350.42389 55.595263 
L 350.42389 54.919508 
L 353.144459 54.919508 
L 353.144459 54.243754 
L 384.884429 54.243754 
L 384.884429 53.568 
L 398.487273 53.568 
L 398.487273 53.568 
" style="fill:none;stroke:#ff7f0e;stroke-linecap:square;stroke-width:2;"/>
   </g>
   <g id="line2d_16">
    <path clip-path="url(#pf6a2cf0fec)" d="M 73.832727 295.488 
L 398.487273 53.568 
" style="fill:none;stroke:#000000;stroke-dasharray:5.55,2.4;stroke-dashoffset:0;stroke-width:1.5;"/>
   </g>
   <g id="line2d_17">
    <path clip-path="url(#pf6a2cf0fec)" d="M 73.832727 295.488 
L 73.832727 294.812246 
L 73.832727 282.64867 
L 74.739584 282.64867 
L 74.739584 222.506547 
L 74.739584 221.155039 
L 74.739584 192.097609 
L 75.64644 192.097609 
L 75.64644 180.609788 
L 76.553296 180.609788 
L 76.553296 165.743196 
L 77.460152 165.743196 
L 77.460152 133.982749 
L 78.367009 133.982749 
L 78.367009 127.900961 
L 79.273865 127.900961 
L 79.273865 127.225207 
L 80.180721 127.225207 
L 80.180721 125.873698 
L 81.087577 125.873698 
L 81.087577 121.143419 
L 81.994434 121.143419 
L 81.994434 102.222302 
L 82.90129 102.222302 
L 82.90129 98.167777 
L 82.90129 96.816268 
L 82.90129 95.46476 
L 83.808146 95.46476 
L 83.808146 92.085989 
L 84.715003 92.085989 
L 84.715003 91.410235 
L 86.528715 91.410235 
L 86.528715 89.382972 
L 87.435571 89.382972 
L 87.435571 88.031464 
L 88.342428 88.031464 
L 88.342428 87.355709 
L 89.249284 87.355709 
L 89.249284 83.301184 
L 90.15614 83.301184 
L 90.15614 81.273922 
L 91.062996 81.273922 
L 91.062996 80.598168 
L 94.690422 80.598168 
L 94.690422 78.570905 
L 95.597278 78.570905 
L 95.597278 77.895151 
L 96.504134 77.895151 
L 96.504134 75.192134 
L 100.131559 75.192134 
L 100.131559 74.51638 
L 101.945272 74.51638 
L 101.945272 73.840626 
L 102.852128 73.840626 
L 102.852128 70.461855 
L 103.758984 70.461855 
L 103.758984 69.786101 
L 106.479553 69.786101 
L 106.479553 69.110346 
L 107.386409 69.110346 
L 107.386409 68.434592 
L 109.200122 68.434592 
L 109.200122 67.758838 
L 124.616679 67.758838 
L 124.616679 67.083084 
L 125.523535 67.083084 
L 125.523535 66.40733 
L 132.778385 66.40733 
L 132.778385 65.055821 
L 134.592098 65.055821 
L 134.592098 64.380067 
L 143.66066 64.380067 
L 143.66066 63.028559 
L 162.704642 63.028559 
L 162.704642 62.352804 
L 187.189761 62.352804 
L 187.189761 61.67705 
L 188.096618 61.67705 
L 188.096618 61.001296 
L 189.91033 61.001296 
L 189.91033 60.325542 
L 198.978893 60.325542 
L 198.978893 59.649788 
L 211.674881 59.649788 
L 213.488593 59.649788 
L 215.302306 59.649788 
L 215.302306 58.974034 
L 233.439431 58.974034 
L 235.253144 58.974034 
L 253.390269 58.974034 
L 253.390269 58.298279 
L 256.110838 58.298279 
L 256.110838 56.946771 
L 261.551976 56.946771 
L 261.551976 56.271017 
L 276.061676 56.271017 
L 276.061676 55.595263 
L 301.453652 55.595263 
L 303.267364 55.595263 
L 308.708502 55.595263 
L 310.522214 55.595263 
L 323.218202 55.595263 
L 323.218202 54.919508 
L 349.517034 54.919508 
L 349.517034 54.243754 
L 393.952991 54.243754 
L 393.952991 53.568 
L 398.487273 53.568 
" style="fill:none;stroke:#2ca02c;stroke-linecap:square;stroke-width:2;"/>
   </g>
   <g id="line2d_18">
    <path clip-path="url(#pf6a2cf0fec)" d="M 73.832727 295.488 
L 398.487273 53.568 
" style="fill:none;stroke:#000000;stroke-dasharray:5.55,2.4;stroke-dashoffset:0;stroke-width:1.5;"/>
   </g>
   <g id="line2d_19">
    <path clip-path="url(#pf6a2cf0fec)" d="M 73.832727 295.488 
L 79.273865 236.697385 
L 91.969853 177.906771 
L 111.920691 120.467665 
L 149.101798 91.410235 
L 259.738263 64.380067 
L 398.487273 53.568 
" style="fill:none;stroke:#d62728;stroke-linecap:square;stroke-width:2;"/>
   </g>
   <g id="line2d_20">
    <path clip-path="url(#pf6a2cf0fec)" d="M 73.832727 295.488 
L 398.487273 53.568 
" style="fill:none;stroke:#000000;stroke-dasharray:5.55,2.4;stroke-dashoffset:0;stroke-width:1.5;"/>
   </g>
   <g id="line2d_21">
    <path clip-path="url(#pf6a2cf0fec)" d="M 73.832727 295.488 
L 73.832727 294.812246 
L 73.832727 198.179397 
L 74.739584 198.179397 
L 74.739584 152.903866 
L 75.64644 152.903866 
L 75.64644 152.228112 
L 76.553296 152.228112 
L 76.553296 138.713028 
L 77.460152 138.713028 
L 77.460152 120.467665 
L 80.180721 120.467665 
L 80.180721 119.116156 
L 81.087577 119.116156 
L 81.087577 111.68286 
L 81.994434 111.68286 
L 81.994434 108.979844 
L 82.90129 108.979844 
L 82.90129 102.222302 
L 84.715003 102.222302 
L 84.715003 100.870793 
L 86.528715 100.870793 
L 86.528715 97.492022 
L 89.249284 97.492022 
L 89.249284 96.816268 
L 90.15614 96.816268 
L 90.15614 92.761743 
L 91.062996 92.761743 
L 91.062996 92.085989 
L 91.969853 92.085989 
L 91.969853 90.058726 
L 92.876709 90.058726 
L 92.876709 85.328447 
L 93.783565 85.328447 
L 93.783565 84.652693 
L 94.690422 84.652693 
L 94.690422 81.273922 
L 95.597278 81.273922 
L 95.597278 80.598168 
L 97.41099 80.598168 
L 97.41099 79.246659 
L 98.317847 79.246659 
L 98.317847 78.570905 
L 100.131559 78.570905 
L 100.131559 77.895151 
L 103.758984 77.895151 
L 103.758984 72.489117 
L 105.572697 72.489117 
L 105.572697 71.813363 
L 106.479553 71.813363 
L 106.479553 69.786101 
L 109.200122 69.786101 
L 109.200122 68.434592 
L 115.548116 68.434592 
L 115.548116 67.758838 
L 118.268685 67.758838 
L 118.268685 67.083084 
L 123.709822 67.083084 
L 123.709822 66.40733 
L 125.523535 66.40733 
L 125.523535 65.731575 
L 127.337247 65.731575 
L 127.337247 65.055821 
L 133.685241 65.055821 
L 133.685241 63.704313 
L 134.592098 63.704313 
L 134.592098 63.028559 
L 138.219523 63.028559 
L 138.219523 62.352804 
L 140.940091 62.352804 
L 140.940091 61.67705 
L 143.66066 61.67705 
L 143.66066 60.325542 
L 179.934911 60.325542 
L 179.934911 59.649788 
L 182.65548 59.649788 
L 182.65548 58.974034 
L 190.817186 58.974034 
L 190.817186 58.298279 
L 209.861168 58.298279 
L 209.861168 57.622525 
L 224.370868 57.622525 
L 224.370868 56.946771 
L 235.253144 56.946771 
L 235.253144 56.271017 
L 249.762844 56.271017 
L 249.762844 55.595263 
L 269.713682 55.595263 
L 269.713682 54.919508 
L 291.478233 54.919508 
L 291.478233 54.243754 
L 293.291945 54.243754 
L 293.291945 53.568 
L 398.487273 53.568 
" style="fill:none;stroke:#9467bd;stroke-linecap:square;stroke-width:2;"/>
   </g>
   <g id="line2d_22">
    <path clip-path="url(#pf6a2cf0fec)" d="M 73.832727 295.488 
L 398.487273 53.568 
" style="fill:none;stroke:#000000;stroke-dasharray:5.55,2.4;stroke-dashoffset:0;stroke-width:1.5;"/>
   </g>
   <g id="line2d_23">
    <path clip-path="url(#pf6a2cf0fec)" d="M 73.832727 295.488 
L 73.832727 294.812246 
L 73.832727 292.784983 
L 73.832727 290.081966 
L 73.832727 289.406212 
L 73.832727 282.64867 
L 74.739584 279.269899 
L 74.739584 271.160849 
L 74.739584 265.079061 
L 76.553296 259.673028 
L 77.460152 251.563978 
L 77.460152 242.779173 
L 77.460152 236.021631 
L 77.460152 225.209564 
L 77.460152 219.127777 
L 78.367009 214.397497 
L 78.367009 207.639955 
L 79.273865 200.206659 
L 79.273865 192.773363 
L 79.273865 190.070346 
L 79.273865 184.664313 
L 79.273865 179.934034 
L 80.180721 173.176492 
L 81.994434 167.770458 
L 81.994434 160.337162 
L 82.90129 152.228112 
L 82.90129 145.47057 
L 84.715003 142.091799 
L 86.528715 136.685765 
L 86.528715 131.955486 
L 87.435571 127.900961 
L 89.249284 124.52219 
L 89.249284 118.440402 
L 90.15614 112.358615 
L 91.062996 109.655598 
L 92.876709 104.925318 
L 94.690422 102.898056 
L 95.597278 100.195039 
L 97.41099 98.843531 
L 98.317847 96.816268 
L 98.317847 92.761743 
L 98.317847 91.410235 
L 99.224703 90.058726 
L 100.131559 89.382972 
L 101.038415 88.031464 
L 102.852128 86.679955 
L 105.572697 84.652693 
L 106.479553 80.598168 
L 106.479553 78.570905 
L 109.200122 77.219397 
L 109.200122 75.867888 
L 110.106978 75.192134 
L 115.548116 71.137609 
L 119.175541 71.137609 
L 128.244104 70.461855 
L 131.871529 70.461855 
L 134.592098 69.786101 
L 136.40581 68.434592 
L 140.033235 67.758838 
L 143.66066 65.731575 
L 147.288085 65.731575 
L 150.91551 65.055821 
L 152.729223 64.380067 
L 155.449792 63.704313 
L 159.077217 62.352804 
L 164.518354 62.352804 
L 170.866348 61.67705 
L 174.493773 61.67705 
L 179.934911 61.001296 
L 183.562336 61.001296 
L 189.91033 61.001296 
L 195.351468 61.001296 
L 202.606318 61.001296 
L 203.513174 60.325542 
L 209.861168 59.649788 
L 217.116018 58.974034 
L 225.277725 58.298279 
L 235.253144 57.622525 
L 243.41485 57.622525 
L 247.042275 56.946771 
L 252.483413 56.946771 
L 255.203982 56.271017 
L 266.086257 54.919508 
L 272.434251 54.919508 
L 276.968532 54.919508 
L 288.757664 54.919508 
L 297.826227 54.919508 
L 311.429071 54.919508 
L 316.870208 54.243754 
L 326.845627 54.243754 
L 334.100477 54.243754 
L 342.262184 54.243754 
L 355.865028 53.568 
L 365.840447 53.568 
L 376.722722 53.568 
L 398.487273 53.568 
" style="fill:none;stroke:#8c564b;stroke-linecap:square;stroke-width:2;"/>
   </g>
   <g id="line2d_24">
    <path clip-path="url(#pf6a2cf0fec)" d="M 73.832727 295.488 
L 398.487273 53.568 
" style="fill:none;stroke:#000000;stroke-dasharray:5.55,2.4;stroke-dashoffset:0;stroke-width:1.5;"/>
   </g>
   <g id="line2d_25">
    <path clip-path="url(#pf6a2cf0fec)" d="M 73.832727 295.488 
L 119.175541 90.058726 
L 398.487273 53.568 
" style="fill:none;stroke:#e377c2;stroke-linecap:square;stroke-width:2;"/>
   </g>
   <g id="line2d_26">
    <path clip-path="url(#pf6a2cf0fec)" d="M 73.832727 295.488 
L 398.487273 53.568 
" style="fill:none;stroke:#000000;stroke-dasharray:5.55,2.4;stroke-dashoffset:0;stroke-width:1.5;"/>
   </g>
   <g id="line2d_27">
    <path clip-path="url(#pf6a2cf0fec)" d="M 73.832727 295.488 
L 73.832727 294.812246 
L 73.832727 294.136492 
L 73.832727 290.081966 
L 73.832727 280.621408 
L 73.832727 274.53962 
L 73.832727 262.376045 
L 73.832727 250.888223 
L 75.64644 236.021631 
L 76.553296 225.209564 
L 76.553296 216.42476 
L 76.553296 209.667218 
L 76.553296 205.612693 
L 76.553296 197.503642 
L 77.460152 188.718838 
L 79.273865 179.258279 
L 80.180721 173.176492 
L 80.180721 169.121966 
L 80.180721 163.040179 
L 80.180721 160.337162 
L 81.087577 158.309899 
L 81.994434 154.931128 
L 82.90129 152.228112 
L 84.715003 146.822078 
L 84.715003 143.443307 
L 84.715003 141.416045 
L 85.621859 134.658503 
L 86.528715 128.576715 
L 87.435571 124.52219 
L 87.435571 121.143419 
L 88.342428 118.440402 
L 88.342428 113.710123 
L 90.15614 111.007106 
L 92.876709 104.925318 
L 94.690422 98.843531 
L 94.690422 96.140514 
L 94.690422 92.761743 
L 96.504134 90.058726 
L 96.504134 86.679955 
L 98.317847 81.949676 
L 101.945272 81.273922 
L 103.758984 79.246659 
L 107.386409 77.895151 
L 108.293266 75.867888 
L 110.106978 73.840626 
L 111.920691 73.164872 
L 112.827547 71.813363 
L 113.734403 71.813363 
L 116.454972 70.461855 
L 118.268685 69.786101 
L 121.89611 69.786101 
L 122.802966 69.786101 
L 125.523535 69.110346 
L 126.430391 69.110346 
L 130.057816 67.083084 
L 132.778385 67.083084 
L 137.312666 66.40733 
L 140.940091 65.055821 
L 141.846948 65.055821 
L 144.567517 65.055821 
L 145.474373 65.055821 
L 147.288085 64.380067 
L 149.101798 64.380067 
L 152.729223 63.704313 
L 156.356648 63.704313 
L 158.170361 63.704313 
L 169.052636 62.352804 
L 172.680061 60.325542 
L 179.028055 58.974034 
L 186.282905 58.298279 
L 188.096618 57.622525 
L 195.351468 57.622525 
L 208.954312 57.622525 
L 214.395449 57.622525 
L 225.277725 57.622525 
L 237.973713 57.622525 
L 250.6697 56.946771 
L 256.110838 56.946771 
L 263.365688 55.595263 
L 276.061676 55.595263 
L 283.316526 54.919508 
L 294.198801 54.919508 
L 301.453652 54.919508 
L 307.801646 54.243754 
L 322.311346 54.243754 
L 333.193621 54.243754 
L 362.213022 54.243754 
L 378.536435 53.568 
L 393.952991 53.568 
L 398.487273 53.568 
" style="fill:none;stroke:#7f7f7f;stroke-linecap:square;stroke-width:2;"/>
   </g>
   <g id="line2d_28">
    <path clip-path="url(#pf6a2cf0fec)" d="M 73.832727 295.488 
L 398.487273 53.568 
" style="fill:none;stroke:#000000;stroke-dasharray:5.55,2.4;stroke-dashoffset:0;stroke-width:1.5;"/>
   </g>
   <g id="line2d_29">
    <path clip-path="url(#pf6a2cf0fec)" d="M 73.832727 295.488 
L 73.832727 287.37895 
L 74.739584 287.37895 
L 74.739584 272.512358 
L 75.64644 272.512358 
L 75.64644 254.266994 
L 76.553296 254.266994 
L 76.553296 251.563978 
L 77.460152 251.563978 
L 77.460152 248.860961 
L 78.367009 248.860961 
L 78.367009 233.994369 
L 79.273865 233.994369 
L 79.273865 220.479285 
L 80.180721 220.479285 
L 80.180721 212.370235 
L 81.087577 212.370235 
L 81.087577 211.018726 
L 81.994434 211.018726 
L 81.994434 206.964201 
L 82.90129 206.964201 
L 82.90129 205.612693 
L 83.808146 205.612693 
L 83.808146 198.855151 
L 85.621859 198.855151 
L 85.621859 183.988559 
L 86.528715 183.988559 
L 86.528715 156.958391 
L 87.435571 156.958391 
L 87.435571 151.552358 
L 88.342428 151.552358 
L 88.342428 146.822078 
L 90.15614 146.822078 
L 90.15614 144.794816 
L 91.062996 144.794816 
L 91.062996 136.685765 
L 91.969853 136.685765 
L 91.969853 136.010011 
L 93.783565 136.010011 
L 93.783565 133.982749 
L 94.690422 133.982749 
L 94.690422 133.306994 
L 96.504134 133.306994 
L 96.504134 129.928223 
L 97.41099 129.928223 
L 97.41099 125.873698 
L 100.131559 125.873698 
L 100.131559 121.819173 
L 101.945272 121.819173 
L 101.945272 118.440402 
L 102.852128 118.440402 
L 102.852128 115.737385 
L 103.758984 115.737385 
L 103.758984 107.628335 
L 104.665841 107.628335 
L 104.665841 106.952581 
L 106.479553 106.952581 
L 106.479553 106.276827 
L 107.386409 106.276827 
L 107.386409 104.925318 
L 108.293266 104.925318 
L 108.293266 104.249564 
L 109.200122 104.249564 
L 109.200122 97.492022 
L 110.106978 97.492022 
L 110.106978 95.46476 
L 111.013834 95.46476 
L 111.013834 94.789006 
L 111.920691 94.789006 
L 111.920691 92.085989 
L 113.734403 92.085989 
L 113.734403 91.410235 
L 114.64126 91.410235 
L 114.64126 90.73448 
L 115.548116 90.73448 
L 115.548116 90.058726 
L 118.268685 90.058726 
L 118.268685 89.382972 
L 119.175541 89.382972 
L 119.175541 86.679955 
L 121.89611 86.679955 
L 121.89611 84.652693 
L 130.057816 84.652693 
L 130.057816 83.976939 
L 130.964672 83.976939 
L 130.964672 83.301184 
L 132.778385 83.301184 
L 132.778385 82.62543 
L 134.592098 82.62543 
L 134.592098 81.273922 
L 135.498954 81.273922 
L 135.498954 80.598168 
L 136.40581 80.598168 
L 136.40581 79.246659 
L 140.033235 79.246659 
L 140.033235 78.570905 
L 140.940091 78.570905 
L 140.940091 77.895151 
L 144.567517 77.895151 
L 144.567517 77.219397 
L 150.008654 77.219397 
L 150.008654 76.543642 
L 150.91551 76.543642 
L 150.91551 75.192134 
L 154.542936 75.192134 
L 154.542936 73.840626 
L 155.449792 73.840626 
L 155.449792 73.164872 
L 166.332067 73.164872 
L 166.332067 72.489117 
L 168.14578 72.489117 
L 168.14578 71.813363 
L 169.052636 71.813363 
L 169.052636 71.137609 
L 175.40063 71.137609 
L 175.40063 70.461855 
L 179.934911 70.461855 
L 179.934911 69.786101 
L 183.562336 69.786101 
L 183.562336 69.110346 
L 187.189761 69.110346 
L 187.189761 67.758838 
L 198.072037 67.758838 
L 198.072037 67.083084 
L 214.395449 67.083084 
L 214.395449 65.731575 
L 217.116018 65.731575 
L 217.116018 65.055821 
L 219.836587 65.055821 
L 219.836587 64.380067 
L 223.464012 64.380067 
L 223.464012 63.704313 
L 229.812006 63.704313 
L 229.812006 63.028559 
L 232.532575 63.028559 
L 232.532575 61.67705 
L 266.086257 61.67705 
L 266.086257 60.325542 
L 270.620538 60.325542 
L 270.620538 59.649788 
L 272.434251 59.649788 
L 272.434251 58.974034 
L 275.15482 58.974034 
L 275.15482 58.298279 
L 282.40967 58.298279 
L 282.40967 57.622525 
L 286.943951 57.622525 
L 286.943951 56.271017 
L 293.291945 56.271017 
L 293.291945 55.595263 
L 315.963352 55.595263 
L 315.963352 54.919508 
L 321.40449 54.919508 
L 321.40449 54.243754 
L 398.487273 54.243754 
L 398.487273 53.568 
L 398.487273 53.568 
" style="fill:none;stroke:#bcbd22;stroke-linecap:square;stroke-width:2;"/>
   </g>
   <g id="line2d_30">
    <path clip-path="url(#pf6a2cf0fec)" d="M 73.832727 295.488 
L 398.487273 53.568 
" style="fill:none;stroke:#000000;stroke-dasharray:5.55,2.4;stroke-dashoffset:0;stroke-width:1.5;"/>
   </g>
   <g id="line2d_31">
    <path clip-path="url(#pf6a2cf0fec)" d="M 73.832727 295.488 
L 106.479553 163.715933 
L 108.293266 163.715933 
L 108.293266 163.040179 
L 109.200122 163.040179 
L 109.200122 160.337162 
L 111.013834 160.337162 
L 111.013834 159.661408 
L 112.827547 159.661408 
L 112.827547 158.985654 
L 114.64126 158.985654 
L 114.64126 155.606883 
L 115.548116 155.606883 
L 115.548116 148.173587 
L 116.454972 148.173587 
L 116.454972 146.146324 
L 117.361828 146.146324 
L 117.361828 145.47057 
L 121.89611 145.47057 
L 121.89611 144.119061 
L 122.802966 144.119061 
L 122.802966 142.767553 
L 123.709822 142.767553 
L 123.709822 142.091799 
L 127.337247 142.091799 
L 127.337247 140.740291 
L 128.244104 140.740291 
L 128.244104 139.388782 
L 130.057816 139.388782 
L 130.057816 138.713028 
L 135.498954 138.713028 
L 135.498954 138.037274 
L 137.312666 138.037274 
L 137.312666 136.685765 
L 138.219523 136.685765 
L 138.219523 135.334257 
L 139.126379 135.334257 
L 139.126379 132.63124 
L 140.033235 132.63124 
L 140.033235 131.955486 
L 140.940091 131.955486 
L 140.940091 130.603978 
L 143.66066 130.603978 
L 143.66066 129.928223 
L 144.567517 129.928223 
L 144.567517 127.900961 
L 145.474373 127.900961 
L 145.474373 127.225207 
L 147.288085 127.225207 
L 147.288085 126.549453 
L 148.194942 126.549453 
L 148.194942 125.197944 
L 149.101798 125.197944 
L 149.101798 121.819173 
L 150.008654 121.819173 
L 150.008654 121.143419 
L 150.91551 121.143419 
L 150.91551 119.791911 
L 152.729223 119.791911 
L 152.729223 119.116156 
L 155.449792 119.116156 
L 155.449792 118.440402 
L 158.170361 118.440402 
L 158.170361 115.061631 
L 161.797786 115.061631 
L 161.797786 113.710123 
L 162.704642 113.710123 
L 162.704642 113.034369 
L 165.425211 113.034369 
L 165.425211 112.358615 
L 166.332067 112.358615 
L 166.332067 109.655598 
L 168.14578 109.655598 
L 168.14578 108.304089 
L 169.052636 108.304089 
L 169.052636 107.628335 
L 169.959492 107.628335 
L 169.959492 106.276827 
L 170.866348 106.276827 
L 170.866348 104.925318 
L 171.773205 104.925318 
L 171.773205 104.249564 
L 172.680061 104.249564 
L 172.680061 102.898056 
L 174.493773 102.898056 
L 174.493773 100.870793 
L 175.40063 100.870793 
L 175.40063 98.843531 
L 179.028055 98.843531 
L 179.028055 97.492022 
L 181.748624 97.492022 
L 181.748624 96.140514 
L 185.376049 96.140514 
L 185.376049 94.789006 
L 191.724043 94.789006 
L 191.724043 94.113251 
L 194.444611 94.113251 
L 194.444611 92.761743 
L 195.351468 92.761743 
L 195.351468 92.085989 
L 197.16518 92.085989 
L 197.16518 90.058726 
L 198.978893 90.058726 
L 198.978893 88.707218 
L 199.885749 88.707218 
L 199.885749 87.355709 
L 203.513174 87.355709 
L 203.513174 86.679955 
L 204.42003 86.679955 
L 204.42003 86.004201 
L 211.674881 86.004201 
L 211.674881 83.976939 
L 217.116018 83.976939 
L 217.116018 82.62543 
L 223.464012 82.62543 
L 223.464012 81.949676 
L 229.812006 81.949676 
L 229.812006 80.598168 
L 230.718862 80.598168 
L 230.718862 79.922413 
L 231.625719 79.922413 
L 231.625719 78.570905 
L 234.346287 78.570905 
L 234.346287 77.219397 
L 239.787425 77.219397 
L 239.787425 76.543642 
L 240.694281 76.543642 
L 240.694281 75.867888 
L 244.321706 75.867888 
L 244.321706 75.192134 
L 248.855988 75.192134 
L 248.855988 74.51638 
L 251.576557 74.51638 
L 251.576557 73.840626 
L 254.297125 73.840626 
L 254.297125 73.164872 
L 259.738263 73.164872 
L 259.738263 72.489117 
L 260.645119 72.489117 
L 260.645119 71.813363 
L 263.365688 71.813363 
L 263.365688 71.137609 
L 274.247963 71.137609 
L 274.247963 70.461855 
L 275.15482 70.461855 
L 275.15482 69.786101 
L 276.061676 69.786101 
L 276.061676 69.110346 
L 284.223382 69.110346 
L 284.223382 67.083084 
L 288.757664 67.083084 
L 288.757664 66.40733 
L 301.453652 66.40733 
L 301.453652 65.731575 
L 302.360508 65.731575 
L 302.360508 65.055821 
L 305.987933 65.055821 
L 305.987933 64.380067 
L 321.40449 64.380067 
L 321.40449 63.704313 
L 325.031915 63.704313 
L 325.031915 63.028559 
L 329.566196 63.028559 
L 329.566196 62.352804 
L 343.16904 62.352804 
L 343.16904 61.67705 
L 344.075896 61.67705 
L 344.075896 61.001296 
L 344.982753 61.001296 
L 344.982753 59.649788 
L 348.610178 59.649788 
L 348.610178 58.974034 
L 349.517034 58.974034 
L 349.517034 58.298279 
L 351.330747 58.298279 
L 351.330747 57.622525 
L 354.958172 57.622525 
L 354.958172 56.946771 
L 355.865028 56.946771 
L 355.865028 56.271017 
L 360.399309 56.271017 
L 360.399309 55.595263 
L 364.933591 55.595263 
L 364.933591 54.919508 
L 365.840447 54.919508 
L 365.840447 54.243754 
L 369.467872 54.243754 
L 369.467872 53.568 
L 398.487273 53.568 
L 398.487273 53.568 
" style="fill:none;stroke:#17becf;stroke-linecap:square;stroke-width:2;"/>
   </g>
   <g id="line2d_32">
    <path clip-path="url(#pf6a2cf0fec)" d="M 73.832727 295.488 
L 398.487273 53.568 
" style="fill:none;stroke:#000000;stroke-dasharray:5.55,2.4;stroke-dashoffset:0;stroke-width:1.5;"/>
   </g>
   <g id="line2d_33">
    <path clip-path="url(#pf6a2cf0fec)" d="M 73.832727 295.488 
L 73.832727 255.618503 
L 74.739584 255.618503 
L 74.739584 251.563978 
L 75.64644 251.563978 
L 75.64644 238.048894 
L 76.553296 238.048894 
L 76.553296 237.37314 
L 77.460152 237.37314 
L 77.460152 234.670123 
L 78.367009 234.670123 
L 78.367009 219.803531 
L 79.273865 219.803531 
L 79.273865 212.370235 
L 80.180721 212.370235 
L 80.180721 208.991464 
L 81.087577 208.991464 
L 81.087577 201.558168 
L 81.994434 201.558168 
L 81.994434 188.043084 
L 82.90129 188.043084 
L 82.90129 186.691575 
L 84.715003 186.691575 
L 84.715003 178.582525 
L 85.621859 178.582525 
L 85.621859 177.906771 
L 86.528715 177.906771 
L 86.528715 161.68867 
L 87.435571 161.68867 
L 87.435571 158.985654 
L 88.342428 158.985654 
L 88.342428 158.309899 
L 89.249284 158.309899 
L 89.249284 157.634145 
L 91.062996 157.634145 
L 91.062996 148.849341 
L 91.969853 148.849341 
L 91.969853 148.173587 
L 92.876709 148.173587 
L 92.876709 135.334257 
L 93.783565 135.334257 
L 93.783565 127.900961 
L 94.690422 127.900961 
L 94.690422 127.225207 
L 95.597278 127.225207 
L 95.597278 126.549453 
L 96.504134 126.549453 
L 96.504134 124.52219 
L 97.41099 124.52219 
L 97.41099 120.467665 
L 99.224703 120.467665 
L 99.224703 117.088894 
L 100.131559 117.088894 
L 100.131559 116.41314 
L 101.038415 116.41314 
L 101.038415 114.385877 
L 101.945272 114.385877 
L 101.945272 113.710123 
L 102.852128 113.710123 
L 102.852128 113.034369 
L 103.758984 113.034369 
L 103.758984 107.628335 
L 104.665841 107.628335 
L 104.665841 106.276827 
L 105.572697 106.276827 
L 105.572697 104.925318 
L 106.479553 104.925318 
L 106.479553 101.546547 
L 109.200122 101.546547 
L 109.200122 99.519285 
L 111.013834 99.519285 
L 111.013834 98.843531 
L 111.920691 98.843531 
L 111.920691 98.167777 
L 112.827547 98.167777 
L 112.827547 95.46476 
L 114.64126 95.46476 
L 114.64126 93.437497 
L 117.361828 93.437497 
L 117.361828 92.761743 
L 118.268685 92.761743 
L 118.268685 92.085989 
L 119.175541 92.085989 
L 119.175541 91.410235 
L 121.89611 91.410235 
L 121.89611 90.73448 
L 124.616679 90.73448 
L 124.616679 89.382972 
L 127.337247 89.382972 
L 127.337247 88.031464 
L 128.244104 88.031464 
L 128.244104 87.355709 
L 129.15096 87.355709 
L 129.15096 84.652693 
L 143.66066 84.652693 
L 143.66066 83.301184 
L 144.567517 83.301184 
L 144.567517 82.62543 
L 149.101798 82.62543 
L 149.101798 81.949676 
L 150.008654 81.949676 
L 150.008654 81.273922 
L 151.822367 81.273922 
L 151.822367 80.598168 
L 154.542936 80.598168 
L 154.542936 79.922413 
L 155.449792 79.922413 
L 155.449792 79.246659 
L 157.263504 79.246659 
L 157.263504 78.570905 
L 160.890929 78.570905 
L 160.890929 77.895151 
L 161.797786 77.895151 
L 161.797786 77.219397 
L 169.052636 77.219397 
L 169.052636 76.543642 
L 178.121199 76.543642 
L 178.121199 74.51638 
L 180.841767 74.51638 
L 180.841767 73.840626 
L 181.748624 73.840626 
L 181.748624 72.489117 
L 182.65548 72.489117 
L 182.65548 71.813363 
L 183.562336 71.813363 
L 183.562336 71.137609 
L 186.282905 71.137609 
L 186.282905 70.461855 
L 191.724043 70.461855 
L 191.724043 69.786101 
L 193.537755 69.786101 
L 193.537755 69.110346 
L 201.699462 69.110346 
L 201.699462 67.758838 
L 203.513174 67.758838 
L 203.513174 67.083084 
L 208.047456 67.083084 
L 208.047456 66.40733 
L 216.209162 66.40733 
L 216.209162 65.731575 
L 219.836587 65.731575 
L 219.836587 65.055821 
L 227.091437 65.055821 
L 227.091437 64.380067 
L 230.718862 64.380067 
L 230.718862 63.704313 
L 234.346287 63.704313 
L 234.346287 63.028559 
L 235.253144 63.028559 
L 235.253144 62.352804 
L 236.16 62.352804 
L 236.16 60.325542 
L 247.949132 60.325542 
L 247.949132 58.974034 
L 270.620538 58.974034 
L 270.620538 58.298279 
L 274.247963 58.298279 
L 274.247963 57.622525 
L 286.943951 57.622525 
L 286.943951 56.946771 
L 294.198801 56.946771 
L 294.198801 56.271017 
L 303.267364 56.271017 
L 303.267364 55.595263 
L 313.242783 55.595263 
L 313.242783 54.919508 
L 320.497633 54.919508 
L 320.497633 54.243754 
L 398.487273 54.243754 
L 398.487273 53.568 
L 398.487273 53.568 
" style="fill:none;stroke:#1f77b4;stroke-linecap:square;stroke-width:2;"/>
   </g>
   <g id="line2d_34">
    <path clip-path="url(#pf6a2cf0fec)" d="M 73.832727 295.488 
L 398.487273 53.568 
" style="fill:none;stroke:#000000;stroke-dasharray:5.55,2.4;stroke-dashoffset:0;stroke-width:1.5;"/>
   </g>
   <g id="patch_3">
    <path d="M 57.6 307.584 
L 57.6 41.472 
" style="fill:none;stroke:#000000;stroke-linecap:square;stroke-linejoin:miter;stroke-width:0.8;"/>
   </g>
   <g id="patch_4">
    <path d="M 414.72 307.584 
L 414.72 41.472 
" style="fill:none;stroke:#000000;stroke-linecap:square;stroke-linejoin:miter;stroke-width:0.8;"/>
   </g>
   <g id="patch_5">
    <path d="M 57.6 307.584 
L 414.72 307.584 
" style="fill:none;stroke:#000000;stroke-linecap:square;stroke-linejoin:miter;stroke-width:0.8;"/>
   </g>
   <g id="patch_6">
    <path d="M 57.6 41.472 
L 414.72 41.472 
" style="fill:none;stroke:#000000;stroke-linecap:square;stroke-linejoin:miter;stroke-width:0.8;"/>
   </g>
   <g id="text_13">
    <!-- ROC -->
    <defs>
     <path d="M 44.390625 34.1875 
Q 47.5625 33.109375 50.5625 29.59375 
Q 53.5625 26.078125 56.59375 19.921875 
L 66.609375 0 
L 56 0 
L 46.6875 18.703125 
Q 43.0625 26.03125 39.671875 28.421875 
Q 36.28125 30.8125 30.421875 30.8125 
L 19.671875 30.8125 
L 19.671875 0 
L 9.8125 0 
L 9.8125 72.90625 
L 32.078125 72.90625 
Q 44.578125 72.90625 50.734375 67.671875 
Q 56.890625 62.453125 56.890625 51.90625 
Q 56.890625 45.015625 53.6875 40.46875 
Q 50.484375 35.9375 44.390625 34.1875 
z
M 19.671875 64.796875 
L 19.671875 38.921875 
L 32.078125 38.921875 
Q 39.203125 38.921875 42.84375 42.21875 
Q 46.484375 45.515625 46.484375 51.90625 
Q 46.484375 58.296875 42.84375 61.546875 
Q 39.203125 64.796875 32.078125 64.796875 
z
" id="DejaVuSans-52"/>
     <path d="M 39.40625 66.21875 
Q 28.65625 66.21875 22.328125 58.203125 
Q 16.015625 50.203125 16.015625 36.375 
Q 16.015625 22.609375 22.328125 14.59375 
Q 28.65625 6.59375 39.40625 6.59375 
Q 50.140625 6.59375 56.421875 14.59375 
Q 62.703125 22.609375 62.703125 36.375 
Q 62.703125 50.203125 56.421875 58.203125 
Q 50.140625 66.21875 39.40625 66.21875 
z
M 39.40625 74.21875 
Q 54.734375 74.21875 63.90625 63.9375 
Q 73.09375 53.65625 73.09375 36.375 
Q 73.09375 19.140625 63.90625 8.859375 
Q 54.734375 -1.421875 39.40625 -1.421875 
Q 24.03125 -1.421875 14.8125 8.828125 
Q 5.609375 19.09375 5.609375 36.375 
Q 5.609375 53.65625 14.8125 63.9375 
Q 24.03125 74.21875 39.40625 74.21875 
z
" id="DejaVuSans-4f"/>
     <path d="M 64.40625 67.28125 
L 64.40625 56.890625 
Q 59.421875 61.53125 53.78125 63.8125 
Q 48.140625 66.109375 41.796875 66.109375 
Q 29.296875 66.109375 22.65625 58.46875 
Q 16.015625 50.828125 16.015625 36.375 
Q 16.015625 21.96875 22.65625 14.328125 
Q 29.296875 6.6875 41.796875 6.6875 
Q 48.140625 6.6875 53.78125 8.984375 
Q 59.421875 11.28125 64.40625 15.921875 
L 64.40625 5.609375 
Q 59.234375 2.09375 53.4375 0.328125 
Q 47.65625 -1.421875 41.21875 -1.421875 
Q 24.65625 -1.421875 15.125 8.703125 
Q 5.609375 18.84375 5.609375 36.375 
Q 5.609375 53.953125 15.125 64.078125 
Q 24.65625 74.21875 41.21875 74.21875 
Q 47.75 74.21875 53.53125 72.484375 
Q 59.328125 70.75 64.40625 67.28125 
z
" id="DejaVuSans-43"/>
    </defs>
    <g transform="translate(223.078125 35.472)scale(0.12 -0.12)">
     <use xlink:href="#DejaVuSans-52"/>
     <use x="69.482422" xlink:href="#DejaVuSans-4f"/>
     <use x="148.193359" xlink:href="#DejaVuSans-43"/>
    </g>
   </g>
   <g id="legend_1">
    <g id="patch_7">
     <path d="M 348.85125 302.584 
L 407.72 302.584 
Q 409.72 302.584 409.72 300.584 
L 409.72 140.124625 
Q 409.72 138.124625 407.72 138.124625 
L 348.85125 138.124625 
Q 346.85125 138.124625 346.85125 140.124625 
L 346.85125 300.584 
Q 346.85125 302.584 348.85125 302.584 
z
" style="fill:#ffffff;opacity:0.8;stroke:#cccccc;stroke-linejoin:miter;"/>
    </g>
    <g id="line2d_35">
     <path d="M 350.85125 146.223062 
L 370.85125 146.223062 
" style="fill:none;stroke:#1f77b4;stroke-linecap:square;stroke-width:2;"/>
    </g>
    <g id="line2d_36"/>
    <g id="text_14">
     <!-- NB -->
     <defs>
      <path d="M 9.8125 72.90625 
L 23.09375 72.90625 
L 55.421875 11.921875 
L 55.421875 72.90625 
L 64.984375 72.90625 
L 64.984375 0 
L 51.703125 0 
L 19.390625 60.984375 
L 19.390625 0 
L 9.8125 0 
z
" id="DejaVuSans-4e"/>
      <path d="M 19.671875 34.8125 
L 19.671875 8.109375 
L 35.5 8.109375 
Q 43.453125 8.109375 47.28125 11.40625 
Q 51.125 14.703125 51.125 21.484375 
Q 51.125 28.328125 47.28125 31.5625 
Q 43.453125 34.8125 35.5 34.8125 
z
M 19.671875 64.796875 
L 19.671875 42.828125 
L 34.28125 42.828125 
Q 41.5 42.828125 45.03125 45.53125 
Q 48.578125 48.25 48.578125 53.8125 
Q 48.578125 59.328125 45.03125 62.0625 
Q 41.5 64.796875 34.28125 64.796875 
z
M 9.8125 72.90625 
L 35.015625 72.90625 
Q 46.296875 72.90625 52.390625 68.21875 
Q 58.5 63.53125 58.5 54.890625 
Q 58.5 48.1875 55.375 44.234375 
Q 52.25 40.28125 46.1875 39.3125 
Q 53.46875 37.75 57.5 32.78125 
Q 61.53125 27.828125 61.53125 20.40625 
Q 61.53125 10.640625 54.890625 5.3125 
Q 48.25 0 35.984375 0 
L 9.8125 0 
z
" id="DejaVuSans-42"/>
     </defs>
     <g transform="translate(378.85125 149.723062)scale(0.1 -0.1)">
      <use xlink:href="#DejaVuSans-4e"/>
      <use x="74.804688" xlink:href="#DejaVuSans-42"/>
     </g>
    </g>
    <g id="line2d_37">
     <path d="M 350.85125 160.901188 
L 370.85125 160.901188 
" style="fill:none;stroke:#ff7f0e;stroke-linecap:square;stroke-width:2;"/>
    </g>
    <g id="line2d_38"/>
    <g id="text_15">
     <!-- SVM -->
     <defs>
      <path d="M 53.515625 70.515625 
L 53.515625 60.890625 
Q 47.90625 63.578125 42.921875 64.890625 
Q 37.9375 66.21875 33.296875 66.21875 
Q 25.25 66.21875 20.875 63.09375 
Q 16.5 59.96875 16.5 54.203125 
Q 16.5 49.359375 19.40625 46.890625 
Q 22.3125 44.4375 30.421875 42.921875 
L 36.375 41.703125 
Q 47.40625 39.59375 52.65625 34.296875 
Q 57.90625 29 57.90625 20.125 
Q 57.90625 9.515625 50.796875 4.046875 
Q 43.703125 -1.421875 29.984375 -1.421875 
Q 24.8125 -1.421875 18.96875 -0.25 
Q 13.140625 0.921875 6.890625 3.21875 
L 6.890625 13.375 
Q 12.890625 10.015625 18.65625 8.296875 
Q 24.421875 6.59375 29.984375 6.59375 
Q 38.421875 6.59375 43.015625 9.90625 
Q 47.609375 13.234375 47.609375 19.390625 
Q 47.609375 24.75 44.3125 27.78125 
Q 41.015625 30.8125 33.5 32.328125 
L 27.484375 33.5 
Q 16.453125 35.6875 11.515625 40.375 
Q 6.59375 45.0625 6.59375 53.421875 
Q 6.59375 63.09375 13.40625 68.65625 
Q 20.21875 74.21875 32.171875 74.21875 
Q 37.3125 74.21875 42.625 73.28125 
Q 47.953125 72.359375 53.515625 70.515625 
z
" id="DejaVuSans-53"/>
      <path d="M 28.609375 0 
L 0.78125 72.90625 
L 11.078125 72.90625 
L 34.1875 11.53125 
L 57.328125 72.90625 
L 67.578125 72.90625 
L 39.796875 0 
z
" id="DejaVuSans-56"/>
      <path d="M 9.8125 72.90625 
L 24.515625 72.90625 
L 43.109375 23.296875 
L 61.8125 72.90625 
L 76.515625 72.90625 
L 76.515625 0 
L 66.890625 0 
L 66.890625 64.015625 
L 48.09375 14.015625 
L 38.1875 14.015625 
L 19.390625 64.015625 
L 19.390625 0 
L 9.8125 0 
z
" id="DejaVuSans-4d"/>
     </defs>
     <g transform="translate(378.85125 164.401188)scale(0.1 -0.1)">
      <use xlink:href="#DejaVuSans-53"/>
      <use x="63.476562" xlink:href="#DejaVuSans-56"/>
      <use x="131.884766" xlink:href="#DejaVuSans-4d"/>
     </g>
    </g>
    <g id="line2d_39">
     <path d="M 350.85125 175.579313 
L 370.85125 175.579313 
" style="fill:none;stroke:#2ca02c;stroke-linecap:square;stroke-width:2;"/>
    </g>
    <g id="line2d_40"/>
    <g id="text_16">
     <!-- AB -->
     <defs>
      <path d="M 34.1875 63.1875 
L 20.796875 26.90625 
L 47.609375 26.90625 
z
M 28.609375 72.90625 
L 39.796875 72.90625 
L 67.578125 0 
L 57.328125 0 
L 50.6875 18.703125 
L 17.828125 18.703125 
L 11.1875 0 
L 0.78125 0 
z
" id="DejaVuSans-41"/>
     </defs>
     <g transform="translate(378.85125 179.079313)scale(0.1 -0.1)">
      <use xlink:href="#DejaVuSans-41"/>
      <use x="68.408203" xlink:href="#DejaVuSans-42"/>
     </g>
    </g>
    <g id="line2d_41">
     <path d="M 350.85125 190.257438 
L 370.85125 190.257438 
" style="fill:none;stroke:#d62728;stroke-linecap:square;stroke-width:2;"/>
    </g>
    <g id="line2d_42"/>
    <g id="text_17">
     <!-- KNN -->
     <defs>
      <path d="M 9.8125 72.90625 
L 19.671875 72.90625 
L 19.671875 42.09375 
L 52.390625 72.90625 
L 65.09375 72.90625 
L 28.90625 38.921875 
L 67.671875 0 
L 54.6875 0 
L 19.671875 35.109375 
L 19.671875 0 
L 9.8125 0 
z
" id="DejaVuSans-4b"/>
     </defs>
     <g transform="translate(378.85125 193.757438)scale(0.1 -0.1)">
      <use xlink:href="#DejaVuSans-4b"/>
      <use x="65.576172" xlink:href="#DejaVuSans-4e"/>
      <use x="140.380859" xlink:href="#DejaVuSans-4e"/>
     </g>
    </g>
    <g id="line2d_43">
     <path d="M 350.85125 204.935563 
L 370.85125 204.935563 
" style="fill:none;stroke:#9467bd;stroke-linecap:square;stroke-width:2;"/>
    </g>
    <g id="line2d_44"/>
    <g id="text_18">
     <!-- GBM -->
     <defs>
      <path d="M 59.515625 10.40625 
L 59.515625 29.984375 
L 43.40625 29.984375 
L 43.40625 38.09375 
L 69.28125 38.09375 
L 69.28125 6.78125 
Q 63.578125 2.734375 56.6875 0.65625 
Q 49.8125 -1.421875 42 -1.421875 
Q 24.90625 -1.421875 15.25 8.5625 
Q 5.609375 18.5625 5.609375 36.375 
Q 5.609375 54.25 15.25 64.234375 
Q 24.90625 74.21875 42 74.21875 
Q 49.125 74.21875 55.546875 72.453125 
Q 61.96875 70.703125 67.390625 67.28125 
L 67.390625 56.78125 
Q 61.921875 61.421875 55.765625 63.765625 
Q 49.609375 66.109375 42.828125 66.109375 
Q 29.4375 66.109375 22.71875 58.640625 
Q 16.015625 51.171875 16.015625 36.375 
Q 16.015625 21.625 22.71875 14.15625 
Q 29.4375 6.6875 42.828125 6.6875 
Q 48.046875 6.6875 52.140625 7.59375 
Q 56.25 8.5 59.515625 10.40625 
z
" id="DejaVuSans-47"/>
     </defs>
     <g transform="translate(378.85125 208.435563)scale(0.1 -0.1)">
      <use xlink:href="#DejaVuSans-47"/>
      <use x="77.490234" xlink:href="#DejaVuSans-42"/>
      <use x="146.09375" xlink:href="#DejaVuSans-4d"/>
     </g>
    </g>
    <g id="line2d_45">
     <path d="M 350.85125 219.613688 
L 370.85125 219.613688 
" style="fill:none;stroke:#8c564b;stroke-linecap:square;stroke-width:2;"/>
    </g>
    <g id="line2d_46"/>
    <g id="text_19">
     <!-- ET -->
     <defs>
      <path d="M 9.8125 72.90625 
L 55.90625 72.90625 
L 55.90625 64.59375 
L 19.671875 64.59375 
L 19.671875 43.015625 
L 54.390625 43.015625 
L 54.390625 34.71875 
L 19.671875 34.71875 
L 19.671875 8.296875 
L 56.78125 8.296875 
L 56.78125 0 
L 9.8125 0 
z
" id="DejaVuSans-45"/>
      <path d="M -0.296875 72.90625 
L 61.375 72.90625 
L 61.375 64.59375 
L 35.5 64.59375 
L 35.5 0 
L 25.59375 0 
L 25.59375 64.59375 
L -0.296875 64.59375 
z
" id="DejaVuSans-54"/>
     </defs>
     <g transform="translate(378.85125 223.113688)scale(0.1 -0.1)">
      <use xlink:href="#DejaVuSans-45"/>
      <use x="63.183594" xlink:href="#DejaVuSans-54"/>
     </g>
    </g>
    <g id="line2d_47">
     <path d="M 350.85125 234.291812 
L 370.85125 234.291812 
" style="fill:none;stroke:#e377c2;stroke-linecap:square;stroke-width:2;"/>
    </g>
    <g id="line2d_48"/>
    <g id="text_20">
     <!-- CART -->
     <g transform="translate(378.85125 237.791812)scale(0.1 -0.1)">
      <use xlink:href="#DejaVuSans-43"/>
      <use x="69.824219" xlink:href="#DejaVuSans-41"/>
      <use x="138.232422" xlink:href="#DejaVuSans-52"/>
      <use x="207.605469" xlink:href="#DejaVuSans-54"/>
     </g>
    </g>
    <g id="line2d_49">
     <path d="M 350.85125 248.969938 
L 370.85125 248.969938 
" style="fill:none;stroke:#7f7f7f;stroke-linecap:square;stroke-width:2;"/>
    </g>
    <g id="line2d_50"/>
    <g id="text_21">
     <!-- RF -->
     <defs>
      <path d="M 9.8125 72.90625 
L 51.703125 72.90625 
L 51.703125 64.59375 
L 19.671875 64.59375 
L 19.671875 43.109375 
L 48.578125 43.109375 
L 48.578125 34.8125 
L 19.671875 34.8125 
L 19.671875 0 
L 9.8125 0 
z
" id="DejaVuSans-46"/>
     </defs>
     <g transform="translate(378.85125 252.469938)scale(0.1 -0.1)">
      <use xlink:href="#DejaVuSans-52"/>
      <use x="69.482422" xlink:href="#DejaVuSans-46"/>
     </g>
    </g>
    <g id="line2d_51">
     <path d="M 350.85125 263.648062 
L 370.85125 263.648062 
" style="fill:none;stroke:#bcbd22;stroke-linecap:square;stroke-width:2;"/>
    </g>
    <g id="line2d_52"/>
    <g id="text_22">
     <!-- LR -->
     <defs>
      <path d="M 9.8125 72.90625 
L 19.671875 72.90625 
L 19.671875 8.296875 
L 55.171875 8.296875 
L 55.171875 0 
L 9.8125 0 
z
" id="DejaVuSans-4c"/>
     </defs>
     <g transform="translate(378.85125 267.148062)scale(0.1 -0.1)">
      <use xlink:href="#DejaVuSans-4c"/>
      <use x="55.712891" xlink:href="#DejaVuSans-52"/>
     </g>
    </g>
    <g id="line2d_53">
     <path d="M 350.85125 278.326187 
L 370.85125 278.326187 
" style="fill:none;stroke:#17becf;stroke-linecap:square;stroke-width:2;"/>
    </g>
    <g id="line2d_54"/>
    <g id="text_23">
     <!-- QDA -->
     <defs>
      <path d="M 39.40625 66.21875 
Q 28.65625 66.21875 22.328125 58.203125 
Q 16.015625 50.203125 16.015625 36.375 
Q 16.015625 22.609375 22.328125 14.59375 
Q 28.65625 6.59375 39.40625 6.59375 
Q 50.140625 6.59375 56.421875 14.59375 
Q 62.703125 22.609375 62.703125 36.375 
Q 62.703125 50.203125 56.421875 58.203125 
Q 50.140625 66.21875 39.40625 66.21875 
z
M 53.21875 1.3125 
L 66.21875 -12.890625 
L 54.296875 -12.890625 
L 43.5 -1.21875 
Q 41.890625 -1.3125 41.03125 -1.359375 
Q 40.1875 -1.421875 39.40625 -1.421875 
Q 24.03125 -1.421875 14.8125 8.859375 
Q 5.609375 19.140625 5.609375 36.375 
Q 5.609375 53.65625 14.8125 63.9375 
Q 24.03125 74.21875 39.40625 74.21875 
Q 54.734375 74.21875 63.90625 63.9375 
Q 73.09375 53.65625 73.09375 36.375 
Q 73.09375 23.6875 67.984375 14.640625 
Q 62.890625 5.609375 53.21875 1.3125 
z
" id="DejaVuSans-51"/>
      <path d="M 19.671875 64.796875 
L 19.671875 8.109375 
L 31.59375 8.109375 
Q 46.6875 8.109375 53.6875 14.9375 
Q 60.6875 21.78125 60.6875 36.53125 
Q 60.6875 51.171875 53.6875 57.984375 
Q 46.6875 64.796875 31.59375 64.796875 
z
M 9.8125 72.90625 
L 30.078125 72.90625 
Q 51.265625 72.90625 61.171875 64.09375 
Q 71.09375 55.28125 71.09375 36.53125 
Q 71.09375 17.671875 61.125 8.828125 
Q 51.171875 0 30.078125 0 
L 9.8125 0 
z
" id="DejaVuSans-44"/>
     </defs>
     <g transform="translate(378.85125 281.826187)scale(0.1 -0.1)">
      <use xlink:href="#DejaVuSans-51"/>
      <use x="78.710938" xlink:href="#DejaVuSans-44"/>
      <use x="155.697266" xlink:href="#DejaVuSans-41"/>
     </g>
    </g>
    <g id="line2d_55">
     <path d="M 350.85125 293.004312 
L 370.85125 293.004312 
" style="fill:none;stroke:#1f77b4;stroke-linecap:square;stroke-width:2;"/>
    </g>
    <g id="line2d_56"/>
    <g id="text_24">
     <!-- LDA -->
     <g transform="translate(378.85125 296.504312)scale(0.1 -0.1)">
      <use xlink:href="#DejaVuSans-4c"/>
      <use x="55.712891" xlink:href="#DejaVuSans-44"/>
      <use x="132.699219" xlink:href="#DejaVuSans-41"/>
     </g>
    </g>
   </g>
  </g>
 </g>
 <defs>
  <clipPath id="pf6a2cf0fec">
   <rect height="266.112" width="357.12" x="57.6" y="41.472"/>
  </clipPath>
 </defs>
</svg>
