<?xml version="1.0" encoding="utf-8" standalone="no"?>
<!DOCTYPE svg PUBLIC "-//W3C//DTD SVG 1.1//EN"
  "http://www.w3.org/Graphics/SVG/1.1/DTD/svg11.dtd">
<!-- Created with matplotlib (http://matplotlib.org/) -->
<svg height="345.6pt" version="1.1" viewBox="0 0 460.8 345.6" width="460.8pt" xmlns="http://www.w3.org/2000/svg" xmlns:xlink="http://www.w3.org/1999/xlink">
 <defs>
  <style type="text/css">
*{stroke-linecap:butt;stroke-linejoin:round;}
  </style>
 </defs>
 <g id="figure_1">
  <g id="patch_1">
   <path d="M 0 345.6 
L 460.8 345.6 
L 460.8 0 
L 0 0 
z
" style="fill:#ffffff;"/>
  </g>
  <g id="axes_1">
   <g id="patch_2">
    <path d="M 57.6 307.584 
L 414.72 307.584 
L 414.72 41.472 
L 57.6 41.472 
z
" style="fill:#ffffff;"/>
   </g>
   <g id="matplotlib.axis_1">
    <g id="xtick_1">
     <g id="line2d_1">
      <defs>
       <path d="M 0 0 
L 0 3.5 
" id="m188174739c" style="stroke:#000000;stroke-width:0.8;"/>
      </defs>
      <g>
       <use style="stroke:#000000;stroke-width:0.8;" x="73.832727" xlink:href="#m188174739c" y="307.584"/>
      </g>
     </g>
     <g id="text_1">
      <!-- 0.0 -->
      <defs>
       <path d="M 31.78125 66.40625 
Q 24.171875 66.40625 20.328125 58.90625 
Q 16.5 51.421875 16.5 36.375 
Q 16.5 21.390625 20.328125 13.890625 
Q 24.171875 6.390625 31.78125 6.390625 
Q 39.453125 6.390625 43.28125 13.890625 
Q 47.125 21.390625 47.125 36.375 
Q 47.125 51.421875 43.28125 58.90625 
Q 39.453125 66.40625 31.78125 66.40625 
z
M 31.78125 74.21875 
Q 44.046875 74.21875 50.515625 64.515625 
Q 56.984375 54.828125 56.984375 36.375 
Q 56.984375 17.96875 50.515625 8.265625 
Q 44.046875 -1.421875 31.78125 -1.421875 
Q 19.53125 -1.421875 13.0625 8.265625 
Q 6.59375 17.96875 6.59375 36.375 
Q 6.59375 54.828125 13.0625 64.515625 
Q 19.53125 74.21875 31.78125 74.21875 
z
" id="DejaVuSans-30"/>
       <path d="M 10.6875 12.40625 
L 21 12.40625 
L 21 0 
L 10.6875 0 
z
" id="DejaVuSans-2e"/>
      </defs>
      <g transform="translate(65.881165 322.182437)scale(0.1 -0.1)">
       <use xlink:href="#DejaVuSans-30"/>
       <use x="63.623047" xlink:href="#DejaVuSans-2e"/>
       <use x="95.410156" xlink:href="#DejaVuSans-30"/>
      </g>
     </g>
    </g>
    <g id="xtick_2">
     <g id="line2d_2">
      <g>
       <use style="stroke:#000000;stroke-width:0.8;" x="138.763636" xlink:href="#m188174739c" y="307.584"/>
      </g>
     </g>
     <g id="text_2">
      <!-- 0.2 -->
      <defs>
       <path d="M 19.1875 8.296875 
L 53.609375 8.296875 
L 53.609375 0 
L 7.328125 0 
L 7.328125 8.296875 
Q 12.9375 14.109375 22.625 23.890625 
Q 32.328125 33.6875 34.8125 36.53125 
Q 39.546875 41.84375 41.421875 45.53125 
Q 43.3125 49.21875 43.3125 52.78125 
Q 43.3125 58.59375 39.234375 62.25 
Q 35.15625 65.921875 28.609375 65.921875 
Q 23.96875 65.921875 18.8125 64.3125 
Q 13.671875 62.703125 7.8125 59.421875 
L 7.8125 69.390625 
Q 13.765625 71.78125 18.9375 73 
Q 24.125 74.21875 28.421875 74.21875 
Q 39.75 74.21875 46.484375 68.546875 
Q 53.21875 62.890625 53.21875 53.421875 
Q 53.21875 48.921875 51.53125 44.890625 
Q 49.859375 40.875 45.40625 35.40625 
Q 44.1875 33.984375 37.640625 27.21875 
Q 31.109375 20.453125 19.1875 8.296875 
z
" id="DejaVuSans-32"/>
      </defs>
      <g transform="translate(130.812074 322.182437)scale(0.1 -0.1)">
       <use xlink:href="#DejaVuSans-30"/>
       <use x="63.623047" xlink:href="#DejaVuSans-2e"/>
       <use x="95.410156" xlink:href="#DejaVuSans-32"/>
      </g>
     </g>
    </g>
    <g id="xtick_3">
     <g id="line2d_3">
      <g>
       <use style="stroke:#000000;stroke-width:0.8;" x="203.694545" xlink:href="#m188174739c" y="307.584"/>
      </g>
     </g>
     <g id="text_3">
      <!-- 0.4 -->
      <defs>
       <path d="M 37.796875 64.3125 
L 12.890625 25.390625 
L 37.796875 25.390625 
z
M 35.203125 72.90625 
L 47.609375 72.90625 
L 47.609375 25.390625 
L 58.015625 25.390625 
L 58.015625 17.1875 
L 47.609375 17.1875 
L 47.609375 0 
L 37.796875 0 
L 37.796875 17.1875 
L 4.890625 17.1875 
L 4.890625 26.703125 
z
" id="DejaVuSans-34"/>
      </defs>
      <g transform="translate(195.742983 322.182437)scale(0.1 -0.1)">
       <use xlink:href="#DejaVuSans-30"/>
       <use x="63.623047" xlink:href="#DejaVuSans-2e"/>
       <use x="95.410156" xlink:href="#DejaVuSans-34"/>
      </g>
     </g>
    </g>
    <g id="xtick_4">
     <g id="line2d_4">
      <g>
       <use style="stroke:#000000;stroke-width:0.8;" x="268.625455" xlink:href="#m188174739c" y="307.584"/>
      </g>
     </g>
     <g id="text_4">
      <!-- 0.6 -->
      <defs>
       <path d="M 33.015625 40.375 
Q 26.375 40.375 22.484375 35.828125 
Q 18.609375 31.296875 18.609375 23.390625 
Q 18.609375 15.53125 22.484375 10.953125 
Q 26.375 6.390625 33.015625 6.390625 
Q 39.65625 6.390625 43.53125 10.953125 
Q 47.40625 15.53125 47.40625 23.390625 
Q 47.40625 31.296875 43.53125 35.828125 
Q 39.65625 40.375 33.015625 40.375 
z
M 52.59375 71.296875 
L 52.59375 62.3125 
Q 48.875 64.0625 45.09375 64.984375 
Q 41.3125 65.921875 37.59375 65.921875 
Q 27.828125 65.921875 22.671875 59.328125 
Q 17.53125 52.734375 16.796875 39.40625 
Q 19.671875 43.65625 24.015625 45.921875 
Q 28.375 48.1875 33.59375 48.1875 
Q 44.578125 48.1875 50.953125 41.515625 
Q 57.328125 34.859375 57.328125 23.390625 
Q 57.328125 12.15625 50.6875 5.359375 
Q 44.046875 -1.421875 33.015625 -1.421875 
Q 20.359375 -1.421875 13.671875 8.265625 
Q 6.984375 17.96875 6.984375 36.375 
Q 6.984375 53.65625 15.1875 63.9375 
Q 23.390625 74.21875 37.203125 74.21875 
Q 40.921875 74.21875 44.703125 73.484375 
Q 48.484375 72.75 52.59375 71.296875 
z
" id="DejaVuSans-36"/>
      </defs>
      <g transform="translate(260.673892 322.182437)scale(0.1 -0.1)">
       <use xlink:href="#DejaVuSans-30"/>
       <use x="63.623047" xlink:href="#DejaVuSans-2e"/>
       <use x="95.410156" xlink:href="#DejaVuSans-36"/>
      </g>
     </g>
    </g>
    <g id="xtick_5">
     <g id="line2d_5">
      <g>
       <use style="stroke:#000000;stroke-width:0.8;" x="333.556364" xlink:href="#m188174739c" y="307.584"/>
      </g>
     </g>
     <g id="text_5">
      <!-- 0.8 -->
      <defs>
       <path d="M 31.78125 34.625 
Q 24.75 34.625 20.71875 30.859375 
Q 16.703125 27.09375 16.703125 20.515625 
Q 16.703125 13.921875 20.71875 10.15625 
Q 24.75 6.390625 31.78125 6.390625 
Q 38.8125 6.390625 42.859375 10.171875 
Q 46.921875 13.96875 46.921875 20.515625 
Q 46.921875 27.09375 42.890625 30.859375 
Q 38.875 34.625 31.78125 34.625 
z
M 21.921875 38.8125 
Q 15.578125 40.375 12.03125 44.71875 
Q 8.5 49.078125 8.5 55.328125 
Q 8.5 64.0625 14.71875 69.140625 
Q 20.953125 74.21875 31.78125 74.21875 
Q 42.671875 74.21875 48.875 69.140625 
Q 55.078125 64.0625 55.078125 55.328125 
Q 55.078125 49.078125 51.53125 44.71875 
Q 48 40.375 41.703125 38.8125 
Q 48.828125 37.15625 52.796875 32.3125 
Q 56.78125 27.484375 56.78125 20.515625 
Q 56.78125 9.90625 50.3125 4.234375 
Q 43.84375 -1.421875 31.78125 -1.421875 
Q 19.734375 -1.421875 13.25 4.234375 
Q 6.78125 9.90625 6.78125 20.515625 
Q 6.78125 27.484375 10.78125 32.3125 
Q 14.796875 37.15625 21.921875 38.8125 
z
M 18.3125 54.390625 
Q 18.3125 48.734375 21.84375 45.5625 
Q 25.390625 42.390625 31.78125 42.390625 
Q 38.140625 42.390625 41.71875 45.5625 
Q 45.3125 48.734375 45.3125 54.390625 
Q 45.3125 60.0625 41.71875 63.234375 
Q 38.140625 66.40625 31.78125 66.40625 
Q 25.390625 66.40625 21.84375 63.234375 
Q 18.3125 60.0625 18.3125 54.390625 
z
" id="DejaVuSans-38"/>
      </defs>
      <g transform="translate(325.604801 322.182437)scale(0.1 -0.1)">
       <use xlink:href="#DejaVuSans-30"/>
       <use x="63.623047" xlink:href="#DejaVuSans-2e"/>
       <use x="95.410156" xlink:href="#DejaVuSans-38"/>
      </g>
     </g>
    </g>
    <g id="xtick_6">
     <g id="line2d_6">
      <g>
       <use style="stroke:#000000;stroke-width:0.8;" x="398.487273" xlink:href="#m188174739c" y="307.584"/>
      </g>
     </g>
     <g id="text_6">
      <!-- 1.0 -->
      <defs>
       <path d="M 12.40625 8.296875 
L 28.515625 8.296875 
L 28.515625 63.921875 
L 10.984375 60.40625 
L 10.984375 69.390625 
L 28.421875 72.90625 
L 38.28125 72.90625 
L 38.28125 8.296875 
L 54.390625 8.296875 
L 54.390625 0 
L 12.40625 0 
z
" id="DejaVuSans-31"/>
      </defs>
      <g transform="translate(390.53571 322.182437)scale(0.1 -0.1)">
       <use xlink:href="#DejaVuSans-31"/>
       <use x="63.623047" xlink:href="#DejaVuSans-2e"/>
       <use x="95.410156" xlink:href="#DejaVuSans-30"/>
      </g>
     </g>
    </g>
   </g>
   <g id="matplotlib.axis_2">
    <g id="ytick_1">
     <g id="line2d_7">
      <defs>
       <path d="M 0 0 
L -3.5 0 
" id="m9f624af1d4" style="stroke:#000000;stroke-width:0.8;"/>
      </defs>
      <g>
       <use style="stroke:#000000;stroke-width:0.8;" x="57.6" xlink:href="#m9f624af1d4" y="295.488"/>
      </g>
     </g>
     <g id="text_7">
      <!-- 0.0 -->
      <g transform="translate(34.696875 299.287219)scale(0.1 -0.1)">
       <use xlink:href="#DejaVuSans-30"/>
       <use x="63.623047" xlink:href="#DejaVuSans-2e"/>
       <use x="95.410156" xlink:href="#DejaVuSans-30"/>
      </g>
     </g>
    </g>
    <g id="ytick_2">
     <g id="line2d_8">
      <g>
       <use style="stroke:#000000;stroke-width:0.8;" x="57.6" xlink:href="#m9f624af1d4" y="247.104"/>
      </g>
     </g>
     <g id="text_8">
      <!-- 0.2 -->
      <g transform="translate(34.696875 250.903219)scale(0.1 -0.1)">
       <use xlink:href="#DejaVuSans-30"/>
       <use x="63.623047" xlink:href="#DejaVuSans-2e"/>
       <use x="95.410156" xlink:href="#DejaVuSans-32"/>
      </g>
     </g>
    </g>
    <g id="ytick_3">
     <g id="line2d_9">
      <g>
       <use style="stroke:#000000;stroke-width:0.8;" x="57.6" xlink:href="#m9f624af1d4" y="198.72"/>
      </g>
     </g>
     <g id="text_9">
      <!-- 0.4 -->
      <g transform="translate(34.696875 202.519219)scale(0.1 -0.1)">
       <use xlink:href="#DejaVuSans-30"/>
       <use x="63.623047" xlink:href="#DejaVuSans-2e"/>
       <use x="95.410156" xlink:href="#DejaVuSans-34"/>
      </g>
     </g>
    </g>
    <g id="ytick_4">
     <g id="line2d_10">
      <g>
       <use style="stroke:#000000;stroke-width:0.8;" x="57.6" xlink:href="#m9f624af1d4" y="150.336"/>
      </g>
     </g>
     <g id="text_10">
      <!-- 0.6 -->
      <g transform="translate(34.696875 154.135219)scale(0.1 -0.1)">
       <use xlink:href="#DejaVuSans-30"/>
       <use x="63.623047" xlink:href="#DejaVuSans-2e"/>
       <use x="95.410156" xlink:href="#DejaVuSans-36"/>
      </g>
     </g>
    </g>
    <g id="ytick_5">
     <g id="line2d_11">
      <g>
       <use style="stroke:#000000;stroke-width:0.8;" x="57.6" xlink:href="#m9f624af1d4" y="101.952"/>
      </g>
     </g>
     <g id="text_11">
      <!-- 0.8 -->
      <g transform="translate(34.696875 105.751219)scale(0.1 -0.1)">
       <use xlink:href="#DejaVuSans-30"/>
       <use x="63.623047" xlink:href="#DejaVuSans-2e"/>
       <use x="95.410156" xlink:href="#DejaVuSans-38"/>
      </g>
     </g>
    </g>
    <g id="ytick_6">
     <g id="line2d_12">
      <g>
       <use style="stroke:#000000;stroke-width:0.8;" x="57.6" xlink:href="#m9f624af1d4" y="53.568"/>
      </g>
     </g>
     <g id="text_12">
      <!-- 1.0 -->
      <g transform="translate(34.696875 57.367219)scale(0.1 -0.1)">
       <use xlink:href="#DejaVuSans-31"/>
       <use x="63.623047" xlink:href="#DejaVuSans-2e"/>
       <use x="95.410156" xlink:href="#DejaVuSans-30"/>
      </g>
     </g>
    </g>
   </g>
   <g id="line2d_13">
    <path clip-path="url(#p147f3030da)" d="M 73.832727 295.488 
L 126.430391 102.222302 
L 398.487273 53.568 
" style="fill:none;stroke:#1f77b4;stroke-linecap:square;stroke-width:2;"/>
   </g>
   <g id="line2d_14">
    <path clip-path="url(#p147f3030da)" d="M 73.832727 295.488 
L 398.487273 53.568 
" style="fill:none;stroke:#000000;stroke-dasharray:5.55,2.4;stroke-dashoffset:0;stroke-width:1.5;"/>
   </g>
   <g id="line2d_15">
    <path clip-path="url(#p147f3030da)" d="M 73.832727 295.488 
L 73.832727 292.784983 
L 73.832727 289.406212 
L 73.832727 281.297162 
L 74.739584 278.594145 
L 74.739584 276.566883 
L 74.739584 273.863866 
L 74.739584 271.836603 
L 74.739584 261.024536 
L 75.64644 256.970011 
L 76.553296 254.266994 
L 76.553296 248.860961 
L 76.553296 242.103419 
L 76.553296 237.37314 
L 77.460152 230.615598 
L 77.460152 217.776268 
L 78.367009 211.69448 
L 78.367009 204.936939 
L 81.087577 200.206659 
L 81.087577 192.097609 
L 81.994434 185.340067 
L 81.994434 178.582525 
L 84.715003 171.149229 
L 86.528715 166.41895 
L 87.435571 160.337162 
L 87.435571 154.931128 
L 89.249284 148.173587 
L 90.15614 142.091799 
L 91.062996 138.037274 
L 91.969853 134.658503 
L 91.969853 132.63124 
L 93.783565 125.873698 
L 94.690422 121.143419 
L 96.504134 116.41314 
L 97.41099 113.710123 
L 99.224703 110.331352 
L 100.131559 105.601073 
L 101.038415 104.925318 
L 105.572697 100.870793 
L 107.386409 98.843531 
L 111.013834 94.789006 
L 113.734403 93.437497 
L 114.64126 90.058726 
L 116.454972 86.679955 
L 118.268685 83.976939 
L 121.89611 82.62543 
L 122.802966 79.922413 
L 124.616679 79.922413 
L 126.430391 79.246659 
L 126.430391 78.570905 
L 130.964672 78.570905 
L 131.871529 75.867888 
L 132.778385 75.192134 
L 135.498954 73.840626 
L 139.126379 71.137609 
L 141.846948 69.786101 
L 143.66066 69.786101 
L 148.194942 67.083084 
L 152.729223 66.40733 
L 159.984073 66.40733 
L 165.425211 65.731575 
L 169.052636 65.731575 
L 175.40063 63.704313 
L 177.214342 63.028559 
L 179.028055 63.028559 
L 186.282905 61.67705 
L 189.003474 60.325542 
L 199.885749 60.325542 
L 206.233743 60.325542 
L 210.768024 60.325542 
L 213.488593 58.974034 
L 217.116018 58.974034 
L 229.812006 58.974034 
L 234.346287 58.974034 
L 243.41485 56.946771 
L 247.949132 56.271017 
L 253.390269 56.271017 
L 260.645119 56.271017 
L 268.806826 56.271017 
L 275.15482 56.271017 
L 279.689101 55.595263 
L 288.757664 54.919508 
L 299.639939 54.243754 
L 307.801646 54.243754 
L 313.242783 54.243754 
L 321.40449 54.243754 
L 335.91419 54.243754 
L 344.982753 54.243754 
L 354.958172 54.243754 
L 362.213022 53.568 
L 370.374728 53.568 
L 381.257004 53.568 
L 384.884429 53.568 
L 393.046135 53.568 
L 393.952991 53.568 
L 398.487273 53.568 
" style="fill:none;stroke:#ff7f0e;stroke-linecap:square;stroke-width:2;"/>
   </g>
   <g id="line2d_16">
    <path clip-path="url(#p147f3030da)" d="M 73.832727 295.488 
L 398.487273 53.568 
" style="fill:none;stroke:#000000;stroke-dasharray:5.55,2.4;stroke-dashoffset:0;stroke-width:1.5;"/>
   </g>
   <g id="line2d_17">
    <path clip-path="url(#p147f3030da)" d="M 73.832727 295.488 
L 73.832727 294.812246 
L 73.832727 196.152134 
L 74.739584 196.152134 
L 74.739584 173.176492 
L 75.64644 173.176492 
L 75.64644 149.525095 
L 76.553296 149.525095 
L 76.553296 135.334257 
L 77.460152 135.334257 
L 77.460152 126.549453 
L 78.367009 126.549453 
L 78.367009 125.197944 
L 79.273865 125.197944 
L 79.273865 121.143419 
L 81.087577 121.143419 
L 81.087577 117.764648 
L 81.994434 117.764648 
L 81.994434 110.331352 
L 82.90129 110.331352 
L 82.90129 106.952581 
L 85.621859 106.952581 
L 85.621859 102.222302 
L 86.528715 102.222302 
L 86.528715 99.519285 
L 88.342428 99.519285 
L 88.342428 97.492022 
L 89.249284 97.492022 
L 89.249284 94.113251 
L 90.15614 94.113251 
L 90.15614 91.410235 
L 91.062996 91.410235 
L 91.062996 90.73448 
L 91.969853 90.73448 
L 91.969853 88.707218 
L 92.876709 88.707218 
L 92.876709 88.031464 
L 94.690422 88.031464 
L 94.690422 87.355709 
L 95.597278 87.355709 
L 95.597278 86.004201 
L 103.758984 86.004201 
L 103.758984 85.328447 
L 105.572697 85.328447 
L 105.572697 83.976939 
L 112.827547 83.976939 
L 112.827547 82.62543 
L 115.548116 82.62543 
L 115.548116 81.949676 
L 118.268685 81.949676 
L 118.268685 80.598168 
L 119.175541 80.598168 
L 119.175541 79.922413 
L 120.989253 79.922413 
L 120.989253 78.570905 
L 121.89611 78.570905 
L 121.89611 77.895151 
L 123.709822 77.895151 
L 123.709822 77.219397 
L 125.523535 77.219397 
L 125.523535 75.867888 
L 126.430391 75.867888 
L 126.430391 75.192134 
L 129.15096 75.192134 
L 129.15096 74.51638 
L 132.778385 74.51638 
L 132.778385 73.840626 
L 133.685241 73.840626 
L 133.685241 73.164872 
L 134.592098 73.164872 
L 134.592098 72.489117 
L 139.126379 72.489117 
L 139.126379 71.137609 
L 140.033235 71.137609 
L 140.033235 70.461855 
L 143.66066 70.461855 
L 143.66066 69.786101 
L 147.288085 69.786101 
L 147.288085 69.110346 
L 150.008654 69.110346 
L 150.008654 67.758838 
L 151.822367 67.758838 
L 151.822367 66.40733 
L 152.729223 66.40733 
L 152.729223 65.731575 
L 159.077217 65.731575 
L 159.077217 65.055821 
L 159.984073 65.055821 
L 159.984073 64.380067 
L 160.890929 64.380067 
L 160.890929 63.704313 
L 163.611498 63.704313 
L 163.611498 63.028559 
L 164.518354 63.028559 
L 164.518354 62.352804 
L 165.425211 62.352804 
L 165.425211 61.67705 
L 169.052636 61.67705 
L 169.052636 61.001296 
L 181.748624 61.001296 
L 181.748624 60.325542 
L 195.351468 60.325542 
L 195.351468 59.649788 
L 196.258324 59.649788 
L 196.258324 58.974034 
L 208.047456 58.974034 
L 208.047456 58.298279 
L 214.395449 58.298279 
L 214.395449 57.622525 
L 219.836587 57.622525 
L 219.836587 56.946771 
L 243.41485 56.946771 
L 243.41485 56.271017 
L 254.297125 56.271017 
L 254.297125 55.595263 
L 282.40967 55.595263 
L 282.40967 54.919508 
L 294.198801 54.919508 
L 294.198801 54.243754 
L 335.007334 54.243754 
L 335.007334 53.568 
L 398.487273 53.568 
" style="fill:none;stroke:#2ca02c;stroke-linecap:square;stroke-width:2;"/>
   </g>
   <g id="line2d_18">
    <path clip-path="url(#p147f3030da)" d="M 73.832727 295.488 
L 398.487273 53.568 
" style="fill:none;stroke:#000000;stroke-dasharray:5.55,2.4;stroke-dashoffset:0;stroke-width:1.5;"/>
   </g>
   <g id="line2d_19">
    <path clip-path="url(#p147f3030da)" d="M 73.832727 295.488 
L 73.832727 290.757721 
L 74.739584 290.757721 
L 74.739584 279.945654 
L 75.64644 279.945654 
L 75.64644 269.133587 
L 76.553296 269.133587 
L 76.553296 267.782078 
L 77.460152 267.782078 
L 77.460152 264.403307 
L 78.367009 264.403307 
L 78.367009 254.266994 
L 79.273865 254.266994 
L 79.273865 250.212469 
L 80.180721 250.212469 
L 80.180721 245.48219 
L 81.087577 245.48219 
L 81.087577 241.427665 
L 81.994434 241.427665 
L 81.994434 238.724648 
L 82.90129 238.724648 
L 82.90129 229.264089 
L 84.715003 229.264089 
L 84.715003 228.588335 
L 85.621859 228.588335 
L 85.621859 227.236827 
L 86.528715 227.236827 
L 86.528715 213.045989 
L 87.435571 213.045989 
L 87.435571 205.612693 
L 88.342428 205.612693 
L 88.342428 198.855151 
L 89.249284 198.855151 
L 89.249284 198.179397 
L 90.15614 198.179397 
L 90.15614 197.503642 
L 91.062996 197.503642 
L 91.062996 194.124872 
L 91.969853 194.124872 
L 91.969853 189.394592 
L 92.876709 189.394592 
L 92.876709 179.258279 
L 93.783565 179.258279 
L 93.783565 173.852246 
L 94.690422 173.852246 
L 94.690422 163.040179 
L 95.597278 163.040179 
L 95.597278 161.68867 
L 96.504134 161.68867 
L 96.504134 155.606883 
L 97.41099 155.606883 
L 97.41099 140.064536 
L 98.317847 140.064536 
L 98.317847 135.334257 
L 100.131559 135.334257 
L 100.131559 134.658503 
L 101.038415 134.658503 
L 101.038415 127.225207 
L 102.852128 127.225207 
L 102.852128 126.549453 
L 103.758984 126.549453 
L 103.758984 125.197944 
L 104.665841 125.197944 
L 104.665841 120.467665 
L 105.572697 120.467665 
L 105.572697 119.116156 
L 106.479553 119.116156 
L 106.479553 114.385877 
L 108.293266 114.385877 
L 108.293266 112.358615 
L 109.200122 112.358615 
L 109.200122 111.68286 
L 111.013834 111.68286 
L 111.013834 107.628335 
L 113.734403 107.628335 
L 113.734403 106.952581 
L 114.64126 106.952581 
L 114.64126 106.276827 
L 115.548116 106.276827 
L 115.548116 98.843531 
L 116.454972 98.843531 
L 116.454972 96.816268 
L 117.361828 96.816268 
L 117.361828 95.46476 
L 118.268685 95.46476 
L 118.268685 91.410235 
L 119.175541 91.410235 
L 120.082397 90.73448 
L 120.082397 89.382972 
L 120.989253 89.382972 
L 120.989253 88.031464 
L 125.523535 88.031464 
L 125.523535 87.355709 
L 128.244104 87.355709 
L 128.244104 86.679955 
L 130.057816 86.679955 
L 130.057816 86.004201 
L 131.871529 86.004201 
L 131.871529 83.976939 
L 135.498954 83.976939 
L 135.498954 82.62543 
L 138.219523 82.62543 
L 138.219523 81.949676 
L 140.940091 81.949676 
L 140.940091 81.273922 
L 142.753804 81.273922 
L 142.753804 80.598168 
L 145.474373 80.598168 
L 145.474373 79.246659 
L 146.381229 79.246659 
L 146.381229 77.219397 
L 147.288085 77.219397 
L 147.288085 76.543642 
L 148.194942 76.543642 
L 148.194942 75.867888 
L 150.91551 75.867888 
L 150.91551 74.51638 
L 155.449792 74.51638 
L 155.449792 73.840626 
L 157.263504 73.840626 
L 157.263504 72.489117 
L 160.890929 72.489117 
L 160.890929 71.813363 
L 161.797786 71.813363 
L 161.797786 71.137609 
L 166.332067 71.137609 
L 166.332067 70.461855 
L 169.959492 70.461855 
L 169.959492 69.786101 
L 171.773205 69.786101 
L 171.773205 69.110346 
L 184.469192 69.110346 
L 184.469192 68.434592 
L 186.282905 68.434592 
L 186.282905 67.758838 
L 188.096618 67.758838 
L 188.096618 67.083084 
L 199.885749 67.083084 
L 199.885749 66.40733 
L 204.42003 66.40733 
L 204.42003 65.731575 
L 206.233743 65.731575 
L 206.233743 65.055821 
L 211.674881 65.055821 
L 211.674881 64.380067 
L 218.022875 64.380067 
L 218.022875 63.704313 
L 222.557156 63.704313 
L 222.557156 63.028559 
L 235.253144 63.028559 
L 235.253144 62.352804 
L 237.973713 62.352804 
L 237.973713 60.325542 
L 257.017694 60.325542 
L 257.017694 59.649788 
L 267.89997 59.649788 
L 267.89997 58.974034 
L 279.689101 58.974034 
L 279.689101 58.298279 
L 285.130239 58.298279 
L 285.130239 57.622525 
L 293.291945 57.622525 
L 293.291945 56.946771 
L 305.987933 56.946771 
L 305.987933 56.271017 
L 335.007334 56.271017 
L 335.007334 55.595263 
L 342.262184 55.595263 
L 342.262184 54.919508 
L 345.889609 54.919508 
L 345.889609 54.243754 
L 382.16386 54.243754 
L 382.16386 53.568 
L 398.487273 53.568 
L 398.487273 53.568 
" style="fill:none;stroke:#d62728;stroke-linecap:square;stroke-width:2;"/>
   </g>
   <g id="line2d_20">
    <path clip-path="url(#p147f3030da)" d="M 73.832727 295.488 
L 398.487273 53.568 
" style="fill:none;stroke:#000000;stroke-dasharray:5.55,2.4;stroke-dashoffset:0;stroke-width:1.5;"/>
   </g>
   <g id="line2d_21">
    <path clip-path="url(#p147f3030da)" d="M 73.832727 295.488 
L 73.832727 292.784983 
L 74.739584 292.784983 
L 74.739584 292.109229 
L 75.64644 292.109229 
L 75.64644 291.433475 
L 77.460152 291.433475 
L 77.460152 290.081966 
L 79.273865 290.081966 
L 79.273865 288.730458 
L 81.087577 288.730458 
L 81.087577 288.054704 
L 82.90129 288.054704 
L 82.90129 287.37895 
L 83.808146 287.37895 
L 83.808146 158.985654 
L 84.715003 158.985654 
L 84.715003 158.309899 
L 85.621859 158.309899 
L 85.621859 152.228112 
L 86.528715 152.228112 
L 86.528715 150.876603 
L 87.435571 150.876603 
L 87.435571 143.443307 
L 88.342428 143.443307 
L 88.342428 127.900961 
L 89.249284 127.900961 
L 89.249284 126.549453 
L 90.15614 126.549453 
L 90.15614 117.764648 
L 91.062996 117.764648 
L 91.062996 114.385877 
L 91.969853 114.385877 
L 91.969853 108.304089 
L 92.876709 108.304089 
L 92.876709 106.276827 
L 93.783565 106.276827 
L 93.783565 104.925318 
L 94.690422 104.925318 
L 94.690422 100.195039 
L 96.504134 100.195039 
L 96.504134 99.519285 
L 97.41099 99.519285 
L 97.41099 97.492022 
L 98.317847 97.492022 
L 98.317847 96.140514 
L 101.038415 96.140514 
L 101.038415 95.46476 
L 101.945272 95.46476 
L 101.945272 94.789006 
L 103.758984 94.789006 
L 103.758984 93.437497 
L 104.665841 93.437497 
L 104.665841 90.73448 
L 105.572697 90.73448 
L 105.572697 89.382972 
L 106.479553 89.382972 
L 106.479553 87.355709 
L 107.386409 87.355709 
L 107.386409 83.301184 
L 111.013834 83.301184 
L 111.013834 82.62543 
L 112.827547 82.62543 
L 112.827547 81.949676 
L 113.734403 81.949676 
L 113.734403 79.922413 
L 114.64126 79.922413 
L 114.64126 78.570905 
L 115.548116 78.570905 
L 115.548116 77.895151 
L 117.361828 77.895151 
L 117.361828 76.543642 
L 120.082397 76.543642 
L 120.082397 75.192134 
L 123.709822 75.192134 
L 123.709822 73.164872 
L 127.337247 73.164872 
L 127.337247 72.489117 
L 128.244104 72.489117 
L 128.244104 71.813363 
L 138.219523 71.813363 
L 138.219523 71.137609 
L 139.126379 71.137609 
L 139.126379 70.461855 
L 140.940091 70.461855 
L 140.940091 69.786101 
L 141.846948 69.786101 
L 141.846948 69.110346 
L 150.91551 69.110346 
L 150.91551 68.434592 
L 159.984073 68.434592 
L 159.984073 67.083084 
L 166.332067 67.083084 
L 166.332067 66.40733 
L 167.238923 66.40733 
L 167.238923 65.731575 
L 169.959492 65.731575 
L 169.959492 65.055821 
L 170.866348 65.055821 
L 170.866348 64.380067 
L 181.748624 64.380067 
L 181.748624 63.704313 
L 190.817186 63.704313 
L 191.724043 63.028559 
L 193.537755 63.028559 
L 193.537755 62.352804 
L 197.16518 62.352804 
L 197.16518 61.67705 
L 198.072037 61.67705 
L 198.072037 61.001296 
L 239.787425 61.001296 
L 239.787425 60.325542 
L 245.228563 60.325542 
L 245.228563 58.974034 
L 250.6697 58.974034 
L 250.6697 58.298279 
L 257.924551 58.298279 
L 257.924551 56.946771 
L 264.272544 56.946771 
L 264.272544 56.271017 
L 266.993113 56.271017 
L 266.993113 55.595263 
L 307.801646 55.595263 
L 307.801646 54.919508 
L 313.242783 54.919508 
L 313.242783 54.243754 
L 342.262184 54.243754 
L 342.262184 53.568 
L 398.487273 53.568 
L 398.487273 53.568 
" style="fill:none;stroke:#9467bd;stroke-linecap:square;stroke-width:2;"/>
   </g>
   <g id="line2d_22">
    <path clip-path="url(#p147f3030da)" d="M 73.832727 295.488 
L 398.487273 53.568 
" style="fill:none;stroke:#000000;stroke-dasharray:5.55,2.4;stroke-dashoffset:0;stroke-width:1.5;"/>
   </g>
   <g id="line2d_23">
    <path clip-path="url(#p147f3030da)" d="M 73.832727 295.488 
L 73.832727 293.460737 
L 75.64644 293.460737 
L 75.64644 286.027441 
L 76.553296 286.027441 
L 76.553296 282.64867 
L 77.460152 282.64867 
L 77.460152 271.160849 
L 79.273865 271.160849 
L 79.273865 254.266994 
L 80.180721 254.266994 
L 80.180721 253.59124 
L 81.087577 253.59124 
L 81.087577 248.860961 
L 81.994434 248.860961 
L 81.994434 238.724648 
L 82.90129 238.724648 
L 82.90129 226.561073 
L 83.808146 226.561073 
L 83.808146 221.155039 
L 84.715003 221.155039 
L 84.715003 208.991464 
L 85.621859 208.991464 
L 85.621859 207.639955 
L 86.528715 207.639955 
L 86.528715 204.936939 
L 87.435571 204.936939 
L 87.435571 200.882413 
L 88.342428 200.882413 
L 88.342428 198.179397 
L 89.249284 198.179397 
L 89.249284 182.63705 
L 90.15614 182.63705 
L 90.15614 177.906771 
L 91.062996 177.906771 
L 91.062996 171.149229 
L 91.969853 171.149229 
L 91.969853 167.770458 
L 92.876709 167.770458 
L 92.876709 163.040179 
L 93.783565 163.040179 
L 93.783565 161.012916 
L 94.690422 161.012916 
L 94.690422 153.57962 
L 95.597278 153.57962 
L 95.597278 149.525095 
L 97.41099 149.525095 
L 97.41099 148.173587 
L 98.317847 148.173587 
L 98.317847 144.119061 
L 99.224703 144.119061 
L 99.224703 142.091799 
L 100.131559 142.091799 
L 100.131559 141.416045 
L 101.038415 141.416045 
L 101.038415 140.064536 
L 101.945272 140.064536 
L 101.945272 132.63124 
L 102.852128 132.63124 
L 102.852128 127.225207 
L 103.758984 127.225207 
L 103.758984 123.846436 
L 107.386409 123.846436 
L 107.386409 121.143419 
L 108.293266 121.143419 
L 108.293266 120.467665 
L 109.200122 120.467665 
L 109.200122 119.791911 
L 110.106978 119.791911 
L 110.106978 115.061631 
L 111.013834 115.061631 
L 111.013834 114.385877 
L 112.827547 114.385877 
L 112.827547 113.710123 
L 115.548116 113.710123 
L 115.548116 113.034369 
L 118.268685 113.034369 
L 118.268685 111.68286 
L 119.175541 111.68286 
L 119.175541 111.007106 
L 120.082397 111.007106 
L 120.082397 110.331352 
L 121.89611 110.331352 
L 121.89611 109.655598 
L 122.802966 109.655598 
L 122.802966 107.628335 
L 123.709822 107.628335 
L 123.709822 106.952581 
L 126.430391 106.952581 
L 126.430391 105.601073 
L 130.964672 105.601073 
L 130.964672 103.57381 
L 134.592098 103.57381 
L 134.592098 102.222302 
L 135.498954 102.222302 
L 135.498954 101.546547 
L 137.312666 101.546547 
L 137.312666 100.195039 
L 138.219523 100.195039 
L 138.219523 99.519285 
L 140.033235 99.519285 
L 140.033235 98.843531 
L 140.940091 98.843531 
L 140.940091 98.167777 
L 141.846948 98.167777 
L 141.846948 96.816268 
L 142.753804 96.816268 
L 142.753804 94.789006 
L 146.381229 94.789006 
L 146.381229 94.113251 
L 148.194942 94.113251 
L 148.194942 92.761743 
L 150.008654 92.761743 
L 150.008654 92.085989 
L 151.822367 92.085989 
L 151.822367 91.410235 
L 152.729223 91.410235 
L 152.729223 90.73448 
L 156.356648 90.73448 
L 156.356648 90.058726 
L 157.263504 90.058726 
L 157.263504 89.382972 
L 158.170361 89.382972 
L 158.170361 88.707218 
L 159.077217 88.707218 
L 159.077217 87.355709 
L 161.797786 87.355709 
L 161.797786 86.004201 
L 163.611498 86.004201 
L 163.611498 85.328447 
L 168.14578 85.328447 
L 168.14578 84.652693 
L 169.052636 84.652693 
L 169.052636 83.976939 
L 171.773205 83.976939 
L 171.773205 82.62543 
L 173.586917 82.62543 
L 173.586917 81.949676 
L 178.121199 81.949676 
L 178.121199 81.273922 
L 187.189761 81.273922 
L 187.189761 80.598168 
L 189.003474 80.598168 
L 189.003474 79.922413 
L 191.724043 79.922413 
L 191.724043 79.246659 
L 193.537755 79.246659 
L 193.537755 78.570905 
L 194.444611 78.570905 
L 194.444611 77.895151 
L 195.351468 77.895151 
L 195.351468 77.219397 
L 197.16518 77.219397 
L 197.16518 76.543642 
L 199.885749 76.543642 
L 199.885749 75.867888 
L 204.42003 75.867888 
L 204.42003 75.192134 
L 216.209162 75.192134 
L 216.209162 74.51638 
L 221.6503 74.51638 
L 221.6503 73.840626 
L 247.042275 73.840626 
L 247.042275 73.164872 
L 247.949132 73.164872 
L 247.949132 71.813363 
L 251.576557 71.813363 
L 251.576557 71.137609 
L 252.483413 71.137609 
L 252.483413 70.461855 
L 257.924551 70.461855 
L 257.924551 69.786101 
L 259.738263 69.786101 
L 259.738263 68.434592 
L 264.272544 68.434592 
L 264.272544 67.758838 
L 266.993113 67.758838 
L 266.993113 67.083084 
L 267.89997 67.083084 
L 267.89997 66.40733 
L 271.527395 66.40733 
L 271.527395 65.731575 
L 290.571376 65.731575 
L 290.571376 65.055821 
L 305.987933 65.055821 
L 305.987933 64.380067 
L 312.335927 64.380067 
L 312.335927 63.704313 
L 314.149639 63.704313 
L 314.149639 62.352804 
L 318.683921 62.352804 
L 318.683921 61.67705 
L 319.590777 61.67705 
L 319.590777 61.001296 
L 320.497633 61.001296 
L 320.497633 60.325542 
L 321.40449 60.325542 
L 321.40449 59.649788 
L 325.938771 59.649788 
L 325.938771 58.974034 
L 327.752483 58.974034 
L 327.752483 58.298279 
L 340.448471 58.298279 
L 340.448471 57.622525 
L 343.16904 57.622525 
L 343.16904 56.946771 
L 348.610178 56.946771 
L 348.610178 56.271017 
L 357.67874 56.271017 
L 357.67874 55.595263 
L 368.561016 55.595263 
L 368.561016 54.919508 
L 397.580416 54.919508 
L 397.580416 53.568 
L 398.487273 53.568 
L 398.487273 53.568 
" style="fill:none;stroke:#8c564b;stroke-linecap:square;stroke-width:2;"/>
   </g>
   <g id="line2d_24">
    <path clip-path="url(#p147f3030da)" d="M 73.832727 295.488 
L 398.487273 53.568 
" style="fill:none;stroke:#000000;stroke-dasharray:5.55,2.4;stroke-dashoffset:0;stroke-width:1.5;"/>
   </g>
   <g id="line2d_25">
    <path clip-path="url(#p147f3030da)" d="M 73.832727 295.488 
L 73.832727 294.812246 
L 73.832727 294.136492 
L 73.832727 290.081966 
L 73.832727 288.730458 
L 73.832727 286.027441 
L 73.832727 279.945654 
L 73.832727 275.215374 
L 73.832727 271.836603 
L 73.832727 267.782078 
L 73.832727 254.266994 
L 74.739584 243.454927 
L 74.739584 235.345877 
L 75.64644 229.264089 
L 76.553296 222.506547 
L 76.553296 215.073251 
L 78.367009 208.315709 
L 78.367009 200.206659 
L 78.367009 195.47638 
L 78.367009 186.015821 
L 79.273865 179.258279 
L 80.180721 173.852246 
L 81.087577 172.500737 
L 81.994434 165.743196 
L 82.90129 160.337162 
L 83.808146 158.985654 
L 83.808146 155.606883 
L 84.715003 149.525095 
L 88.342428 146.822078 
L 88.342428 140.740291 
L 88.342428 137.36152 
L 90.15614 133.982749 
L 91.062996 131.279732 
L 92.876709 127.900961 
L 93.783565 123.846436 
L 95.597278 119.116156 
L 96.504134 113.710123 
L 99.224703 110.331352 
L 100.131559 106.952581 
L 100.131559 104.925318 
L 101.038415 103.57381 
L 104.665841 102.222302 
L 105.572697 98.167777 
L 106.479553 96.140514 
L 108.293266 93.437497 
L 109.200122 90.058726 
L 112.827547 89.382972 
L 115.548116 87.355709 
L 118.268685 84.652693 
L 121.89611 81.273922 
L 123.709822 79.922413 
L 128.244104 77.219397 
L 130.057816 75.192134 
L 133.685241 75.192134 
L 135.498954 75.192134 
L 140.033235 73.164872 
L 141.846948 73.164872 
L 143.66066 70.461855 
L 145.474373 69.786101 
L 151.822367 69.110346 
L 155.449792 67.758838 
L 158.170361 65.731575 
L 161.797786 65.731575 
L 164.518354 65.731575 
L 169.052636 65.731575 
L 171.773205 65.055821 
L 172.680061 64.380067 
L 175.40063 63.704313 
L 179.028055 63.704313 
L 182.65548 63.028559 
L 183.562336 63.028559 
L 187.189761 63.028559 
L 189.91033 63.028559 
L 193.537755 61.67705 
L 198.978893 61.67705 
L 203.513174 61.67705 
L 208.954312 61.001296 
L 210.768024 60.325542 
L 218.022875 59.649788 
L 219.836587 58.298279 
L 227.091437 57.622525 
L 232.532575 56.946771 
L 242.507994 56.946771 
L 247.949132 56.946771 
L 252.483413 56.946771 
L 260.645119 56.271017 
L 264.272544 55.595263 
L 269.713682 54.919508 
L 282.40967 54.919508 
L 290.571376 54.919508 
L 300.546795 54.919508 
L 307.801646 54.919508 
L 316.870208 54.243754 
L 326.845627 53.568 
L 342.262184 53.568 
L 351.330747 53.568 
L 362.213022 53.568 
L 374.90901 53.568 
L 383.070716 53.568 
L 390.325566 53.568 
L 398.487273 53.568 
" style="fill:none;stroke:#e377c2;stroke-linecap:square;stroke-width:2;"/>
   </g>
   <g id="line2d_26">
    <path clip-path="url(#p147f3030da)" d="M 73.832727 295.488 
L 398.487273 53.568 
" style="fill:none;stroke:#000000;stroke-dasharray:5.55,2.4;stroke-dashoffset:0;stroke-width:1.5;"/>
   </g>
   <g id="line2d_27">
    <path clip-path="url(#p147f3030da)" d="M 73.832727 295.488 
L 75.64644 295.488 
L 75.64644 293.460737 
L 76.553296 293.460737 
L 76.553296 292.784983 
L 77.460152 292.784983 
L 77.460152 279.945654 
L 78.367009 279.945654 
L 78.367009 279.269899 
L 79.273865 279.269899 
L 79.273865 277.242637 
L 80.180721 277.242637 
L 80.180721 251.563978 
L 81.087577 251.563978 
L 81.087577 250.888223 
L 81.994434 250.888223 
L 81.994434 235.345877 
L 82.90129 235.345877 
L 82.90129 234.670123 
L 83.808146 234.670123 
L 83.808146 213.045989 
L 85.621859 213.045989 
L 85.621859 206.288447 
L 87.435571 206.288447 
L 87.435571 200.882413 
L 88.342428 200.882413 
L 88.342428 190.070346 
L 89.249284 190.070346 
L 89.249284 188.043084 
L 91.062996 188.043084 
L 91.062996 180.609788 
L 91.969853 180.609788 
L 91.969853 174.528 
L 93.783565 174.528 
L 93.783565 173.176492 
L 94.690422 173.176492 
L 94.690422 171.149229 
L 95.597278 171.149229 
L 95.597278 162.364425 
L 96.504134 162.364425 
L 96.504134 156.958391 
L 97.41099 156.958391 
L 97.41099 150.200849 
L 100.131559 150.200849 
L 100.131559 147.497832 
L 101.038415 147.497832 
L 101.038415 146.822078 
L 102.852128 146.822078 
L 102.852128 142.091799 
L 103.758984 142.091799 
L 103.758984 132.63124 
L 105.572697 132.63124 
L 105.572697 127.900961 
L 106.479553 127.900961 
L 106.479553 124.52219 
L 107.386409 124.52219 
L 107.386409 121.819173 
L 108.293266 121.819173 
L 108.293266 120.467665 
L 109.200122 120.467665 
L 109.200122 119.116156 
L 110.106978 119.116156 
L 110.106978 117.764648 
L 111.013834 117.764648 
L 111.013834 115.737385 
L 111.920691 115.737385 
L 111.920691 113.710123 
L 112.827547 113.710123 
L 112.827547 113.034369 
L 113.734403 113.034369 
L 113.734403 108.979844 
L 114.64126 108.979844 
L 114.64126 106.276827 
L 115.548116 106.276827 
L 115.548116 102.898056 
L 116.454972 102.898056 
L 116.454972 102.222302 
L 118.268685 102.222302 
L 118.268685 100.195039 
L 120.082397 100.195039 
L 120.082397 99.519285 
L 126.430391 99.519285 
L 126.430391 98.843531 
L 129.15096 98.843531 
L 129.15096 98.167777 
L 130.057816 98.167777 
L 130.057816 96.140514 
L 133.685241 96.140514 
L 133.685241 95.46476 
L 134.592098 95.46476 
L 134.592098 94.789006 
L 138.219523 94.789006 
L 138.219523 93.437497 
L 139.126379 93.437497 
L 139.126379 92.085989 
L 145.474373 92.085989 
L 145.474373 90.73448 
L 154.542936 90.73448 
L 154.542936 90.058726 
L 155.449792 90.058726 
L 155.449792 85.328447 
L 157.263504 85.328447 
L 157.263504 84.652693 
L 159.077217 84.652693 
L 159.077217 83.976939 
L 160.890929 83.976939 
L 160.890929 83.301184 
L 166.332067 83.301184 
L 166.332067 81.273922 
L 169.959492 81.273922 
L 169.959492 80.598168 
L 179.028055 80.598168 
L 179.028055 79.922413 
L 185.376049 79.922413 
L 185.376049 79.246659 
L 190.817186 79.246659 
L 190.817186 78.570905 
L 192.630899 78.570905 
L 192.630899 77.219397 
L 198.978893 77.219397 
L 198.978893 76.543642 
L 199.885749 76.543642 
L 199.885749 75.867888 
L 208.047456 75.867888 
L 208.047456 75.192134 
L 223.464012 75.192134 
L 223.464012 74.51638 
L 224.370868 74.51638 
L 224.370868 73.840626 
L 229.812006 73.840626 
L 229.812006 73.164872 
L 235.253144 73.164872 
L 235.253144 72.489117 
L 247.042275 72.489117 
L 247.042275 71.813363 
L 250.6697 71.813363 
L 250.6697 71.137609 
L 262.458832 71.137609 
L 262.458832 70.461855 
L 263.365688 70.461855 
L 263.365688 69.786101 
L 266.086257 69.786101 
L 266.086257 69.110346 
L 270.620538 69.110346 
L 270.620538 68.434592 
L 271.527395 68.434592 
L 271.527395 67.758838 
L 272.434251 67.758838 
L 272.434251 67.083084 
L 274.247963 67.083084 
L 274.247963 66.40733 
L 278.782245 66.40733 
L 278.782245 65.731575 
L 282.40967 65.731575 
L 282.40967 65.055821 
L 286.943951 65.055821 
L 286.943951 64.380067 
L 289.66452 64.380067 
L 289.66452 63.028559 
L 295.105658 63.028559 
L 295.105658 62.352804 
L 296.91937 62.352804 
L 296.91937 61.67705 
L 303.267364 61.67705 
L 303.267364 61.001296 
L 314.149639 61.001296 
L 314.149639 59.649788 
L 319.590777 59.649788 
L 319.590777 58.974034 
L 329.566196 58.974034 
L 329.566196 58.298279 
L 344.982753 58.298279 
L 344.982753 57.622525 
L 361.306166 57.622525 
L 361.306166 56.946771 
L 369.467872 56.946771 
L 369.467872 54.919508 
L 395.766704 54.919508 
L 395.766704 54.243754 
L 398.487273 54.243754 
L 398.487273 53.568 
L 398.487273 53.568 
" style="fill:none;stroke:#7f7f7f;stroke-linecap:square;stroke-width:2;"/>
   </g>
   <g id="line2d_28">
    <path clip-path="url(#p147f3030da)" d="M 73.832727 295.488 
L 398.487273 53.568 
" style="fill:none;stroke:#000000;stroke-dasharray:5.55,2.4;stroke-dashoffset:0;stroke-width:1.5;"/>
   </g>
   <g id="line2d_29">
    <path clip-path="url(#p147f3030da)" d="M 73.832727 295.488 
L 174.493773 148.849341 
L 176.307486 145.47057 
L 177.214342 143.443307 
L 178.121199 143.443307 
L 178.121199 142.091799 
L 179.934911 142.091799 
L 179.934911 140.740291 
L 180.841767 140.064536 
L 180.841767 138.037274 
L 181.748624 137.36152 
L 185.376049 137.36152 
L 185.376049 135.334257 
L 186.282905 134.658503 
L 186.282905 131.955486 
L 187.189761 131.955486 
L 187.189761 131.279732 
L 189.91033 131.279732 
L 189.91033 130.603978 
L 191.724043 130.603978 
L 191.724043 129.928223 
L 195.351468 129.928223 
L 195.351468 125.197944 
L 196.258324 125.197944 
L 196.258324 123.846436 
L 197.16518 123.846436 
L 197.16518 122.494927 
L 198.072037 122.494927 
L 198.072037 121.819173 
L 198.978893 121.819173 
L 198.978893 119.116156 
L 202.606318 119.116156 
L 202.606318 118.440402 
L 204.42003 118.440402 
L 204.42003 117.764648 
L 207.140599 117.764648 
L 207.140599 117.088894 
L 212.581737 117.088894 
L 212.581737 113.710123 
L 213.488593 113.710123 
L 213.488593 112.358615 
L 214.395449 112.358615 
L 214.395449 110.331352 
L 221.6503 110.331352 
L 221.6503 109.655598 
L 222.557156 109.655598 
L 222.557156 108.979844 
L 223.464012 108.979844 
L 223.464012 108.304089 
L 224.370868 108.304089 
L 224.370868 107.628335 
L 227.091437 107.628335 
L 227.091437 106.952581 
L 227.998294 106.952581 
L 227.998294 106.276827 
L 236.16 106.276827 
L 236.16 105.601073 
L 237.973713 105.601073 
L 237.973713 104.925318 
L 238.880569 104.925318 
L 238.880569 103.57381 
L 241.601138 103.57381 
L 241.601138 102.898056 
L 246.135419 102.898056 
L 246.135419 102.222302 
L 248.855988 102.222302 
L 248.855988 101.546547 
L 252.483413 101.546547 
L 252.483413 97.492022 
L 253.390269 97.492022 
L 253.390269 96.816268 
L 257.924551 96.816268 
L 257.924551 96.140514 
L 258.831407 96.140514 
L 258.831407 95.46476 
L 264.272544 95.46476 
L 264.272544 94.789006 
L 267.89997 94.789006 
L 267.89997 94.113251 
L 276.968532 94.113251 
L 276.968532 93.437497 
L 280.595957 93.437497 
L 280.595957 92.761743 
L 284.223382 92.761743 
L 284.223382 90.058726 
L 285.130239 90.058726 
L 285.130239 89.382972 
L 287.850808 89.382972 
L 287.850808 88.707218 
L 289.66452 88.707218 
L 289.66452 87.355709 
L 296.012514 87.355709 
L 296.012514 86.679955 
L 301.453652 86.679955 
L 301.453652 86.004201 
L 305.987933 86.004201 
L 305.987933 85.328447 
L 315.963352 85.328447 
L 315.963352 83.301184 
L 317.777064 83.301184 
L 317.777064 82.62543 
L 321.40449 82.62543 
L 321.40449 81.949676 
L 322.311346 81.949676 
L 322.311346 76.543642 
L 323.218202 76.543642 
L 323.218202 75.192134 
L 324.125058 75.192134 
L 324.125058 74.51638 
L 326.845627 74.51638 
L 326.845627 73.840626 
L 327.752483 73.840626 
L 327.752483 73.164872 
L 329.566196 73.164872 
L 329.566196 70.461855 
L 330.473052 70.461855 
L 330.473052 69.786101 
L 331.379909 69.786101 
L 331.379909 69.110346 
L 332.286765 69.110346 
L 332.286765 66.40733 
L 334.100477 66.40733 
L 334.100477 65.731575 
L 335.91419 65.731575 
L 335.91419 65.055821 
L 337.727902 65.055821 
L 337.727902 64.380067 
L 339.541615 64.380067 
L 339.541615 63.704313 
L 340.448471 63.704313 
L 340.448471 63.028559 
L 341.355328 63.028559 
L 341.355328 61.67705 
L 344.075896 61.67705 
L 344.075896 61.001296 
L 349.517034 61.001296 
L 349.517034 60.325542 
L 351.330747 60.325542 
L 351.330747 58.974034 
L 359.492453 58.974034 
L 359.492453 58.298279 
L 361.306166 58.298279 
L 361.306166 57.622525 
L 374.90901 57.622525 
L 374.90901 56.271017 
L 379.443291 56.271017 
L 379.443291 55.595263 
L 388.511854 55.595263 
L 388.511854 54.243754 
L 396.67356 54.243754 
L 398.487273 53.568 
L 398.487273 53.568 
" style="fill:none;stroke:#bcbd22;stroke-linecap:square;stroke-width:2;"/>
   </g>
   <g id="line2d_30">
    <path clip-path="url(#p147f3030da)" d="M 73.832727 295.488 
L 398.487273 53.568 
" style="fill:none;stroke:#000000;stroke-dasharray:5.55,2.4;stroke-dashoffset:0;stroke-width:1.5;"/>
   </g>
   <g id="line2d_31">
    <path clip-path="url(#p147f3030da)" d="M 73.832727 295.488 
L 79.273865 251.563978 
L 96.504134 193.449117 
L 125.523535 133.306994 
L 179.934911 92.761743 
L 285.130239 68.434592 
L 398.487273 53.568 
" style="fill:none;stroke:#17becf;stroke-linecap:square;stroke-width:2;"/>
   </g>
   <g id="line2d_32">
    <path clip-path="url(#p147f3030da)" d="M 73.832727 295.488 
L 398.487273 53.568 
" style="fill:none;stroke:#000000;stroke-dasharray:5.55,2.4;stroke-dashoffset:0;stroke-width:1.5;"/>
   </g>
   <g id="line2d_33">
    <path clip-path="url(#p147f3030da)" d="M 73.832727 295.488 
L 86.528715 240.076156 
L 87.435571 238.724648 
L 87.435571 237.37314 
L 88.342428 236.021631 
L 89.249284 236.021631 
L 89.249284 229.264089 
L 90.15614 229.264089 
L 90.15614 226.561073 
L 91.062996 226.561073 
L 91.062996 223.182302 
L 91.969853 223.182302 
L 91.969853 222.506547 
L 93.783565 222.506547 
L 93.783565 219.803531 
L 94.690422 219.803531 
L 94.690422 218.452022 
L 97.41099 218.452022 
L 97.41099 214.397497 
L 98.317847 214.397497 
L 98.317847 213.721743 
L 99.224703 213.721743 
L 99.224703 204.261184 
L 101.945272 204.261184 
L 101.945272 203.58543 
L 103.758984 203.58543 
L 103.758984 200.882413 
L 104.665841 200.882413 
L 104.665841 200.206659 
L 105.572697 200.206659 
L 105.572697 198.855151 
L 106.479553 198.855151 
L 106.479553 198.179397 
L 107.386409 198.179397 
L 107.386409 194.124872 
L 108.293266 194.124872 
L 108.293266 193.449117 
L 109.200122 193.449117 
L 109.200122 191.421855 
L 111.013834 191.421855 
L 111.013834 187.36733 
L 111.920691 187.36733 
L 111.920691 185.340067 
L 112.827547 185.340067 
L 112.827547 180.609788 
L 113.734403 180.609788 
L 113.734403 176.555263 
L 114.64126 176.555263 
L 114.64126 174.528 
L 115.548116 174.528 
L 115.548116 173.852246 
L 116.454972 173.852246 
L 116.454972 173.176492 
L 120.082397 173.176492 
L 120.082397 170.473475 
L 122.802966 170.473475 
L 122.802966 164.391687 
L 123.709822 164.391687 
L 123.709822 161.012916 
L 125.523535 161.012916 
L 125.523535 159.661408 
L 126.430391 159.661408 
L 126.430391 158.985654 
L 127.337247 158.985654 
L 127.337247 154.931128 
L 128.244104 154.931128 
L 128.244104 152.903866 
L 129.15096 152.903866 
L 129.15096 150.876603 
L 133.685241 150.876603 
L 133.685241 148.173587 
L 135.498954 148.173587 
L 135.498954 145.47057 
L 137.312666 145.47057 
L 137.312666 144.794816 
L 140.940091 144.794816 
L 140.940091 144.119061 
L 141.846948 144.119061 
L 141.846948 143.443307 
L 142.753804 143.443307 
L 142.753804 142.767553 
L 143.66066 142.767553 
L 143.66066 142.091799 
L 144.567517 142.091799 
L 144.567517 140.740291 
L 145.474373 140.740291 
L 145.474373 140.064536 
L 146.381229 140.064536 
L 146.381229 138.713028 
L 147.288085 138.713028 
L 147.288085 138.037274 
L 150.008654 138.037274 
L 150.008654 137.36152 
L 150.91551 137.36152 
L 150.91551 136.010011 
L 152.729223 136.010011 
L 152.729223 135.334257 
L 154.542936 135.334257 
L 154.542936 133.982749 
L 155.449792 133.982749 
L 155.449792 133.306994 
L 157.263504 133.306994 
L 157.263504 132.63124 
L 161.797786 132.63124 
L 161.797786 131.955486 
L 165.425211 131.955486 
L 165.425211 131.279732 
L 167.238923 131.279732 
L 167.238923 128.576715 
L 169.052636 128.576715 
L 169.052636 121.143419 
L 170.866348 121.143419 
L 170.866348 118.440402 
L 174.493773 118.440402 
L 174.493773 116.41314 
L 176.307486 116.41314 
L 176.307486 115.737385 
L 179.934911 115.737385 
L 179.934911 112.358615 
L 180.841767 112.358615 
L 180.841767 111.68286 
L 182.65548 111.68286 
L 182.65548 111.007106 
L 189.91033 111.007106 
L 189.91033 110.331352 
L 190.817186 110.331352 
L 190.817186 107.628335 
L 193.537755 107.628335 
L 193.537755 105.601073 
L 194.444611 105.601073 
L 194.444611 104.925318 
L 196.258324 104.925318 
L 196.258324 103.57381 
L 197.16518 103.57381 
L 197.16518 102.222302 
L 198.978893 102.222302 
L 198.978893 100.870793 
L 200.792605 100.870793 
L 200.792605 99.519285 
L 201.699462 99.519285 
L 201.699462 98.843531 
L 202.606318 98.843531 
L 202.606318 96.140514 
L 207.140599 96.140514 
L 207.140599 94.789006 
L 210.768024 94.789006 
L 210.768024 93.437497 
L 211.674881 93.437497 
L 211.674881 92.761743 
L 215.302306 92.761743 
L 215.302306 92.085989 
L 227.091437 92.085989 
L 227.091437 90.058726 
L 227.998294 90.058726 
L 227.998294 89.382972 
L 229.812006 89.382972 
L 229.812006 88.707218 
L 230.718862 88.707218 
L 230.718862 88.031464 
L 235.253144 88.031464 
L 235.253144 87.355709 
L 240.694281 87.355709 
L 240.694281 86.679955 
L 241.601138 86.679955 
L 241.601138 86.004201 
L 242.507994 86.004201 
L 242.507994 85.328447 
L 243.41485 85.328447 
L 243.41485 84.652693 
L 245.228563 84.652693 
L 245.228563 83.301184 
L 246.135419 83.301184 
L 246.135419 82.62543 
L 247.042275 82.62543 
L 247.042275 81.273922 
L 249.762844 81.273922 
L 249.762844 79.922413 
L 252.483413 79.922413 
L 252.483413 77.895151 
L 260.645119 77.895151 
L 260.645119 76.543642 
L 264.272544 76.543642 
L 264.272544 75.867888 
L 293.291945 75.867888 
L 293.291945 75.192134 
L 294.198801 75.192134 
L 294.198801 74.51638 
L 299.639939 74.51638 
L 299.639939 73.840626 
L 318.683921 73.840626 
L 318.683921 73.164872 
L 324.125058 73.164872 
L 324.125058 71.813363 
L 325.938771 71.813363 
L 325.938771 71.137609 
L 329.566196 71.137609 
L 329.566196 70.461855 
L 339.541615 70.461855 
L 339.541615 69.786101 
L 344.075896 69.786101 
L 344.075896 68.434592 
L 345.889609 68.434592 
L 345.889609 67.758838 
L 350.42389 67.758838 
L 350.42389 67.083084 
L 351.330747 67.083084 
L 351.330747 66.40733 
L 353.144459 66.40733 
L 353.144459 65.731575 
L 354.051315 65.731575 
L 354.051315 65.055821 
L 361.306166 65.055821 
L 361.306166 64.380067 
L 362.213022 64.380067 
L 362.213022 60.325542 
L 363.119878 60.325542 
L 363.119878 59.649788 
L 364.933591 59.649788 
L 364.933591 58.298279 
L 365.840447 58.298279 
L 365.840447 56.946771 
L 367.654159 56.946771 
L 367.654159 55.595263 
L 368.561016 55.595263 
L 368.561016 54.919508 
L 385.791285 54.919508 
L 385.791285 54.243754 
L 395.766704 54.243754 
L 398.487273 53.568 
L 398.487273 53.568 
" style="fill:none;stroke:#1f77b4;stroke-linecap:square;stroke-width:2;"/>
   </g>
   <g id="line2d_34">
    <path clip-path="url(#p147f3030da)" d="M 73.832727 295.488 
L 398.487273 53.568 
" style="fill:none;stroke:#000000;stroke-dasharray:5.55,2.4;stroke-dashoffset:0;stroke-width:1.5;"/>
   </g>
   <g id="patch_3">
    <path d="M 57.6 307.584 
L 57.6 41.472 
" style="fill:none;stroke:#000000;stroke-linecap:square;stroke-linejoin:miter;stroke-width:0.8;"/>
   </g>
   <g id="patch_4">
    <path d="M 414.72 307.584 
L 414.72 41.472 
" style="fill:none;stroke:#000000;stroke-linecap:square;stroke-linejoin:miter;stroke-width:0.8;"/>
   </g>
   <g id="patch_5">
    <path d="M 57.6 307.584 
L 414.72 307.584 
" style="fill:none;stroke:#000000;stroke-linecap:square;stroke-linejoin:miter;stroke-width:0.8;"/>
   </g>
   <g id="patch_6">
    <path d="M 57.6 41.472 
L 414.72 41.472 
" style="fill:none;stroke:#000000;stroke-linecap:square;stroke-linejoin:miter;stroke-width:0.8;"/>
   </g>
   <g id="text_13">
    <!-- ROC -->
    <defs>
     <path d="M 44.390625 34.1875 
Q 47.5625 33.109375 50.5625 29.59375 
Q 53.5625 26.078125 56.59375 19.921875 
L 66.609375 0 
L 56 0 
L 46.6875 18.703125 
Q 43.0625 26.03125 39.671875 28.421875 
Q 36.28125 30.8125 30.421875 30.8125 
L 19.671875 30.8125 
L 19.671875 0 
L 9.8125 0 
L 9.8125 72.90625 
L 32.078125 72.90625 
Q 44.578125 72.90625 50.734375 67.671875 
Q 56.890625 62.453125 56.890625 51.90625 
Q 56.890625 45.015625 53.6875 40.46875 
Q 50.484375 35.9375 44.390625 34.1875 
z
M 19.671875 64.796875 
L 19.671875 38.921875 
L 32.078125 38.921875 
Q 39.203125 38.921875 42.84375 42.21875 
Q 46.484375 45.515625 46.484375 51.90625 
Q 46.484375 58.296875 42.84375 61.546875 
Q 39.203125 64.796875 32.078125 64.796875 
z
" id="DejaVuSans-52"/>
     <path d="M 39.40625 66.21875 
Q 28.65625 66.21875 22.328125 58.203125 
Q 16.015625 50.203125 16.015625 36.375 
Q 16.015625 22.609375 22.328125 14.59375 
Q 28.65625 6.59375 39.40625 6.59375 
Q 50.140625 6.59375 56.421875 14.59375 
Q 62.703125 22.609375 62.703125 36.375 
Q 62.703125 50.203125 56.421875 58.203125 
Q 50.140625 66.21875 39.40625 66.21875 
z
M 39.40625 74.21875 
Q 54.734375 74.21875 63.90625 63.9375 
Q 73.09375 53.65625 73.09375 36.375 
Q 73.09375 19.140625 63.90625 8.859375 
Q 54.734375 -1.421875 39.40625 -1.421875 
Q 24.03125 -1.421875 14.8125 8.828125 
Q 5.609375 19.09375 5.609375 36.375 
Q 5.609375 53.65625 14.8125 63.9375 
Q 24.03125 74.21875 39.40625 74.21875 
z
" id="DejaVuSans-4f"/>
     <path d="M 64.40625 67.28125 
L 64.40625 56.890625 
Q 59.421875 61.53125 53.78125 63.8125 
Q 48.140625 66.109375 41.796875 66.109375 
Q 29.296875 66.109375 22.65625 58.46875 
Q 16.015625 50.828125 16.015625 36.375 
Q 16.015625 21.96875 22.65625 14.328125 
Q 29.296875 6.6875 41.796875 6.6875 
Q 48.140625 6.6875 53.78125 8.984375 
Q 59.421875 11.28125 64.40625 15.921875 
L 64.40625 5.609375 
Q 59.234375 2.09375 53.4375 0.328125 
Q 47.65625 -1.421875 41.21875 -1.421875 
Q 24.65625 -1.421875 15.125 8.703125 
Q 5.609375 18.84375 5.609375 36.375 
Q 5.609375 53.953125 15.125 64.078125 
Q 24.65625 74.21875 41.21875 74.21875 
Q 47.75 74.21875 53.53125 72.484375 
Q 59.328125 70.75 64.40625 67.28125 
z
" id="DejaVuSans-43"/>
    </defs>
    <g transform="translate(223.078125 35.472)scale(0.12 -0.12)">
     <use xlink:href="#DejaVuSans-52"/>
     <use x="69.482422" xlink:href="#DejaVuSans-4f"/>
     <use x="148.193359" xlink:href="#DejaVuSans-43"/>
    </g>
   </g>
   <g id="legend_1">
    <g id="patch_7">
     <path d="M 348.85125 302.584 
L 407.72 302.584 
Q 409.72 302.584 409.72 300.584 
L 409.72 140.124625 
Q 409.72 138.124625 407.72 138.124625 
L 348.85125 138.124625 
Q 346.85125 138.124625 346.85125 140.124625 
L 346.85125 300.584 
Q 346.85125 302.584 348.85125 302.584 
z
" style="fill:#ffffff;opacity:0.8;stroke:#cccccc;stroke-linejoin:miter;"/>
    </g>
    <g id="line2d_35">
     <path d="M 350.85125 146.223062 
L 370.85125 146.223062 
" style="fill:none;stroke:#1f77b4;stroke-linecap:square;stroke-width:2;"/>
    </g>
    <g id="line2d_36"/>
    <g id="text_14">
     <!-- CART -->
     <defs>
      <path d="M 34.1875 63.1875 
L 20.796875 26.90625 
L 47.609375 26.90625 
z
M 28.609375 72.90625 
L 39.796875 72.90625 
L 67.578125 0 
L 57.328125 0 
L 50.6875 18.703125 
L 17.828125 18.703125 
L 11.1875 0 
L 0.78125 0 
z
" id="DejaVuSans-41"/>
      <path d="M -0.296875 72.90625 
L 61.375 72.90625 
L 61.375 64.59375 
L 35.5 64.59375 
L 35.5 0 
L 25.59375 0 
L 25.59375 64.59375 
L -0.296875 64.59375 
z
" id="DejaVuSans-54"/>
     </defs>
     <g transform="translate(378.85125 149.723062)scale(0.1 -0.1)">
      <use xlink:href="#DejaVuSans-43"/>
      <use x="69.824219" xlink:href="#DejaVuSans-41"/>
      <use x="138.232422" xlink:href="#DejaVuSans-52"/>
      <use x="207.605469" xlink:href="#DejaVuSans-54"/>
     </g>
    </g>
    <g id="line2d_37">
     <path d="M 350.85125 160.901188 
L 370.85125 160.901188 
" style="fill:none;stroke:#ff7f0e;stroke-linecap:square;stroke-width:2;"/>
    </g>
    <g id="line2d_38"/>
    <g id="text_15">
     <!-- ET -->
     <defs>
      <path d="M 9.8125 72.90625 
L 55.90625 72.90625 
L 55.90625 64.59375 
L 19.671875 64.59375 
L 19.671875 43.015625 
L 54.390625 43.015625 
L 54.390625 34.71875 
L 19.671875 34.71875 
L 19.671875 8.296875 
L 56.78125 8.296875 
L 56.78125 0 
L 9.8125 0 
z
" id="DejaVuSans-45"/>
     </defs>
     <g transform="translate(378.85125 164.401188)scale(0.1 -0.1)">
      <use xlink:href="#DejaVuSans-45"/>
      <use x="63.183594" xlink:href="#DejaVuSans-54"/>
     </g>
    </g>
    <g id="line2d_39">
     <path d="M 350.85125 175.579313 
L 370.85125 175.579313 
" style="fill:none;stroke:#2ca02c;stroke-linecap:square;stroke-width:2;"/>
    </g>
    <g id="line2d_40"/>
    <g id="text_16">
     <!-- GBM -->
     <defs>
      <path d="M 59.515625 10.40625 
L 59.515625 29.984375 
L 43.40625 29.984375 
L 43.40625 38.09375 
L 69.28125 38.09375 
L 69.28125 6.78125 
Q 63.578125 2.734375 56.6875 0.65625 
Q 49.8125 -1.421875 42 -1.421875 
Q 24.90625 -1.421875 15.25 8.5625 
Q 5.609375 18.5625 5.609375 36.375 
Q 5.609375 54.25 15.25 64.234375 
Q 24.90625 74.21875 42 74.21875 
Q 49.125 74.21875 55.546875 72.453125 
Q 61.96875 70.703125 67.390625 67.28125 
L 67.390625 56.78125 
Q 61.921875 61.421875 55.765625 63.765625 
Q 49.609375 66.109375 42.828125 66.109375 
Q 29.4375 66.109375 22.71875 58.640625 
Q 16.015625 51.171875 16.015625 36.375 
Q 16.015625 21.625 22.71875 14.15625 
Q 29.4375 6.6875 42.828125 6.6875 
Q 48.046875 6.6875 52.140625 7.59375 
Q 56.25 8.5 59.515625 10.40625 
z
" id="DejaVuSans-47"/>
      <path d="M 19.671875 34.8125 
L 19.671875 8.109375 
L 35.5 8.109375 
Q 43.453125 8.109375 47.28125 11.40625 
Q 51.125 14.703125 51.125 21.484375 
Q 51.125 28.328125 47.28125 31.5625 
Q 43.453125 34.8125 35.5 34.8125 
z
M 19.671875 64.796875 
L 19.671875 42.828125 
L 34.28125 42.828125 
Q 41.5 42.828125 45.03125 45.53125 
Q 48.578125 48.25 48.578125 53.8125 
Q 48.578125 59.328125 45.03125 62.0625 
Q 41.5 64.796875 34.28125 64.796875 
z
M 9.8125 72.90625 
L 35.015625 72.90625 
Q 46.296875 72.90625 52.390625 68.21875 
Q 58.5 63.53125 58.5 54.890625 
Q 58.5 48.1875 55.375 44.234375 
Q 52.25 40.28125 46.1875 39.3125 
Q 53.46875 37.75 57.5 32.78125 
Q 61.53125 27.828125 61.53125 20.40625 
Q 61.53125 10.640625 54.890625 5.3125 
Q 48.25 0 35.984375 0 
L 9.8125 0 
z
" id="DejaVuSans-42"/>
      <path d="M 9.8125 72.90625 
L 24.515625 72.90625 
L 43.109375 23.296875 
L 61.8125 72.90625 
L 76.515625 72.90625 
L 76.515625 0 
L 66.890625 0 
L 66.890625 64.015625 
L 48.09375 14.015625 
L 38.1875 14.015625 
L 19.390625 64.015625 
L 19.390625 0 
L 9.8125 0 
z
" id="DejaVuSans-4d"/>
     </defs>
     <g transform="translate(378.85125 179.079313)scale(0.1 -0.1)">
      <use xlink:href="#DejaVuSans-47"/>
      <use x="77.490234" xlink:href="#DejaVuSans-42"/>
      <use x="146.09375" xlink:href="#DejaVuSans-4d"/>
     </g>
    </g>
    <g id="line2d_41">
     <path d="M 350.85125 190.257438 
L 370.85125 190.257438 
" style="fill:none;stroke:#d62728;stroke-linecap:square;stroke-width:2;"/>
    </g>
    <g id="line2d_42"/>
    <g id="text_17">
     <!-- SVM -->
     <defs>
      <path d="M 53.515625 70.515625 
L 53.515625 60.890625 
Q 47.90625 63.578125 42.921875 64.890625 
Q 37.9375 66.21875 33.296875 66.21875 
Q 25.25 66.21875 20.875 63.09375 
Q 16.5 59.96875 16.5 54.203125 
Q 16.5 49.359375 19.40625 46.890625 
Q 22.3125 44.4375 30.421875 42.921875 
L 36.375 41.703125 
Q 47.40625 39.59375 52.65625 34.296875 
Q 57.90625 29 57.90625 20.125 
Q 57.90625 9.515625 50.796875 4.046875 
Q 43.703125 -1.421875 29.984375 -1.421875 
Q 24.8125 -1.421875 18.96875 -0.25 
Q 13.140625 0.921875 6.890625 3.21875 
L 6.890625 13.375 
Q 12.890625 10.015625 18.65625 8.296875 
Q 24.421875 6.59375 29.984375 6.59375 
Q 38.421875 6.59375 43.015625 9.90625 
Q 47.609375 13.234375 47.609375 19.390625 
Q 47.609375 24.75 44.3125 27.78125 
Q 41.015625 30.8125 33.5 32.328125 
L 27.484375 33.5 
Q 16.453125 35.6875 11.515625 40.375 
Q 6.59375 45.0625 6.59375 53.421875 
Q 6.59375 63.09375 13.40625 68.65625 
Q 20.21875 74.21875 32.171875 74.21875 
Q 37.3125 74.21875 42.625 73.28125 
Q 47.953125 72.359375 53.515625 70.515625 
z
" id="DejaVuSans-53"/>
      <path d="M 28.609375 0 
L 0.78125 72.90625 
L 11.078125 72.90625 
L 34.1875 11.53125 
L 57.328125 72.90625 
L 67.578125 72.90625 
L 39.796875 0 
z
" id="DejaVuSans-56"/>
     </defs>
     <g transform="translate(378.85125 193.757438)scale(0.1 -0.1)">
      <use xlink:href="#DejaVuSans-53"/>
      <use x="63.476562" xlink:href="#DejaVuSans-56"/>
      <use x="131.884766" xlink:href="#DejaVuSans-4d"/>
     </g>
    </g>
    <g id="line2d_43">
     <path d="M 350.85125 204.935563 
L 370.85125 204.935563 
" style="fill:none;stroke:#9467bd;stroke-linecap:square;stroke-width:2;"/>
    </g>
    <g id="line2d_44"/>
    <g id="text_18">
     <!-- AB -->
     <g transform="translate(378.85125 208.435563)scale(0.1 -0.1)">
      <use xlink:href="#DejaVuSans-41"/>
      <use x="68.408203" xlink:href="#DejaVuSans-42"/>
     </g>
    </g>
    <g id="line2d_45">
     <path d="M 350.85125 219.613688 
L 370.85125 219.613688 
" style="fill:none;stroke:#8c564b;stroke-linecap:square;stroke-width:2;"/>
    </g>
    <g id="line2d_46"/>
    <g id="text_19">
     <!-- LDA -->
     <defs>
      <path d="M 9.8125 72.90625 
L 19.671875 72.90625 
L 19.671875 8.296875 
L 55.171875 8.296875 
L 55.171875 0 
L 9.8125 0 
z
" id="DejaVuSans-4c"/>
      <path d="M 19.671875 64.796875 
L 19.671875 8.109375 
L 31.59375 8.109375 
Q 46.6875 8.109375 53.6875 14.9375 
Q 60.6875 21.78125 60.6875 36.53125 
Q 60.6875 51.171875 53.6875 57.984375 
Q 46.6875 64.796875 31.59375 64.796875 
z
M 9.8125 72.90625 
L 30.078125 72.90625 
Q 51.265625 72.90625 61.171875 64.09375 
Q 71.09375 55.28125 71.09375 36.53125 
Q 71.09375 17.671875 61.125 8.828125 
Q 51.171875 0 30.078125 0 
L 9.8125 0 
z
" id="DejaVuSans-44"/>
     </defs>
     <g transform="translate(378.85125 223.113688)scale(0.1 -0.1)">
      <use xlink:href="#DejaVuSans-4c"/>
      <use x="55.712891" xlink:href="#DejaVuSans-44"/>
      <use x="132.699219" xlink:href="#DejaVuSans-41"/>
     </g>
    </g>
    <g id="line2d_47">
     <path d="M 350.85125 234.291812 
L 370.85125 234.291812 
" style="fill:none;stroke:#e377c2;stroke-linecap:square;stroke-width:2;"/>
    </g>
    <g id="line2d_48"/>
    <g id="text_20">
     <!-- RF -->
     <defs>
      <path d="M 9.8125 72.90625 
L 51.703125 72.90625 
L 51.703125 64.59375 
L 19.671875 64.59375 
L 19.671875 43.109375 
L 48.578125 43.109375 
L 48.578125 34.8125 
L 19.671875 34.8125 
L 19.671875 0 
L 9.8125 0 
z
" id="DejaVuSans-46"/>
     </defs>
     <g transform="translate(378.85125 237.791812)scale(0.1 -0.1)">
      <use xlink:href="#DejaVuSans-52"/>
      <use x="69.482422" xlink:href="#DejaVuSans-46"/>
     </g>
    </g>
    <g id="line2d_49">
     <path d="M 350.85125 248.969938 
L 370.85125 248.969938 
" style="fill:none;stroke:#7f7f7f;stroke-linecap:square;stroke-width:2;"/>
    </g>
    <g id="line2d_50"/>
    <g id="text_21">
     <!-- LR -->
     <g transform="translate(378.85125 252.469938)scale(0.1 -0.1)">
      <use xlink:href="#DejaVuSans-4c"/>
      <use x="55.712891" xlink:href="#DejaVuSans-52"/>
     </g>
    </g>
    <g id="line2d_51">
     <path d="M 350.85125 263.648062 
L 370.85125 263.648062 
" style="fill:none;stroke:#bcbd22;stroke-linecap:square;stroke-width:2;"/>
    </g>
    <g id="line2d_52"/>
    <g id="text_22">
     <!-- QDA -->
     <defs>
      <path d="M 39.40625 66.21875 
Q 28.65625 66.21875 22.328125 58.203125 
Q 16.015625 50.203125 16.015625 36.375 
Q 16.015625 22.609375 22.328125 14.59375 
Q 28.65625 6.59375 39.40625 6.59375 
Q 50.140625 6.59375 56.421875 14.59375 
Q 62.703125 22.609375 62.703125 36.375 
Q 62.703125 50.203125 56.421875 58.203125 
Q 50.140625 66.21875 39.40625 66.21875 
z
M 53.21875 1.3125 
L 66.21875 -12.890625 
L 54.296875 -12.890625 
L 43.5 -1.21875 
Q 41.890625 -1.3125 41.03125 -1.359375 
Q 40.1875 -1.421875 39.40625 -1.421875 
Q 24.03125 -1.421875 14.8125 8.859375 
Q 5.609375 19.140625 5.609375 36.375 
Q 5.609375 53.65625 14.8125 63.9375 
Q 24.03125 74.21875 39.40625 74.21875 
Q 54.734375 74.21875 63.90625 63.9375 
Q 73.09375 53.65625 73.09375 36.375 
Q 73.09375 23.6875 67.984375 14.640625 
Q 62.890625 5.609375 53.21875 1.3125 
z
" id="DejaVuSans-51"/>
     </defs>
     <g transform="translate(378.85125 267.148062)scale(0.1 -0.1)">
      <use xlink:href="#DejaVuSans-51"/>
      <use x="78.710938" xlink:href="#DejaVuSans-44"/>
      <use x="155.697266" xlink:href="#DejaVuSans-41"/>
     </g>
    </g>
    <g id="line2d_53">
     <path d="M 350.85125 278.326187 
L 370.85125 278.326187 
" style="fill:none;stroke:#17becf;stroke-linecap:square;stroke-width:2;"/>
    </g>
    <g id="line2d_54"/>
    <g id="text_23">
     <!-- KNN -->
     <defs>
      <path d="M 9.8125 72.90625 
L 19.671875 72.90625 
L 19.671875 42.09375 
L 52.390625 72.90625 
L 65.09375 72.90625 
L 28.90625 38.921875 
L 67.671875 0 
L 54.6875 0 
L 19.671875 35.109375 
L 19.671875 0 
L 9.8125 0 
z
" id="DejaVuSans-4b"/>
      <path d="M 9.8125 72.90625 
L 23.09375 72.90625 
L 55.421875 11.921875 
L 55.421875 72.90625 
L 64.984375 72.90625 
L 64.984375 0 
L 51.703125 0 
L 19.390625 60.984375 
L 19.390625 0 
L 9.8125 0 
z
" id="DejaVuSans-4e"/>
     </defs>
     <g transform="translate(378.85125 281.826187)scale(0.1 -0.1)">
      <use xlink:href="#DejaVuSans-4b"/>
      <use x="65.576172" xlink:href="#DejaVuSans-4e"/>
      <use x="140.380859" xlink:href="#DejaVuSans-4e"/>
     </g>
    </g>
    <g id="line2d_55">
     <path d="M 350.85125 293.004312 
L 370.85125 293.004312 
" style="fill:none;stroke:#1f77b4;stroke-linecap:square;stroke-width:2;"/>
    </g>
    <g id="line2d_56"/>
    <g id="text_24">
     <!-- NB -->
     <g transform="translate(378.85125 296.504312)scale(0.1 -0.1)">
      <use xlink:href="#DejaVuSans-4e"/>
      <use x="74.804688" xlink:href="#DejaVuSans-42"/>
     </g>
    </g>
   </g>
  </g>
 </g>
 <defs>
  <clipPath id="p147f3030da">
   <rect height="266.112" width="357.12" x="57.6" y="41.472"/>
  </clipPath>
 </defs>
</svg>
